<?xml version="1.0" encoding="UTF-8"?>
<svg width="82px" height="44px" viewBox="0 0 82 44" version="1.1" xmlns="http://www.w3.org/2000/svg" xmlns:xlink="http://www.w3.org/1999/xlink">
    <!-- Generator: Sketch 48.1 (47250) - http://www.bohemiancoding.com/sketch -->
    <title>Combined Shape</title>
    <desc>Created with Sketch.</desc>
    <defs></defs>
    <g id="ASSET-SHEET" stroke="none" stroke-width="1" fill="none" fill-rule="evenodd" transform="translate(-698.000000, -1288.000000)">
        <path d="M736.816626,1321.68197 L700.21211,1321.68197 C699.482953,1321.68197 699,1321.19975 699,1320.4717 C699,1319.74365 699.482953,1319.26144 700.21211,1319.26144 L736.699051,1319.26144 C744.336315,1319.26144 750.638318,1312.96903 750.638318,1305.34339 C750.638318,1297.71776 744.336315,1291.42535 736.699051,1291.42535 C729.061787,1291.42535 722.759784,1297.71776 722.759784,1305.34339 C722.759784,1307.88688 723.488941,1310.42554 724.819402,1312.48202 C725.18398,1313.08715 724.942504,1313.81524 724.454823,1314.17445 C723.848768,1314.53847 723.119563,1314.29737 722.759808,1313.81043 C721.183095,1311.26694 720.458738,1308.36424 720.458738,1305.33857 C720.458738,1296.38455 727.85455,1289 736.822226,1289 C745.789902,1289 753.185713,1296.38455 753.185713,1305.33857 C753.180986,1314.29732 745.789902,1321.68199 736.817377,1321.68199 L736.816626,1321.68197 Z M778.999273,1320.4717 L779,1320.47166 C779,1320.83097 778.758523,1321.19499 778.51232,1321.31791 L769.180041,1330.63598 C768.938564,1330.87709 768.573986,1331 768.332509,1331 C768.091033,1331 767.726454,1330.87709 767.484977,1330.63598 C767.002024,1330.15381 767.002024,1329.42576 767.484977,1328.94354 L774.757639,1321.68195 L754.02813,1321.68195 C753.298973,1321.68195 752.81602,1321.19974 752.81602,1320.47169 C752.81602,1319.74364 753.298973,1319.26142 754.02813,1319.26142 L774.880062,1319.25669 L767.607401,1311.9951 C767.124447,1311.51293 767.124447,1310.78489 767.607401,1310.30267 C768.090305,1309.82045 768.819462,1309.82045 769.302415,1310.30267 L778.634694,1319.62546 C778.876171,1319.86657 778.999273,1320.10768 778.999273,1320.4717 Z" id="Combined-Shape" stroke="#181843" fill="#9D9CE2"></path>
    </g>
</svg>