<?xml version="1.0" encoding="UTF-8"?>
<svg width="202px" height="202px" viewBox="0 0 202 202" version="1.1" xmlns="http://www.w3.org/2000/svg" xmlns:xlink="http://www.w3.org/1999/xlink">
    <!-- Generator: Sketch 48.1 (47250) - http://www.bohemiancoding.com/sketch -->
    <title>D-A-Hats01-200x200</title>
    <desc>Created with Sketch.</desc>
    <defs></defs>
    <g id="ASSET-SHEET" stroke="none" stroke-width="1" fill="none" fill-rule="evenodd" transform="translate(-567.000000, -2476.000000)">
        <g id="D-A-Hats01-200x200" transform="translate(568.000000, 2477.000000)">
            <circle id="Oval" stroke="#64B4B6" stroke-width="2" cx="100" cy="100" r="100"></circle>
            <path d="M95.7709074,56.0029714 C94.7400966,56.1162086 93.9668885,56.9986855 93.9903796,58.0334048 L93.9903796,62.0318952 C93.9825725,62.5668533 94.1895244,63.0822987 94.5643829,63.4649542 C94.9431499,63.8437212 95.4546668,64.0584801 95.9896448,64.0584801 C96.5246228,64.0584801 97.0361497,63.8437212 97.4149067,63.4649542 C97.7897652,63.0822887 97.9967171,62.5668533 97.98891,62.0318952 L97.98891,58.0334048 C97.9967171,57.4906397 97.7858667,56.9713058 97.4031911,56.5886503 C97.0205256,56.2059847 96.5011917,55.9951243 95.9584366,56.0029314 C95.8959602,55.9990229 95.8334838,55.9990229 95.7710073,56.0029314 L95.7709074,56.0029714 Z M83.7754361,59.0018392 C83.0647645,59.0682241 82.4400403,59.5133661 82.1432524,60.1654999 C81.8464844,60.8136951 81.9206764,61.5751677 82.3384887,62.156948 L84.3377339,65.1558158 C84.6345018,65.5931507 85.0952579,65.8977257 85.6184503,65.9992474 C86.1377843,66.0968705 86.6805494,65.9836333 87.1178842,65.6868653 C87.5591277,65.3900974 87.8597941,64.9293413 87.9613158,64.4061488 C88.058929,63.8868149 87.9456917,63.3440498 87.6489338,62.9067149 L85.6496885,59.9078471 C85.2787386,59.3377524 84.6422689,58.9980306 83.9628254,59.0019391 C83.900349,58.9980306 83.8378726,58.9980306 83.7753962,59.0019391 L83.7754361,59.0018392 Z M107.766379,59.0018392 C107.176761,59.0760312 106.6496,59.4079359 106.329421,59.9077472 L104.330176,62.906615 C104.033408,63.3439499 103.920171,63.886715 104.017794,64.4060489 C104.119316,64.9292913 104.419982,65.3900574 104.861225,65.6867654 C105.29856,65.9835333 105.841325,66.0967706 106.360659,65.9991474 C106.883902,65.8976258 107.344668,65.5930507 107.641376,65.1557159 L109.640621,62.156848 C110.077956,61.539891 110.128717,60.7276876 109.773381,60.0560412 C109.414147,59.3883233 108.711282,58.9822466 107.953768,59.0017392 C107.891291,58.9978307 107.828815,58.9978307 107.766339,59.0017392 L107.766379,59.0018392 Z M75.7784553,66.99882 C74.9193997,67.0652049 74.2009509,67.6782535 73.9939291,68.513848 C73.7908857,69.3533711 74.142313,70.2280009 74.8725074,70.6849284 L77.8713752,72.6841736 C78.3087101,72.9809415 78.8514751,73.0941788 79.3708091,72.9965556 C79.8940515,72.895034 80.3548176,72.5943675 80.6515256,72.1531241 C80.9482935,71.7157892 81.0615308,71.1730241 80.9639076,70.6536901 C80.8623859,70.1304477 80.5578109,69.6696817 80.120476,69.3729737 L77.1216082,67.3737285 C76.785795,67.1316299 76.3796983,67.0027785 75.9658446,66.99887 C75.9033682,66.9949615 75.8408918,66.9949615 75.7784153,66.99887 L75.7784553,66.99882 Z M115.732371,67.0300582 C115.416081,67.073012 115.119323,67.1901578 114.857701,67.3736785 L111.858834,69.3729237 C111.370738,69.6462605 111.019311,70.1070265 110.886541,70.6536402 C110.757679,71.1964053 110.859211,71.76652 111.171593,72.2311446 C111.480067,72.6958092 111.972071,73.0081912 112.522683,73.0940988 C113.077164,73.1800064 113.639461,73.0316224 114.076796,72.6840936 L117.075664,70.6848484 C117.852711,70.1733215 118.17295,69.1971101 117.852711,68.3263388 C117.532522,67.451669 116.653963,66.916671 115.732411,67.0299283 L115.732371,67.0300582 Z M95.9898247,68.0296808 C88.8363255,68.0296808 82.9947309,73.8712754 82.9947309,81.0247747 C82.9947309,84.5390479 84.4589781,87.6784626 86.7433157,90.0213781 L70.9992597,90.0213781 C70.9367833,90.0174696 70.8743068,90.0174696 70.8118304,90.0213781 C69.7810196,90.1190012 68.9961159,90.9858539 69.0000145,92.0206233 L69.0000145,106.577128 C69.0000145,111.879826 70.4721587,116.854248 72.9985049,121.102644 L72.9672667,121.102644 C75.8567758,126.499006 78.9961905,130.509292 78.9961905,134.003773 L78.9961905,142.000755 C78.9961905,143.105838 79.8903829,144 80.9954357,144 L107.985246,144 C109.090329,144 109.984491,143.105808 109.984491,142.000755 L109.984491,135.003396 L113.982982,135.003396 C115.911953,135.003396 117.548036,134.066249 118.793665,132.816721 C120.039295,131.567193 120.984238,129.927212 120.98034,128.006037 L120.98034,120.009057 L125.978453,120.009057 C128.692228,120.009057 130.976566,117.7755 130.976566,115.042132 C130.976566,114.112793 130.72666,113.187332 130.226849,112.386934 C130.179987,112.308844 130.129226,112.23855 130.070658,112.168267 L120.98029,101.297371 L120.98029,92.0196736 C120.98029,90.9145909 120.086097,90.0204284 118.981045,90.0204284 L105.236234,90.0204284 C107.520571,87.677513 108.984819,84.5380982 108.984819,81.023825 C108.984819,73.8703257 103.143224,68.0287312 95.9897248,68.0287312 L95.9898247,68.0296808 Z M95.9898247,72.0281712 C100.984039,72.0281712 104.986428,76.0305602 104.986428,81.0247747 C104.986428,83.8323147 103.705712,86.3430668 101.706466,87.9909446 C101.253517,88.3697116 100.987988,88.9319994 100.987988,89.5215668 L100.987988,90.0213781 L97.9891199,90.0213781 L97.9891199,86.67884 C100.308544,85.847124 101.98761,83.6135973 101.98761,81.0247747 C101.98761,77.7369159 99.2777334,75.027039 95.9898747,75.027039 C92.702016,75.027039 89.9921391,77.7369159 89.9921391,81.0247747 C89.9921391,83.6175958 91.6673067,85.8510525 93.9906295,86.67884 L93.9906295,90.0213781 L90.9917617,90.0213781 L90.9917617,89.5215668 C90.9917617,88.9319494 90.7262419,88.3697017 90.273283,87.9909446 C88.2740377,86.3431667 86.9933213,83.8323147 86.9933213,81.0247747 C86.9933213,76.0305602 90.9957102,72.0281712 95.9899247,72.0281712 L95.9898247,72.0281712 Z M72.8105758,79.0255294 C72.2795263,79.0489606 71.779765,79.2832422 71.4243992,79.6776233 C71.0651548,80.0680958 70.8816341,80.5874398 70.9050652,81.1184793 C70.9284964,81.6495188 71.1627779,82.1492901 71.557159,82.5046559 C71.9476316,82.8639003 72.4669755,83.047421 72.9980151,83.0239899 L76.9965055,83.0239899 C77.5314635,83.0317969 78.0469089,82.8248451 78.4295644,82.4499866 C78.8083314,82.0712196 79.0230903,81.5597027 79.0230903,81.0247247 C79.0230903,80.4897466 78.8083314,79.9782198 78.4295644,79.5994628 C78.0468989,79.2246043 77.5314635,79.0176524 76.9965055,79.0254595 L72.9980151,79.0254595 C72.9355386,79.0215509 72.8730622,79.0215509 72.8105858,79.0254595 L72.8105758,79.0255294 Z M95.9898247,79.0255294 C97.1182987,79.0255294 97.9890699,79.8962907 97.9890699,81.0247747 C97.9890699,82.1532586 97.1183087,83.0240199 95.9898247,83.0240199 C94.8613408,83.0240199 93.9905795,82.1532586 93.9905795,81.0247747 C93.9905795,79.8962907 94.8613408,79.0255294 95.9898247,79.0255294 Z M114.794725,79.0255294 C114.263676,79.0489606 113.763914,79.2832422 113.408548,79.6776233 C113.049304,80.0680958 112.865783,80.5874398 112.889215,81.1184793 C112.912646,81.6495188 113.146927,82.1492901 113.541308,82.5046559 C113.931781,82.8639003 114.451125,83.047421 114.982164,83.0239899 L118.980655,83.0239899 C119.515613,83.0317969 120.031058,82.8248451 120.413714,82.4499866 C120.792481,82.0712196 121.00724,81.5597027 121.00724,81.0247247 C121.00724,80.4897466 120.792481,79.9782198 120.413714,79.5994628 C120.031048,79.2246043 119.515613,79.0176524 118.980655,79.0254595 L114.982164,79.0254595 C114.919688,79.0215509 114.857212,79.0215509 114.794735,79.0254595 L114.794725,79.0255294 Z M72.9984549,94.0198685 L116.981899,94.0198685 L116.981899,102.016849 C116.981899,102.485422 117.149806,102.938381 117.450472,103.297566 L126.853123,114.512332 L126.853123,114.54357 C126.919508,114.660716 126.978075,114.824714 126.978075,115.043381 C126.978075,115.617385 126.583694,116.011766 125.978453,116.011766 L118.981095,116.011766 C117.876012,116.011766 116.981849,116.905958 116.981849,118.011011 L116.981849,128.007237 C116.981849,128.452379 116.606991,129.315343 115.951039,129.975294 C115.295086,130.635245 114.443808,131.006105 113.982982,131.006105 L107.985246,131.006105 C106.880163,131.006105 105.986001,131.900297 105.986001,133.00535 L105.986001,140.002708 L82.9946809,140.002708 L82.9946809,134.004973 C82.9946809,128.44847 79.1445345,124.145395 76.497134,119.198563 L76.4346576,119.136086 C74.2440846,115.477267 72.9984549,111.174292 72.9984549,106.578827 L72.9984549,94.0198685 Z" id="Page-1" stroke="#181743" fill="#FFFFFF"></path>
        </g>
    </g>
</svg>