<?xml version="1.0" encoding="UTF-8"?>
<svg width="202px" height="202px" viewBox="0 0 202 202" version="1.1" xmlns="http://www.w3.org/2000/svg" xmlns:xlink="http://www.w3.org/1999/xlink">
    <!-- Generator: Sketch 48.1 (47250) - http://www.bohemiancoding.com/sketch -->
    <title>D-A-Hats03-200x200</title>
    <desc>Created with Sketch.</desc>
    <defs></defs>
    <g id="ASSET-SHEET" stroke="none" stroke-width="1" fill="none" fill-rule="evenodd" transform="translate(-1587.000000, -2476.000000)">
        <g id="D-A-Hats03-200x200" transform="translate(1588.000000, 2477.000000)">
            <circle id="Oval-Copy-3" stroke="#64B4B6" stroke-width="2" cx="100" cy="100" r="100"></circle>
            <path d="M59.3217107,56.0029215 C58.3081962,56.1142587 57.547962,56.9819282 57.5710589,57.9992857 L57.5710589,61.9306843 C57.5633829,62.4566662 57.7668622,62.9634627 58.1354308,63.3396976 C58.5078424,63.7121092 59.0107764,63.9232646 59.5367779,63.9232646 C60.0627794,63.9232646 60.5657232,63.7121092 60.9381249,63.3396976 C61.3066935,62.9634529 61.5101729,62.4566662 61.5024968,61.9306843 L61.5024968,57.9992857 C61.5101729,57.4656279 61.3028604,56.955008 60.9266059,56.5787731 C60.5503612,56.2025285 60.0397414,55.9952062 59.5060933,56.0028822 C59.4446652,55.9990393 59.3832371,55.9990393 59.321809,56.0028822 L59.3217107,56.0029215 Z M47.5275149,58.9514705 C46.8287678,59.0167415 46.2145261,59.4544143 45.922718,60.0956058 C45.6309296,60.7329248 45.7038767,61.4816203 46.1146784,62.0536388 L48.0803777,65.0021878 C48.3721661,65.4321845 48.825191,65.731649 49.3396046,65.8314672 C49.8502245,65.9274523 50.3838824,65.8161151 50.8138791,65.5243267 C51.2477188,65.2325383 51.5433403,64.7795134 51.6431585,64.2650997 C51.7391338,63.7544798 51.6277966,63.2208219 51.336018,62.7908252 L49.3703187,59.8422763 C49.005593,59.2817473 48.3798028,58.9477258 47.7117599,58.9515688 C47.6503318,58.9477258 47.5889037,58.9477258 47.5274756,58.9515688 L47.5275149,58.9514705 Z M71.1159065,58.9514705 C70.5361825,59.0244176 70.0178669,59.3507531 69.7030602,59.842178 L67.7373609,62.7907269 C67.4455725,63.2207236 67.3342352,63.7543815 67.4302203,64.2650014 C67.5300386,64.7794642 67.8256601,65.2324989 68.2594997,65.5242284 C68.6894965,65.8160168 69.2231543,65.927354 69.7337742,65.8313689 C70.248237,65.7315507 70.7012718,65.4320862 70.9930012,65.0020895 L72.9587005,62.0535405 C73.3886972,61.4469356 73.4386063,60.6483604 73.0892327,59.9879837 C72.7360261,59.3314696 72.044955,58.9322066 71.3001515,58.9513722 C71.2387234,58.9475292 71.1772953,58.9475292 71.1158672,58.9513722 L71.1159065,58.9514705 Z M39.6647177,66.8142677 C38.8200764,66.8795387 38.1136827,67.4823008 37.9101345,68.3038746 C37.7104981,69.1293111 38.0560287,69.9892652 38.7739709,70.4385258 L41.7225198,72.4042251 C42.1525166,72.6960135 42.6861744,72.8073507 43.1967943,72.7113656 C43.7112571,72.6115474 44.1642919,72.3159259 44.4560213,71.8820862 C44.7478097,71.4520895 44.8591469,70.9184316 44.7631618,70.4078117 C44.6633436,69.8933489 44.3638791,69.4403142 43.9338824,69.1485847 L40.9853335,67.1828854 C40.655155,66.9448491 40.2558723,66.8181598 39.8489627,66.8143168 C39.7875346,66.8104739 39.7261065,66.8104739 39.6646784,66.8143168 L39.6647177,66.8142677 Z M78.9482354,66.8449817 C78.6372519,66.8872148 78.3454734,67.0023949 78.088242,67.1828363 L75.139693,69.1485356 C74.6597872,69.417286 74.3142566,69.8703207 74.1837145,70.4077626 C74.0570153,70.9414205 74.1568434,71.5019691 74.4639839,71.9587976 C74.7672814,72.4156654 75.2510302,72.722806 75.7924035,72.8072721 C76.3375803,72.8917382 76.8904431,72.745844 77.3204398,72.4041464 L80.2689888,70.4384471 C81.0329971,69.9355033 81.3478628,68.975672 81.0329971,68.1195117 C80.7181805,67.2595182 79.8543638,66.7334971 78.9482747,66.844854 L78.9482354,66.8449817 Z M59.5369548,67.8278314 C52.5034861,67.8278314 46.7599093,73.5714082 46.7599093,80.6048768 C46.7599093,84.0601831 48.1995875,87.1469207 50.4455955,89.4505237 L34.9657135,89.4505237 C34.9042854,89.4466808 34.8428573,89.4466808 34.7814292,89.4505237 C33.7679146,89.5465088 32.9961811,90.3988164 33.0000142,91.416223 L33.0000142,105.72848 C33.0000142,110.942202 34.4474569,115.833157 36.9314128,120.010268 L36.9006988,120.010268 C39.741724,125.316083 42.8284616,129.25908 42.8284616,132.694926 L42.8284616,140.557724 C42.8284616,141.644264 43.7076501,142.523423 44.7941609,142.523423 L71.3311015,142.523423 C72.4176418,142.523423 73.2968008,141.644234 73.2968008,140.557724 L73.2968008,133.677775 L77.2281994,133.677775 C79.1248043,133.677775 80.7334344,132.756354 81.9581633,131.527792 C83.1828923,130.299229 84.11198,128.686766 84.1081469,126.797828 L84.1081469,118.93503 L89.0223952,118.93503 C91.6906354,118.93503 93.9366434,116.738951 93.9366434,114.051447 C93.9366434,113.137702 93.690931,112.22777 93.1995062,111.440802 C93.1534302,111.364022 93.1035211,111.294908 93.0459359,111.225803 L84.1080978,100.537313 L84.1080978,91.4152893 C84.1080978,90.328749 83.2289093,89.44959 82.1423985,89.44959 L68.6282158,89.44959 C70.8742238,87.145987 72.313902,84.0592494 72.313902,80.6039431 C72.313902,73.5704745 66.5703252,67.8268977 59.5368565,67.8268977 L59.5369548,67.8278314 Z M59.5369548,71.75923 C64.4473699,71.75923 68.3826017,75.6944617 68.3826017,80.6048768 C68.3826017,83.3653084 67.1233747,85.8339318 65.1576754,87.4541595 C64.7123265,87.8265711 64.4512522,88.379424 64.4512522,88.9590989 L64.4512522,89.4505237 L61.5027032,89.4505237 L61.5027032,86.164071 C63.7832093,85.3463106 65.4341018,83.1502609 65.4341018,80.6048768 C65.4341018,77.3721861 62.7696947,74.7077789 59.5370039,74.7077789 C56.3043131,74.7077789 53.639906,77.3721861 53.639906,80.6048768 C53.639906,83.1541923 55.2869655,85.3501732 57.5713046,86.164071 L57.5713046,89.4505237 L54.6227557,89.4505237 L54.6227557,88.9590989 C54.6227557,88.3793748 54.3616912,87.8265612 53.9163325,87.4541595 C51.9506332,85.8340301 50.6914062,83.3653084 50.6914062,80.6048768 C50.6914062,75.6944617 54.6266379,71.75923 59.5370531,71.75923 L59.5369548,71.75923 Z M36.7466371,78.6391775 C36.2244982,78.6622155 35.7331225,78.892566 35.3837195,79.2803297 C35.030503,79.6642504 34.8500616,80.1748801 34.8730996,80.6970092 C34.8961376,81.2191382 35.1264881,81.7105237 35.5142517,82.0599268 C35.8981725,82.4131433 36.4088022,82.5935847 36.9309312,82.5705467 L40.8623298,82.5705467 C41.3883116,82.5782227 41.8951082,82.3747434 42.2713431,82.0061747 C42.6437546,81.6337632 42.8549101,81.1308292 42.8549101,80.6048277 C42.8549101,80.0788262 42.6437546,79.5758824 42.2713431,79.2034807 C41.8950984,78.8349121 41.3883116,78.6314327 40.8623298,78.6391087 L36.9309312,78.6391087 C36.8695031,78.6352658 36.808075,78.6352658 36.7466469,78.6391087 L36.7466371,78.6391775 Z M59.5369548,78.6391775 C60.6464938,78.6391775 61.5026541,79.495328 61.5026541,80.6048768 C61.5026541,81.7144256 60.6465036,82.5705761 59.5369548,82.5705761 C58.427406,82.5705761 57.5712555,81.7144256 57.5712555,80.6048768 C57.5712555,79.495328 58.427406,78.6391775 59.5369548,78.6391775 Z M78.0263224,78.6391775 C77.5041836,78.6622155 77.0128079,78.892566 76.6634048,79.2803297 C76.3101883,79.6642504 76.1297469,80.1748801 76.1527849,80.6970092 C76.1758229,81.2191382 76.4061734,81.7105237 76.7939371,82.0599268 C77.1778578,82.4131433 77.6884875,82.5935847 78.2106166,82.5705467 L82.1420152,82.5705467 C82.667997,82.5782227 83.1747936,82.3747434 83.5510284,82.0061747 C83.92344,81.6337632 84.1345954,81.1308292 84.1345954,80.6048277 C84.1345954,80.0788262 83.92344,79.5758824 83.5510284,79.2034807 C83.1747838,78.8349121 82.667997,78.6314327 82.1420152,78.6391087 L78.2106166,78.6391087 C78.1491885,78.6352658 78.0877604,78.6352658 78.0263323,78.6391087 L78.0263224,78.6391775 Z M36.9313637,93.3819223 L80.1767975,93.3819223 L80.1767975,101.24472 C80.1767975,101.70543 80.3418867,102.150789 80.6375082,102.503946 L89.8823886,113.530537 L89.8823886,113.561251 C89.9476597,113.676431 90.0052448,113.837677 90.0052448,114.052676 C90.0052448,114.617048 89.6174812,115.004811 89.0223952,115.004811 L82.1424476,115.004811 C81.0559073,115.004811 80.1767483,115.884 80.1767483,116.970511 L80.1767483,126.799007 C80.1767483,127.23668 79.8081797,128.085164 79.1632338,128.734041 C78.5182878,129.382919 77.6812931,129.747556 77.2281994,129.747556 L71.3311015,129.747556 C70.2445612,129.747556 69.3654022,130.626744 69.3654022,131.713255 L69.3654022,138.593203 L46.7598602,138.593203 L46.7598602,132.696105 C46.7598602,127.232837 42.9743165,123.001964 40.3713375,118.138136 L40.3099094,118.076708 C38.1560926,114.479281 36.9313637,110.248507 36.9313637,105.73015 L36.9313637,93.3819223 Z" id="Page-1-Copy-3" stroke="#181743" fill="#FFFFFF"></path>
            <path d="M132.833606,68.6111102 C125.800137,68.6111102 120.05656,74.354687 120.05656,81.3881557 C120.05656,84.8434619 121.496238,87.9301995 123.742246,90.2338025 L108.262364,90.2338025 C108.200936,90.2299596 108.139508,90.2299596 108.07808,90.2338025 C107.064566,90.3297876 106.292832,91.1820952 106.296665,92.1995018 L106.296665,106.511758 C106.296665,111.725481 107.744108,116.616436 110.228064,120.793547 L110.19735,120.793547 C113.038375,126.099362 116.125112,130.042359 116.125112,133.478204 L116.125112,141.341003 C116.125112,142.427543 117.004301,143.306702 118.090812,143.306702 L144.627752,143.306702 C145.714293,143.306702 146.593452,142.427513 146.593452,141.341003 L146.593452,134.461054 L150.52485,134.461054 C152.421455,134.461054 154.030085,133.539632 155.254814,132.31107 C156.479543,131.082508 157.408631,129.470045 157.404798,127.581106 L157.404798,119.718309 L162.319046,119.718309 C164.987286,119.718309 167.233294,117.52223 167.233294,114.834726 C167.233294,113.92098 166.987582,113.011048 166.496157,112.224081 C166.450081,112.1473 166.400172,112.078186 166.342587,112.009082 L157.404749,101.320592 L157.404749,92.1985681 C157.404749,91.1120278 156.52556,90.2328688 155.439049,90.2328688 L141.924867,90.2328688 C144.170875,87.9292658 145.610553,84.8425282 145.610553,81.387222 C145.610553,74.3537533 139.866976,68.6101765 132.833507,68.6101765 L132.833606,68.6111102 Z M141.679253,81.3881557 C141.679253,84.1485872 140.420026,86.6172107 138.454326,88.2374383 C138.008977,88.6098499 137.747903,89.1627028 137.747903,89.7423777 L137.747903,90.2338025 L134.799354,90.2338025 L130.867955,90.2338025 L127.919407,90.2338025 L127.919407,89.7423777 C127.919407,89.1626537 127.658342,88.60984 127.212983,88.2374383 C125.247284,86.6173089 123.988057,84.1485872 123.988057,81.3881557 C123.988057,76.4777405 127.923289,72.5425088 132.833704,72.5425088 C137.744021,72.5425088 141.679253,76.4777405 141.679253,81.3881557 Z M110.228015,94.1652011 L153.473448,94.1652011 L153.473448,102.027998 C153.473448,102.488709 153.638538,102.934068 153.934159,103.287225 L163.179039,114.313816 L163.179039,114.34453 C163.244311,114.45971 163.301896,114.620956 163.301896,114.835954 C163.301896,115.400326 162.914132,115.78809 162.319046,115.78809 L155.439098,115.78809 C154.352558,115.78809 153.473399,116.667279 153.473399,117.753789 L153.473399,127.582286 C153.473399,128.019959 153.104831,128.868443 152.459885,129.51732 C151.814939,130.166198 150.977944,130.530835 150.52485,130.530835 L144.627752,130.530835 C143.541212,130.530835 142.662053,131.410023 142.662053,132.496534 L142.662053,139.376482 L120.056511,139.376482 L120.056511,133.479384 C120.056511,128.016116 116.270967,123.785243 113.667988,118.921415 L113.60656,118.859987 C111.452743,115.26256 110.228015,111.031786 110.228015,106.513429 L110.228015,94.1652011 Z" id="Page-1-Copy-5" stroke="#181743" fill="#FFFFFF" transform="translate(136.764973, 105.958439) scale(-1, 1) translate(-136.764973, -105.958439) "></path>
            <g id="Group-6" transform="translate(91.000000, 71.000000)" stroke="#FFFFFF" stroke-linecap="round" stroke-linejoin="round" stroke-width="3">
                <path d="M0.716134286,9.03814894 L19.631399,9.03814894" id="Line"></path>
                <path d="M11.7500387,1.15678863 L19.4922468,8.8989967" id="Line-Copy"></path>
            </g>
        </g>
    </g>
</svg>