<?xml version="1.0" encoding="UTF-8"?>
<svg width="204px" height="204px" viewBox="0 0 204 204" version="1.1" xmlns="http://www.w3.org/2000/svg" xmlns:xlink="http://www.w3.org/1999/xlink">
    <!-- Generator: Sketch 47.1 (45422) - http://www.bohemiancoding.com/sketch -->
    <title>D-A-Hats02-200x200</title>
    <desc>Created with Sketch.</desc>
    <defs></defs>
    <g id="Page-1" stroke="none" stroke-width="1" fill="none" fill-rule="evenodd">
        <g id="ASSET-SHEET" transform="translate(-1076.000000, -2475.000000)">
            <g id="D-A-Hats02-200x200" transform="translate(1078.000000, 2477.000000)">
                <circle id="Oval-Copy-4" stroke="#64B4B6" stroke-width="4" cx="100" cy="100" r="100"></circle>
                <path d="M105.936863,72.3336214 L105.93724,72.3336214 C110.982331,72.3336214 115.124441,76.777353 115.124441,82.198999 L85,82.198999 C85,76.777353 89.1421107,72.3336214 94.1872015,72.3336214 L105.936863,72.3336214 Z M93.1339757,55.9274919 L93.1339757,55.9278684 C93.1339757,52.125712 96.2582192,49 100.061844,49 C103.865469,49 106.989713,52.1254108 106.989713,55.9278684 L106.989713,60.1464199 C106.989713,63.9485762 103.865469,67.0742883 100.061844,67.0742883 C96.2582192,67.0742883 93.1339757,63.9485009 93.1339757,60.1829458 L93.1339757,55.9274919 Z" id="Combined-Shape" stroke="#FFFFFF" stroke-width="3"></path>
                <path d="M72.9368633,132.333621 L72.9372399,132.333621 C77.9823307,132.333621 82.1244414,136.777353 82.1244414,142.198999 L52,142.198999 C52,136.777353 56.1421107,132.333621 61.1872015,132.333621 L72.9368633,132.333621 Z M60.1339757,115.927492 L60.1339757,115.927868 C60.1339757,112.125712 63.2582192,109 67.0618441,109 C70.8654691,109 73.9897125,112.125411 73.9897125,115.927868 L73.9897125,120.14642 C73.9897125,123.948576 70.8654691,127.074288 67.0618441,127.074288 C63.2582192,127.074288 60.1339757,123.948501 60.1339757,120.182946 L60.1339757,115.927492 Z" id="Combined-Shape-Copy-2" stroke="#FFFFFF" stroke-width="3"></path>
                <path d="M138.936863,132.333621 L138.93724,132.333621 C143.982331,132.333621 148.124441,136.777353 148.124441,142.198999 L118,142.198999 C118,136.777353 122.142111,132.333621 127.187202,132.333621 L138.936863,132.333621 Z M126.133976,115.927492 L126.133976,115.927868 C126.133976,112.125712 129.258219,109 133.061844,109 C136.865469,109 139.989713,112.125411 139.989713,115.927868 L139.989713,120.14642 C139.989713,123.948576 136.865469,127.074288 133.061844,127.074288 C129.258219,127.074288 126.133976,123.948501 126.133976,120.182946 L126.133976,115.927492 Z" id="Combined-Shape-Copy-3" stroke="#FFFFFF" stroke-width="3"></path>
                <polyline id="Path-3" stroke="#FFFFFF" stroke-width="3" stroke-linecap="round" stroke-linejoin="round" points="90.2765895 108.733034 96.6674466 115.123891 109.571782 102.219556"></polyline>
            </g>
        </g>
    </g>
</svg>