<?xml version="1.0" encoding="UTF-8"?>
<svg width="38px" height="38px" viewBox="0 0 38 38" version="1.1" xmlns="http://www.w3.org/2000/svg" xmlns:xlink="http://www.w3.org/1999/xlink">
    <!-- Generator: Sketch 47.1 (45422) - http://www.bohemiancoding.com/sketch -->
    <title>Global-LI-dark</title>
    <desc>Created with Sketch.</desc>
    <defs></defs>
    <g id="Page-1" stroke="none" stroke-width="1" fill="none" fill-rule="evenodd">
        <g id="ASSET-SHEET" transform="translate(-319.000000, -191.000000)">
            <g id="Global-LI-dark" transform="translate(320.000000, 192.000000)">
                <circle id="Oval-2-Copy-3" stroke="#3C3A6B" cx="18" cy="18" r="18"></circle>
                <path d="M13.2607409,10.3765787 C12.662082,9.95635438 11.9908344,9.91473507 11.306894,10.1192907 C10.1258098,10.4725101 9.63062715,11.8332818 10.3032094,12.8675817 C10.6983205,13.4752018 11.2912322,13.6983881 11.9880289,13.7111899 L12.0059513,13.7112716 C12.2774846,13.6899444 12.5668859,13.6563875 12.8313919,13.5606195 C13.5033477,13.3173045 13.9071204,12.8249546 13.9938727,12.1150566 C14.0803526,11.4070108 13.8587734,10.7963672 13.2607409,10.3765787 M10.3778409,15.1693366 C10.2507495,15.1687374 10.2192081,15.2057808 10.2193443,15.329522 C10.2224766,18.7962908 10.2224766,22.2630324 10.219426,25.7298285 C10.2193171,25.852344 10.248407,25.891294 10.3769965,25.8906675 C11.4614683,25.8853834 12.5459673,25.8876713 13.6304664,25.8876986 L13.7707409,25.8876986 L13.7707409,15.1722238 L13.6313107,15.1722238 C12.546839,15.1722238 11.4623127,15.1744029 10.3778409,15.1693366 M26.6223377,19.7195967 C26.6192871,18.710165 26.4690435,17.7284613 25.9726897,16.8294787 C25.5442396,16.0534474 24.9175257,15.4994584 24.0822523,15.1900646 C23.3735527,14.9275469 22.6414287,14.8663982 21.8971567,14.964209 C21.1318026,15.0647981 20.4593293,15.3714681 19.9213834,15.9354806 C19.7126603,16.1543361 19.5267898,16.3949818 19.3166776,16.6419466 L19.3166776,16.5008278 C19.3166776,16.1104288 19.3117748,15.7199209 19.3195376,15.3296581 C19.3220435,15.2051543 19.2876694,15.1688736 19.1612589,15.1694456 C18.0763513,15.1743211 16.9913892,15.1722238 15.9064544,15.1722238 L15.7638919,15.1722238 L15.7638919,25.8754688 L19.3166776,25.8754688 L19.3166776,25.6876916 C19.3166776,23.7946939 19.3133274,21.9016689 19.3202458,20.0086712 C19.3213081,19.7203321 19.3250396,19.418919 19.4053638,19.146514 C19.6217951,18.412674 20.2679023,17.7980538 21.1251838,17.740691 C21.9527762,17.6853166 22.5894318,18.07084 22.867938,18.8553967 C23.0282051,19.3069173 23.0606725,19.7764419 23.060618,20.2504336 C23.0603729,22.0708427 23.0605363,23.8912245 23.0605363,25.7116064 L23.0605363,25.8789553 L26.6171625,25.8789553 C26.6198591,25.837118 26.6241082,25.8017089 26.6241082,25.7663543 C26.6243261,23.7507594 26.6283845,21.7351644 26.6223377,19.7195967" id="Fill-1-Copy" fill="#9D9CE2"></path>
            </g>
        </g>
    </g>
</svg>