<?xml version="1.0" encoding="UTF-8"?>
<svg width="323px" height="392px" viewBox="0 0 323 392" version="1.1" xmlns="http://www.w3.org/2000/svg" xmlns:xlink="http://www.w3.org/1999/xlink">
    <!-- Generator: Sketch 47.1 (45422) - http://www.bohemiancoding.com/sketch -->
    <title>H-About-323x392</title>
    <desc>Created with Sketch.</desc>
    <defs></defs>
    <g id="Page-1" stroke="none" stroke-width="1" fill="none" fill-rule="evenodd">
        <g id="ASSET-SHEET" transform="translate(-1526.000000, -559.000000)">
            <g id="H-About-323x392" transform="translate(1526.000000, 559.000000)">
                <rect id="Rectangle-2-Copy-7" x="0" y="0" width="323" height="392"></rect>
                <g id="Group-12" transform="translate(35.000000, 39.000000)" fill="#64B4B6">
                    <path d="M0,275.430664 L18.7890625,272.720703 L98.8232422,44 L152.841797,44 L232.333984,272.720703 L251.123047,275.430664 L251.123047,307.046875 L161.513672,307.046875 L161.513672,275.430664 L179.760742,272.178711 L168.198242,236.045898 L82.9248047,236.045898 L71.3623047,272.178711 L89.609375,275.430664 L89.609375,307.046875 L0,307.046875 L0,275.430664 Z M95.390625,197.203125 L155.732422,197.203125 L126.103516,104.522461 L125.019531,104.522461 L95.390625,197.203125 Z" id="A"></path>
                    <path d="M102.875824,5.78484883 C102.522562,3.90427651 100.713927,2.66682559 98.8249073,3.01795385 C96.946447,3.37121573 95.7068841,5.1777392 96.0601243,7.06887135 C96.1595439,7.60194296 98.4589411,18.790295 114.21222,23.7739984 L114.21222,44.3418071 C116.116645,44.3418071 115.688756,44.3418071 117.507919,44.3418071 L130.322693,44.3418071 C132.141909,44.3418071 131.987774,44.3418071 133.618392,44.3418071 L133.618392,31.6326863 C139.518365,37.710281 139.915848,45.7525477 139.934801,46.2605032 C139.996146,48.1346854 141.533995,49.60911 143.395505,49.60911 C145.41146,49.5519964 146.915452,47.9570055 146.858321,46.0447521 C146.621401,37.8752258 141.119182,21.6060306 121.987999,18.5068526 C105.234189,15.7822024 102.954346,6.14442496 102.875824,5.78484883 Z M123.931985,16.5459172 C128.501147,16.5459172 132.204944,12.8419581 132.204944,8.27295859 C132.204944,3.70395903 128.500985,5.68434189e-13 123.931985,5.68434189e-13 C119.362985,5.68434189e-13 115.659026,3.70395903 115.659026,8.27295859 C115.659026,12.8419581 119.362985,16.5459172 123.931985,16.5459172" id="Page-1"></path>
                </g>
            </g>
        </g>
    </g>
</svg>