<?xml version="1.0" encoding="UTF-8"?>
<svg width="323px" height="392px" viewBox="0 0 323 392" version="1.1" xmlns="http://www.w3.org/2000/svg" xmlns:xlink="http://www.w3.org/1999/xlink">
    <!-- Generator: Sketch 47.1 (45422) - http://www.bohemiancoding.com/sketch -->
    <title>H-Boulder-323x392</title>
    <desc>Created with Sketch.</desc>
    <defs></defs>
    <g id="Page-1" stroke="none" stroke-width="1" fill="none" fill-rule="evenodd">
        <g id="ASSET-SHEET" transform="translate(-2239.000000, -559.000000)">
            <g id="H-Boulder-323x392" transform="translate(2239.000000, 559.000000)">
                <rect x="0" y="0" width="323" height="392"></rect>
                <g id="Group-2" transform="translate(26.000000, 61.000000)">
                    <path d="M18.5879764,58.6444424 C18.5898459,58.6548409 18.5924962,58.6716607 18.5961251,58.6982674 C18.594572,58.6858544 18.5922147,58.6742478 18.5898882,58.6626102 L18.5934012,58.6959949 L18.6173124,58.8693492 C18.6382394,58.9978728 18.6651424,59.1413401 18.7010054,59.2877991 C18.7667555,59.5807247 18.8564244,59.8885786 18.9610369,60.1904566 C19.1673006,60.7971507 19.4392915,61.3859861 19.7561131,61.932952 C20.3957091,63.0328674 21.2265947,63.9863391 22.260783,64.7455217 C24.0720662,66.0964856 26.6574603,66.9662489 29.5805953,67.1515626 L34.8261395,55.8295121 L35.0951387,55.2526515 C35.6062645,54.1467679 36.6822304,53.480246 37.8210158,53.4294318 L55.8527413,52.6612891 L55.8533764,52.6612738 C57.3328869,52.5985308 58.5822148,53.7462686 58.6449807,55.2257791 C58.7047396,56.6245654 57.6705514,57.8201409 56.307651,57.9994787 L40.7382056,59.9930992 C40.7382056,59.9930992 36.9004689,72.3668601 36.4282208,73.7537099 C35.4508073,76.6260384 32.0883182,78.0397836 30.1305836,77.96805 C28.6929273,77.9172358 25.8624529,77.8455022 23.3278654,77.2716333 C20.799246,76.6947803 18.2138519,75.6994621 15.8586175,74.1512404 C13.500399,72.6179392 11.4230701,70.5377028 9.88081664,68.1674712 C9.56402571,67.6862631 9.2740995,67.1871119 9.0021086,66.6849766 L6.21348841,72.8869689 L16.0710255,78.1952561 C17.3891258,78.906624 17.8852852,80.5504905 17.173925,81.8686291 C16.6837645,82.7772701 15.7511893,83.294349 14.7857888,83.294349 C14.352403,83.294349 13.9130184,83.1867524 13.5035361,82.9685598 L1.42550978,76.4647124 C0.173146534,75.7892305 -0.343934581,74.2618976 0.238901961,72.9647244 C0.238901961,72.9647244 6.05826835,60.0229863 6.75468502,58.4657357 C7.45105578,56.9144533 7.72903787,56.3764704 8.87677564,55.375184 C11.1867892,53.3604451 26.1731838,47.1734499 26.1731838,47.1734499 L30.4383304,33.8551008 C30.8866368,32.450331 32.3871126,31.6791889 33.7918671,32.1275259 C35.1966369,32.5758323 35.967779,34.0763081 35.519442,35.4810626 L30.892605,49.9295508 C30.6834107,50.5841439 30.2440184,51.1011921 29.6940607,51.4180137 L29.565537,51.4927314 L18.4439581,57.8919816 C18.506724,58.1340777 18.5874253,58.3791733 18.5874253,58.6302371 L18.5874253,58.6392048 L18.5879764,58.6444424 Z M29.2367025,86.5256746 C29.377178,87.7809913 28.498447,89.102114 27.2879203,89.4607438 L24.6128496,90.25582 C23.4023688,90.6144881 22.1947957,89.9001437 21.9318107,88.6657441 L20.5987515,82.4428653 C20.3327365,81.208435 21.1188221,80.4581971 22.3382629,80.7750493 L26.5615553,81.8689964 C27.7840491,82.1858179 28.898885,83.4710853 29.036384,84.7264043 L29.2367025,86.5256746 Z M9.50402963,51.3100192 L9.50402963,51.3099427 C5.88146317,51.1067166 2.97625577,48.0430984 2.96131223,44.4085955 C2.943331,40.6007076 6.15340051,37.3757175 9.91346595,37.4205558 C13.7033726,37.46241 16.7490937,40.7053813 16.647473,44.5789963 C16.5428758,48.446643 13.2760315,51.5222283 9.50402963,51.3100192 Z" id="Combined-Shape" fill="#FFFFFF"></path>
                    <path d="M148.045783,0 C179.8355,0 204.636056,6.18125687 222.448193,18.543956 C240.26033,30.9066552 249.166265,49.3886133 249.166265,73.9903846 C249.166265,86.4767108 245.857463,97.6338794 239.239759,107.462225 C232.622055,117.290571 223.004882,124.677173 210.387952,129.622253 C226.592049,133.083809 238.744939,140.501317 246.846988,151.875 C254.949036,163.248683 259,176.41476 259,191.373626 C259,217.211668 250.465146,236.775346 233.395181,250.065247 C216.325216,263.355149 192.143128,270 160.848193,270 L28,270 L28,237.548077 L56.7590361,231.98489 L56.7590361,38.2005495 L28,32.6373626 L28,0 L148.045783,0 Z M110.937349,150.576923 L110.937349,228.461538 L160.848193,228.461538 C175.196859,228.461538 186.143737,225.340004 193.689157,219.096841 C201.234576,212.853678 205.007229,203.612699 205.007229,191.373626 C205.007229,178.145538 201.791197,168.039183 195.359036,161.054258 C188.926875,154.069333 178.784005,150.576923 164.93012,150.576923 L110.937349,150.576923 Z M110.937349,113.118132 L149.901205,113.118132 C164.373566,113.118132 175.505985,110.151129 183.298795,104.217033 C191.091605,98.2829374 194.987952,89.6291777 194.987952,78.2554945 C194.987952,65.7691683 191.060682,56.5590956 183.206024,50.625 C175.351366,44.6909044 163.631403,41.7239011 148.045783,41.7239011 L110.937349,41.7239011 L110.937349,113.118132 Z" id="B" stroke="#FFFFFF" stroke-width="2"></path>
                </g>
            </g>
        </g>
    </g>
</svg>