<?xml version="1.0" encoding="UTF-8"?>
<svg width="323px" height="392px" viewBox="0 0 323 392" version="1.1" xmlns="http://www.w3.org/2000/svg" xmlns:xlink="http://www.w3.org/1999/xlink">
    <!-- Generator: Sketch 47.1 (45422) - http://www.bohemiancoding.com/sketch -->
    <title>H-Leadership-323x392</title>
    <desc>Created with Sketch.</desc>
    <defs></defs>
    <g id="Page-1" stroke="none" stroke-width="1" fill="none" fill-rule="evenodd">
        <g id="ASSET-SHEET" transform="translate(-100.000000, -559.000000)">
            <g id="H-Leadership-323x392" transform="translate(100.000000, 559.000000)">
                <rect x="0" y="0" width="323" height="392"></rect>
                <g id="Group-8" transform="translate(63.000000, 2.000000)">
                    <path d="M179.5,0 C170.927047,0 164,6.92704688 164,15.5 C164,24.0729531 170.927047,31 179.5,31 C188.072953,31 195,24.0729531 195,15.5 C195,6.92704688 188.072953,0 179.5,0 Z M186.671396,13.6646217 L183.859379,16.231333 C183.616997,16.4688903 183.520422,16.8010904 183.567764,17.0869193 L184.29491,20.8395639 C184.440717,21.6468786 183.617016,22.2649076 182.889871,21.8380647 L179.496525,19.9858781 C179.204911,19.8429732 178.865945,19.8429732 178.57625,19.9858781 L175.133653,21.8844834 C174.406507,22.2649456 173.533545,21.6469261 173.728614,20.8859826 L174.455759,17.1333379 C174.504992,16.8011284 174.406527,16.4689378 174.164145,16.2777517 L171.304815,13.6646217 C170.723486,13.0948644 171.0132,12.1446353 171.83883,12.0017208 L175.71694,11.5266063 C176.055896,11.4783536 176.34752,11.289049 176.493337,11.0032201 L178.140758,7.53450386 C178.479714,6.82183205 179.545797,6.82183205 179.886683,7.53450386 L181.534103,11.0032201 C181.679911,11.28903 181.969634,11.5266063 182.310501,11.5266063 L186.18861,12.0017208 C186.961226,12.0963731 187.302064,13.0948644 186.671478,13.6646217 L186.671396,13.6646217 Z" id="Page-1" fill="#FC4C48"></path>
                    <path d="M108,65.169062 C134.282574,64.6386557 155.274661,51.5823017 170.976258,26" id="Line" stroke="#FC4C48" stroke-width="2" stroke-linecap="round" stroke-linejoin="round" stroke-dasharray="2,8"></path>
                    <polygon id="L-Copy" fill="#FC4C48" points="0 325 0 293.629808 27.8858447 288.25206 27.8858447 100.927198 0 95.5494505 0 64 108.484932 64 108.484932 95.5494505 80.4191781 100.927198 80.4191781 284.846154 154.361644 284.846154 156.880365 252.041896 197 252.041896 197 325"></polygon>
                </g>
            </g>
        </g>
    </g>
</svg>