<?xml version="1.0" encoding="UTF-8"?>
<svg width="323px" height="392px" viewBox="0 0 323 392" version="1.1" xmlns="http://www.w3.org/2000/svg" xmlns:xlink="http://www.w3.org/1999/xlink">
    <!-- Generator: Sketch 47.1 (45422) - http://www.bohemiancoding.com/sketch -->
    <title>H-Process-323x392</title>
    <desc>Created with Sketch.</desc>
    <defs></defs>
    <g id="Page-1" stroke="none" stroke-width="1" fill="none" fill-rule="evenodd">
        <g id="ASSET-SHEET" transform="translate(-813.000000, -559.000000)">
            <g id="H-Process-323x392" transform="translate(813.000000, 559.000000)">
                <rect id="Rectangle-2-Copy-3" x="0" y="0" width="323" height="392"></rect>
                <g id="Group-6" transform="translate(47.000000, 60.000000)" fill="#EE026D">
                    <path d="M89,132 C89,132.355 88.927,132.69 88.813,133.007 C88.397,134.165 87.299,135 86,135 C84.346,135 83,133.654 83,132 C83,130.791 83.723,129.752 84.757,129.278 C85.137,129.104 85.555,129 86,129 C86.263,129 86.514,129.045 86.757,129.108 C87.72,129.361 88.489,130.077 88.818,131.007 C88.928,131.319 89,131.65 89,132 L89,132 Z M86.757,50.923 C88.94,50.588 90.645,48.847 90.935,46.649 L130.2,46.649 C139.158,46.649 146.801,48.233 153.055,51.373 C156.807,53.256 160.059,55.701 162.794,58.699 C167.143,63.465 170.207,69.048 171.986,75.376 C172.384,76.789 172.717,78.237 172.984,79.723 C173.104,80.387 173.211,81.059 173.305,81.738 C173.644,84.19 173.824,86.731 173.824,89.37 C173.824,90.161 173.809,90.943 173.776,91.717 C173.584,96.358 172.816,100.683 171.489,104.681 C171.269,105.347 171.031,106.004 170.779,106.652 C168.943,111.369 166.287,115.602 162.804,119.308 C158.415,123.978 152.696,127.263 145.715,129.139 C144.718,129.407 143.694,129.646 142.646,129.857 C141.12,130.163 139.541,130.408 137.908,130.592 C136.275,130.776 134.589,130.899 132.849,130.961 C131.979,130.991 131.097,131.007 130.2,131.007 L90.899,131.007 C90.487,128.969 88.827,127.395 86.757,127.077 L86.757,50.923 Z M89,46 C89,46.224 88.971,46.439 88.925,46.649 C88.682,47.745 87.837,48.608 86.757,48.892 C86.514,48.955 86.263,49 86,49 C85.917,49 85.838,48.982 85.757,48.976 C85.403,48.946 85.065,48.864 84.757,48.722 C83.723,48.248 83,47.209 83,46 C83,44.346 84.346,43 86,43 C87.166,43 88.168,43.675 88.664,44.649 C88.821,44.957 88.922,45.292 88.964,45.649 C88.979,45.766 89,45.88 89,46 L89,46 Z M5,2 C6.302,2 7.401,2.838 7.816,4 C7.928,4.314 8,4.647 8,5 C8,5.353 7.928,5.686 7.816,6 C7.514,6.847 6.847,7.514 6,7.816 C5.686,7.928 5.353,8 5,8 C4.647,8 4.314,7.928 4,7.815 C2.838,7.401 2,6.302 2,5 C2,3.346 3.346,2 5,2 L5,2 Z M7.673,38.333 L7.673,38.333 C7.181,39.317 6.173,40 5,40 C3.346,40 2,38.654 2,37 C2,35.698 2.838,34.599 4,34.184 C4.314,34.072 4.647,34 5,34 C5.353,34 5.686,34.072 6,34.184 C6.96,34.526 7.696,35.335 7.923,36.344 C7.97,36.556 8,36.774 8,37 C8,37.127 7.978,37.248 7.962,37.37 C7.92,37.713 7.822,38.036 7.673,38.333 L7.673,38.333 Z M30.082,42.67 C30.032,42.454 30,42.231 30,42 C30,41.877 30.022,41.761 30.036,41.643 C30.078,41.3 30.173,40.977 30.32,40.679 C30.811,39.688 31.822,39 33,39 C34.654,39 36,40.346 36,42 C36,43.301 35.163,44.4 34.003,44.815 C33.688,44.927 33.355,45 33.003,45 C33.002,45 33.001,45 33,45 C32.649,45 32.316,44.928 32.003,44.816 C31.046,44.477 30.312,43.673 30.082,42.67 L30.082,42.67 Z M88.96,230.608 C88.978,230.738 89,230.866 89,231 C89,231.575 88.829,232.108 88.547,232.566 C88.018,233.423 87.079,234 86,234 C84.346,234 83,232.654 83,231 C83,229.79 83.723,228.752 84.757,228.277 C85.137,228.104 85.555,228 86,228 C86.263,228 86.514,228.045 86.757,228.108 C87.919,228.414 88.8,229.395 88.96,230.608 L88.96,230.608 Z M86.757,175.892 C86.514,175.955 86.263,176 86,176 C85.555,176 85.137,175.896 84.757,175.723 C83.723,175.248 83,174.21 83,173 C83,171.346 84.346,170 86,170 C87.169,170 88.173,170.679 88.667,171.656 C88.873,172.063 89,172.515 89,173 C89,173.226 88.97,173.444 88.923,173.656 C88.677,174.748 87.834,175.608 86.757,175.892 L86.757,175.892 Z M114,271 C112.346,271 111,269.654 111,268 C111,266.72 111.81,265.633 112.94,265.203 C113.271,265.077 113.626,265 114,265 C114.331,265 114.643,265.066 114.94,265.166 C116.133,265.562 117,266.676 117,268 C117,269.654 115.654,271 114,271 L114,271 Z M111,236 C111,235.606 111.081,235.233 111.219,234.889 C111.662,233.784 112.739,233 114,233 C115.654,233 117,234.346 117,236 C117,237.324 116.133,238.438 114.94,238.834 C114.643,238.934 114.331,239 114,239 C113.626,239 113.271,238.923 112.94,238.797 C112.093,238.475 111.437,237.781 111.158,236.914 C111.064,236.624 111,236.32 111,236 L111,236 Z M32,234 C30.978,234 30.075,233.484 29.533,232.7 C29.198,232.217 29,231.632 29,231 C29,230.919 29.018,230.842 29.024,230.762 C29.147,229.221 30.427,228 32,228 L32.003,228 C32.774,228.001 33.471,228.302 34.003,228.783 C34.61,229.332 35,230.118 35,231 C35,232.654 33.654,234 32,234 L32,234 Z M5,271 C3.346,271 2,269.654 2,268 C2,266.698 2.838,265.599 4,265.185 C4.314,265.072 4.647,265 5,265 C5.353,265 5.686,265.072 6,265.185 C7.162,265.599 8,266.698 8,268 C8,269.654 6.654,271 5,271 L5,271 Z M6,238.815 C5.686,238.928 5.353,239 5,239 C4.647,239 4.314,238.928 4,238.815 C2.838,238.401 2,237.302 2,236 C2,234.346 3.346,233 5,233 C6.256,233 7.331,233.777 7.777,234.875 C7.918,235.223 8,235.602 8,236 C8,236.314 7.938,236.613 7.848,236.898 C7.564,237.793 6.88,238.502 6,238.815 L6,238.815 Z M228.161,79.76 C228.022,78.254 227.85,76.767 227.642,75.297 C227.067,71.237 226.21,67.325 225.109,63.544 C225.015,63.219 224.937,62.885 224.838,62.562 C224.836,62.556 224.834,62.55 224.832,62.543 C224.139,60.275 223.342,58.063 222.458,55.898 C218.047,45.096 211.268,35.588 202.138,27.468 L202.137,27.468 C184.626,11.896 160.423,4 130.2,4 L9.899,4 C9.434,1.721 7.415,0 5,0 C2.243,0 0,2.243 0,5 C0,7.415 1.721,9.434 4,9.899 L4,32.101 C1.721,32.566 0,34.585 0,37 C0,39.757 2.243,42 5,42 C7.15,42 8.971,40.629 9.676,38.721 L28.027,42.272 C28.154,44.563 29.811,46.454 32.003,46.899 L32.003,226 L32,226 C29.243,226 27,228.243 27,231 C27,231.052 27.014,231.1 27.015,231.151 L9.743,234.494 C9.1,232.476 7.229,231 5,231 C2.243,231 0,233.243 0,236 C0,238.414 1.721,240.435 4,240.898 L4,263.102 C1.721,263.565 0,265.586 0,268 C0,270.757 2.243,273 5,273 C7.757,273 10,270.757 10,268 C10,265.586 8.279,263.565 6,263.102 L6,240.898 C8.121,240.467 9.732,238.681 9.95,236.491 L27.478,233.099 C28.273,234.807 29.995,236 32,236 C34.757,236 37,233.757 37,231 C37,228.956 35.764,227.2 34.003,226.426 L34.003,84 L84.757,84 L84.757,127.175 C82.603,127.732 81,129.675 81,132 C81,134.757 83.243,137 86,137 C88.412,137 90.431,135.283 90.898,133.007 L98,133.007 L98,171.656 L90.793,171.656 C90.202,169.555 88.288,168 86,168 C83.243,168 81,170.243 81,173 C81,175.325 82.603,177.268 84.757,177.824 L84.757,226.176 C82.603,226.732 81,228.675 81,231 C81,233.757 83.243,236 86,236 C88.061,236 89.833,234.745 90.598,232.96 L109.051,236.509 C109.274,238.67 110.855,240.429 112.94,240.882 L112.94,263.118 C110.692,263.606 109,265.607 109,268 C109,270.757 111.243,273 114,273 C116.757,273 119,270.757 119,268 C119,265.565 117.248,263.537 114.94,263.095 L114.94,240.905 C117.248,240.463 119,238.435 119,236 C119,233.243 116.757,231 114,231 C111.765,231 109.891,232.483 109.252,234.511 L91,231.001 L91,231 C91,228.502 89.153,226.444 86.757,226.076 L86.757,177.924 C88.938,177.588 90.642,175.851 90.934,173.656 L130.2,173.656 C160.42,173.656 184.621,165.853 202.133,150.463 C219.681,135.04 228.578,114.363 228.578,89.009 C228.578,85.854 228.439,82.771 228.161,79.76 L228.161,79.76 Z" id="Page-1"></path>
                </g>
            </g>
        </g>
    </g>
</svg>