<?xml version="1.0" encoding="UTF-8"?>
<svg width="556px" height="400px" viewBox="0 0 556 400" version="1.1" xmlns="http://www.w3.org/2000/svg" xmlns:xlink="http://www.w3.org/1999/xlink">
    <!-- Generator: Sketch 47.1 (45422) - http://www.bohemiancoding.com/sketch -->
    <title>L-Esecutive-556x400</title>
    <desc>Created with Sketch.</desc>
    <defs>
        <rect id="path-1" x="0" y="0" width="556" height="400"></rect>
    </defs>
    <g id="Page-1" stroke="none" stroke-width="1" fill="none" fill-rule="evenodd">
        <g id="ASSET-SHEET" transform="translate(-733.000000, -1730.000000)">
            <g id="L-Esecutive-556x400" transform="translate(733.000000, 1730.000000)">
                <g id="Rectangle-2-Copy-21">
                    <mask id="mask-2" fill="white">
                        <use xlink:href="#path-1"></use>
                    </mask>
                    <g id="L-Esecutive-556x400"></g>
                </g>
                <g id="Group-11" transform="translate(98.000000, 34.000000)">
                    <path d="M149.122691,206.899679 C158.879583,209.713456 169.183394,211.2254 179.834572,211.2254 C190.48575,211.2254 200.789561,209.713456 210.547509,206.899679 C205.947273,185.280575 195.034251,165.972676 179.834572,151 C164.635949,165.972676 153.722927,185.280575 149.122691,206.899679" id="Fill-1" fill="#FC4C48"></path>
                    <path d="M154.780029,95.25 L154.780029,57 L166.114269,57 L166.114269,95.25 L154.780029,95.25 Z M174.364269,95.25 L174.364269,64.08424 L185.698509,64.08424 L185.698509,95.25 L174.364269,95.25 Z M193.945789,95.25 L193.945789,69.75 L205.280029,69.75 L205.280029,95.25 L193.945789,95.25 Z" id="Combined-Shape" stroke="#FFFFFF" stroke-width="2"></path>
                    <path d="M61.0277778,231 C58.1776311,231 56,233.177631 56,236.027778 L56,259.491813 C56,262.172222 58.1776311,264.519591 61.0277778,264.519591 L87.84152,264.519591 L99.5719289,276.25 L99.5719289,264.519591 L101.246782,264.519591 C104.096929,264.519591 106.27456,262.172222 106.27456,259.491813 L106.277705,236.027778 C106.277705,233.177631 104.100074,231 101.249928,231 L61.0277778,231 Z" id="Page-1" stroke="#FFFFFF" stroke-width="2"></path>
                    <path d="M188.314931,181.740693 C187.238415,180.628986 185.779129,180.004362 184.257447,180.004362 C182.735766,180.004362 181.27648,180.628986 180.199964,181.740693 L179.99998,181.947522 L179.799995,181.740693 C178.350908,180.240354 176.238473,179.653786 174.257428,180.201677 C172.276382,180.748533 170.728703,182.347529 170.196745,184.395345 C169.664586,186.443575 170.229542,188.629966 171.678629,190.130305 L171.878613,190.337134 L177.04781,195.68553 L178.247716,196.926505 L178.268115,196.949049 L178.779675,197.480807 C179.453022,198.173064 180.540537,198.173064 181.213885,197.480807 L182.94435,195.691114 L188.109547,190.344993 L188.309531,190.138164 C189.389847,189.027285 189.998399,187.516397 189.999999,185.94098 C190.000799,184.364734 189.394446,182.85302 188.314931,181.740486 L188.314931,181.740693 Z" id="Fill-1" fill="#FFFFFF"></path>
                    <path d="M252.0625,248.207031 L265.65625,254.066406 L265.65625,256.527344 L249.503906,249.125 L249.503906,247.230469 L265.65625,239.847656 L265.65625,242.308594 L252.0625,248.207031 Z M271.164062,263.441406 L269.035156,263.441406 L280.910156,232.5625 L283.019531,232.5625 L271.164062,263.441406 Z M300.636719,248.128906 L286.75,242.210938 L286.75,239.808594 L303.253906,247.191406 L303.253906,249.085938 L286.75,256.488281 L286.75,254.066406 L300.636719,248.128906 Z" id="&lt;/&gt;" stroke="#FFFFFF" stroke-width="0.5" fill="#FFFFFF"></path>
                    <circle id="Oval-3" stroke="#FC4C48" stroke-width="2" cx="106" cy="227" r="106"></circle>
                    <circle id="Oval-3-Copy" stroke="#FC4C48" stroke-width="2" cx="253" cy="227" r="106"></circle>
                    <circle id="Oval-3-Copy-2" stroke="#FC4C48" stroke-width="2" cx="180" cy="106" r="106"></circle>
                </g>
            </g>
        </g>
    </g>
</svg>