<?xml version="1.0" encoding="UTF-8"?>
<svg width="160px" height="160px" viewBox="0 0 160 160" version="1.1" xmlns="http://www.w3.org/2000/svg" xmlns:xlink="http://www.w3.org/1999/xlink">
    <!-- Generator: Sketch 48.1 (47250) - http://www.bohemiancoding.com/sketch -->
    <title>m-D-A-Hats01-200x200</title>
    <desc>Created with Sketch.</desc>
    <defs></defs>
    <g id="ASSET-SHEET" stroke="none" stroke-width="1" fill="none" fill-rule="evenodd" transform="translate(-799.000000, -2497.000000)">
        <g id="m-D-A-Hats01-200x200" transform="translate(800.000000, 2498.000000)">
            <circle id="Oval" stroke="#64B4B6" stroke-width="2" cx="79" cy="79" r="79"></circle>
            <path d="M75.6590168,44.2423474 C74.8446763,44.3318048 74.2338419,45.0289615 74.2523999,45.8463898 L74.2523999,49.0051972 C74.2462323,49.4278141 74.4097243,49.8350159 74.7058625,50.1373138 C75.0050884,50.4365397 75.4091868,50.6061993 75.8318194,50.6061993 C76.254452,50.6061993 76.6585583,50.4365397 76.9577763,50.1373138 C77.2539145,49.835008 77.4174065,49.4278141 77.4112389,49.0051972 L77.4112389,45.8463898 C77.4174065,45.4176054 77.2508347,45.0073316 76.948521,44.7050337 C76.6462152,44.4027279 76.2359414,44.2361482 75.8071649,44.2423158 C75.7578085,44.2392281 75.7084522,44.2392281 75.6590958,44.2423158 L75.6590168,44.2423474 Z M66.1825946,46.611453 C65.6211639,46.6638971 65.1276318,47.0155592 64.8931694,47.5307449 C64.6587227,48.0428192 64.7173344,48.6443824 65.047406,49.1039889 L66.6268097,51.4730945 C66.8612564,51.8185891 67.2252537,52.0592033 67.6385758,52.1394054 C68.0488496,52.2165277 68.477634,52.1270703 68.8231286,51.8926236 C69.1717108,51.6581769 69.4092374,51.2941796 69.4894395,50.8808576 C69.5665539,50.4705838 69.4770965,50.0417994 69.2426577,49.6963048 L67.663254,47.3271992 C67.3702035,46.8768244 66.8673924,46.6084442 66.3306321,46.6115319 C66.2812757,46.6084442 66.2319193,46.6084442 66.182563,46.6115319 L66.1825946,46.611453 Z M85.1354391,46.611453 C84.6696414,46.6700646 84.2531842,46.9322693 84.0002427,47.3271203 L82.420839,49.6962258 C82.1863923,50.0417204 82.0969349,50.4705048 82.1740571,50.8807786 C82.2542593,51.2941402 82.4917858,51.6581453 82.8403681,51.8925446 C83.1858626,52.1269913 83.6146471,52.2164487 84.0249209,52.1393265 C84.4382824,52.0591243 84.8022876,51.8185101 85.0366869,51.4730155 L86.6160906,49.10391 C86.9615852,48.6165139 87.0016862,47.9748732 86.7209709,47.4442725 C86.4371757,46.9167754 85.8819127,46.5959748 85.2834766,46.611374 C85.2341202,46.6082863 85.1847639,46.6082863 85.1354075,46.611374 L85.1354391,46.611453 Z M59.8649797,52.9290678 C59.1863257,52.9815119 58.6187512,53.4658203 58.455204,54.1259399 C58.2947997,54.7891631 58.5724273,55.4801207 59.1492808,55.8410934 L61.5183864,57.4204971 C61.8638809,57.6549438 62.2926654,57.7444012 62.7029392,57.6672789 C63.1163007,57.5870768 63.4803059,57.3495503 63.7147052,57.000968 C63.9491519,56.6554734 64.0386093,56.226689 63.961487,55.8164152 C63.8812849,55.4030537 63.6406706,55.0390485 63.2951761,54.8046492 L60.9260705,53.2252455 C60.6607781,53.0339876 60.3399617,52.932195 60.0130172,52.9291073 C59.9636609,52.9260196 59.9143045,52.9260196 59.8649481,52.9291073 L59.8649797,52.9290678 Z M91.4285732,52.953746 C91.1787036,52.9876795 90.9442648,53.0802246 90.7375841,53.225206 L88.3684785,54.8046097 C87.9828829,55.0205458 87.7052553,55.384551 87.6003671,55.8163757 C87.4985666,56.2451601 87.5787766,56.6955508 87.8255585,57.0626042 C88.0692526,57.4296892 88.4579359,57.6764711 88.8929195,57.7443381 C89.3309592,57.812205 89.7751744,57.6949817 90.120669,57.4204339 L92.4897746,55.8410302 C93.1036414,55.436924 93.3566303,54.665717 93.1036414,53.9778077 C92.850692,53.2868185 92.1566309,52.8641701 91.4286048,52.9536433 L91.4285732,52.953746 Z M75.8319615,53.7434478 C70.1806971,53.7434478 65.5658374,58.3583076 65.5658374,64.009572 C65.5658374,66.7858478 66.7225927,69.2659855 68.5272194,71.1168887 L56.0894151,71.1168887 C56.0400588,71.1138009 55.9907024,71.1138009 55.941346,71.1168887 C55.1270055,71.194011 54.5069316,71.8788246 54.5100114,72.6962924 L54.5100114,84.1959308 C54.5100114,88.3850623 55.6730053,92.3148556 57.6688188,95.6710885 L57.6441407,95.6710885 C59.9268528,99.934215 62.4069905,103.102341 62.4069905,105.862981 L62.4069905,112.180596 C62.4069905,113.053612 63.1134025,113.76 63.9863942,113.76 L85.3083443,113.76 C86.1813597,113.76 86.887748,113.053588 86.887748,112.180596 L86.887748,106.652683 L90.0465555,106.652683 C91.5704431,106.652683 92.8629482,105.912337 93.8469956,104.92521 C94.8310431,103.938082 95.5775483,102.642498 95.5744685,101.12477 L95.5744685,94.8071547 L99.5229777,94.8071547 C101.66686,94.8071547 103.471487,93.0426448 103.471487,90.8832841 C103.471487,90.1491062 103.274062,89.4179923 102.879211,88.785678 C102.842189,88.7239865 102.802088,88.6684547 102.75582,88.6129307 L95.574429,80.024923 L95.574429,72.6955422 C95.574429,71.8225268 94.868017,71.1161385 93.9950253,71.1161385 L83.1366247,71.1161385 C84.9412514,69.2652353 86.0980067,66.7850976 86.0980067,64.0088218 C86.0980067,58.3575573 81.483147,53.7426976 75.8318826,53.7426976 L75.8319615,53.7434478 Z M75.8319615,56.9022553 C79.777391,56.9022553 82.9392782,60.0641425 82.9392782,64.009572 C82.9392782,66.2275286 81.9275122,68.2110228 80.3481085,69.5128463 C79.9902788,69.8120722 79.7805103,70.2562795 79.7805103,70.7220378 L79.7805103,71.1168887 L77.4114047,71.1168887 L77.4114047,68.4762836 C79.24375,67.819228 80.5702122,66.0547418 80.5702122,64.009572 C80.5702122,61.4121636 78.4294094,59.2713608 75.832001,59.2713608 C73.2345926,59.2713608 71.0937899,61.4121636 71.0937899,64.009572 C71.0937899,66.0579006 72.4171723,67.8223315 74.2525973,68.4762836 L74.2525973,71.1168887 L71.8834917,71.1168887 L71.8834917,70.7220378 C71.8834917,70.25624 71.6737311,69.8120643 71.3158935,69.5128463 C69.7364898,68.2111017 68.7247238,66.2275286 68.7247238,64.009572 C68.7247238,60.0641425 71.8866111,56.9022553 75.8320405,56.9022553 L75.8319615,56.9022553 Z M57.5203549,62.4301683 C57.1008258,62.4486789 56.7060143,62.6337613 56.4252753,62.9453224 C56.1414723,63.2537957 55.9964909,63.6640774 56.0150015,64.0835986 C56.0335121,64.5031198 56.2185946,64.8979392 56.5301556,65.1786782 C56.838629,65.4624812 57.2489107,65.6074626 57.6684319,65.588952 L60.8272393,65.588952 C61.2498562,65.5951196 61.657058,65.4316276 61.9593559,65.1354894 C62.2585818,64.8362635 62.4282414,64.4321651 62.4282414,64.0095325 C62.4282414,63.5868999 62.2585818,63.1827936 61.9593559,62.8835756 C61.6570501,62.5874374 61.2498562,62.4239454 60.8272393,62.430113 L57.6684319,62.430113 C57.6190755,62.4270252 57.5697192,62.4270252 57.5203628,62.430113 L57.5203549,62.4301683 Z M75.8319615,62.4301683 C76.723456,62.4301683 77.4113653,63.1180697 77.4113653,64.009572 C77.4113653,64.9010743 76.7234639,65.5889757 75.8319615,65.5889757 C74.9404592,65.5889757 74.2525578,64.9010743 74.2525578,64.009572 C74.2525578,63.1180697 74.9404592,62.4301683 75.8319615,62.4301683 Z M90.6878329,62.4301683 C90.2683037,62.4486789 89.8734923,62.6337613 89.5927533,62.9453224 C89.3089502,63.2537957 89.1639689,63.6640774 89.1824795,64.0835986 C89.2009901,64.5031198 89.3860725,64.8979392 89.6976336,65.1786782 C90.0061069,65.4624812 90.4163886,65.6074626 90.8359099,65.588952 L93.9947173,65.588952 C94.4173341,65.5951196 94.824536,65.4316276 95.1268339,65.1354894 C95.4260598,64.8362635 95.5957193,64.4321651 95.5957193,64.0095325 C95.5957193,63.5868999 95.4260598,63.1827936 95.1268339,62.8835756 C94.8245281,62.5874374 94.4173341,62.4239454 93.9947173,62.430113 L90.8359099,62.430113 C90.7865535,62.4270252 90.7371971,62.4270252 90.6878408,62.430113 L90.6878329,62.4301683 Z M57.6687794,74.2756961 L92.4157005,74.2756961 L92.4157005,80.593311 C92.4157005,80.9634837 92.5483467,81.3213213 92.7858733,81.605077 L100.213967,90.4647421 L100.213967,90.4894203 C100.266411,90.5819654 100.31268,90.7115239 100.31268,90.8842712 C100.31268,91.3377338 100.001119,91.6492949 99.5229777,91.6492949 L93.9950647,91.6492949 C93.1220493,91.6492949 92.415661,92.3557069 92.415661,93.2286986 L92.415661,101.125717 C92.415661,101.477379 92.1195228,102.159121 91.6013205,102.680482 C91.0831181,103.201843 90.410608,103.494823 90.0465555,103.494823 L85.3083443,103.494823 C84.4353289,103.494823 83.7289406,104.201235 83.7289406,105.074226 L83.7289406,110.602139 L65.5657979,110.602139 L65.5657979,105.863928 C65.5657979,101.474292 62.5241823,98.074862 60.4327359,94.1668644 L60.3833795,94.117508 C58.6528268,91.2270413 57.6687794,87.8276907 57.6687794,84.1972733 L57.6687794,74.2756961 Z" id="Page-1" stroke="#181743" fill="#FFFFFF"></path>
        </g>
    </g>
</svg>