<?xml version="1.0" encoding="UTF-8"?>
<svg width="162px" height="162px" viewBox="0 0 162 162" version="1.1" xmlns="http://www.w3.org/2000/svg" xmlns:xlink="http://www.w3.org/1999/xlink">
    <!-- Generator: Sketch 47.1 (45422) - http://www.bohemiancoding.com/sketch -->
    <title>m-D-A-Hats02-200x200</title>
    <desc>Created with Sketch.</desc>
    <defs></defs>
    <g id="Page-1" stroke="none" stroke-width="1" fill="none" fill-rule="evenodd">
        <g id="ASSET-SHEET" transform="translate(-1308.000000, -2496.000000)">
            <g id="m-D-A-Hats02-200x200" transform="translate(1310.000000, 2498.000000)">
                <circle id="Oval-Copy-4" stroke="#64B4B6" stroke-width="4" cx="79" cy="79" r="79"></circle>
                <path d="M83.690122,57.1435609 L83.6904195,57.1435609 C87.6760412,57.1435609 90.9483087,60.6541089 90.9483087,64.9372092 L67.15,64.9372092 C67.15,60.6541089 70.4222674,57.1435609 74.4078892,57.1435609 L83.690122,57.1435609 Z M73.5758408,44.1827186 L73.5758408,44.183016 C73.5758408,41.1793125 76.0439932,38.71 79.0488569,38.71 C82.0537206,38.71 84.5218729,41.1790745 84.5218729,44.183016 L84.5218729,47.5156717 C84.5218729,50.5193752 82.0537206,52.9886877 79.0488569,52.9886877 C76.0439932,52.9886877 73.5758408,50.5193157 73.5758408,47.5445271 L73.5758408,44.1827186 Z" id="Combined-Shape" stroke="#FFFFFF" stroke-width="3"></path>
                <path d="M57.620122,104.543561 L57.6204195,104.543561 C61.6060412,104.543561 64.8783087,108.054109 64.8783087,112.337209 L41.08,112.337209 C41.08,108.054109 44.3522674,104.543561 48.3378892,104.543561 L57.620122,104.543561 Z M47.5058408,91.5827186 L47.5058408,91.583016 C47.5058408,88.5793125 49.9739932,86.11 52.9788569,86.11 C55.9837206,86.11 58.4518729,88.5790745 58.4518729,91.583016 L58.4518729,94.9156717 C58.4518729,97.9193752 55.9837206,100.388688 52.9788569,100.388688 C49.9739932,100.388688 47.5058408,97.9193157 47.5058408,94.9445271 L47.5058408,91.5827186 Z" id="Combined-Shape-Copy-2" stroke="#FFFFFF" stroke-width="3"></path>
                <path d="M109.760122,104.543561 L109.760419,104.543561 C113.746041,104.543561 117.018309,108.054109 117.018309,112.337209 L93.22,112.337209 C93.22,108.054109 96.4922674,104.543561 100.477889,104.543561 L109.760122,104.543561 Z M99.6458408,91.5827186 L99.6458408,91.583016 C99.6458408,88.5793125 102.113993,86.11 105.118857,86.11 C108.123721,86.11 110.591873,88.5790745 110.591873,91.583016 L110.591873,94.9156717 C110.591873,97.9193752 108.123721,100.388688 105.118857,100.388688 C102.113993,100.388688 99.6458408,97.9193157 99.6458408,94.9445271 L99.6458408,91.5827186 Z" id="Combined-Shape-Copy-3" stroke="#FFFFFF" stroke-width="3"></path>
                <polyline id="Path-3" stroke="#FFFFFF" stroke-width="3" stroke-linecap="round" stroke-linejoin="round" points="72.1085057 85.8990971 77.1572828 90.9478743 87.351708 80.7534491"></polyline>
            </g>
        </g>
    </g>
</svg>