<?xml version="1.0" encoding="UTF-8"?>
<svg width="160px" height="160px" viewBox="0 0 160 160" version="1.1" xmlns="http://www.w3.org/2000/svg" xmlns:xlink="http://www.w3.org/1999/xlink">
    <!-- Generator: Sketch 48.1 (47250) - http://www.bohemiancoding.com/sketch -->
    <title>m-D-A-Hats03-200x200</title>
    <desc>Created with Sketch.</desc>
    <defs></defs>
    <g id="ASSET-SHEET" stroke="none" stroke-width="1" fill="none" fill-rule="evenodd" transform="translate(-1819.000000, -2497.000000)">
        <g id="m-D-A-Hats03-200x200" transform="translate(1820.000000, 2498.000000)">
            <circle id="Oval-Copy-3" stroke="#64B4B6" stroke-width="2" cx="79" cy="79" r="79"></circle>
            <path d="M46.8641515,44.242308 C46.063475,44.3302644 45.4628899,45.0157233 45.4811365,45.8194357 L45.4811365,48.9252406 C45.4750725,49.3407663 45.6358212,49.7411356 45.9269904,50.0383611 C46.2211955,50.3325662 46.6185134,50.499379 47.0340545,50.499379 C47.4495957,50.499379 47.8469213,50.3325662 48.1411187,50.0383611 C48.4322879,49.7411278 48.5930366,49.3407663 48.5869725,48.9252406 L48.5869725,45.8194357 C48.5930366,45.397846 48.4292597,44.9944563 48.1320187,44.6972308 C47.8347854,44.3999975 47.4313957,44.2362129 47.0098137,44.2422769 C46.9612855,44.239241 46.9127573,44.239241 46.8642291,44.2422769 L46.8641515,44.242308 Z M37.5467368,46.5716617 C36.9947265,46.6232258 36.5094756,46.9689873 36.2789472,47.4755285 C36.0484344,47.9790106 36.1060626,48.5704801 36.4305959,49.0223747 L37.9834984,51.3517283 C38.2140112,51.6914258 38.5719009,51.9280027 38.9782877,52.0068591 C39.3816774,52.0826873 39.8032671,51.9947309 40.1429645,51.7642181 C40.4856978,51.5337052 40.7192388,51.1758156 40.7980952,50.7694288 C40.8739157,50.366039 40.7859593,49.9444493 40.5554542,49.6047519 L39.0025518,47.2753982 C38.7144185,46.8325803 38.2200442,46.5687034 37.6922903,46.5717393 C37.6437621,46.5687034 37.5952339,46.5687034 37.5467057,46.5717393 L37.5467368,46.5716617 Z M56.1815662,46.5716617 C55.7235842,46.6292899 55.3141149,46.887095 55.0654175,47.2753206 L53.5125151,49.6046743 C53.2820022,49.9443717 53.1940458,50.3659614 53.2698741,50.7693511 C53.3487305,51.1757767 53.5822715,51.5336742 53.9250048,51.7641404 C54.2647022,51.9946533 54.6862919,52.0826096 55.0896816,52.0067814 C55.4961073,51.927925 55.8540047,51.6913481 56.0844709,51.3516507 L57.6373734,49.022297 C57.9770708,48.5430791 58.016499,47.9122047 57.7404939,47.3905071 C57.4614606,46.871861 56.9155144,46.5564432 56.3271197,46.571584 C56.2785915,46.5685481 56.2300633,46.5685481 56.1815351,46.571584 L56.1815662,46.5716617 Z M31.335127,52.7832715 C30.6678603,52.8348356 30.1098093,53.3110176 29.9490063,53.9600609 C29.7912935,54.6121557 30.0642627,55.2915195 30.631437,55.6464354 L32.9607907,57.1993378 C33.3004881,57.4298506 33.7220778,57.517807 34.1254675,57.4419788 C34.5318931,57.3631224 34.8897906,57.1295814 35.1202568,56.7868481 C35.3507697,56.4471507 35.4387261,56.025561 35.3628978,55.6221713 C35.2840414,55.2157456 35.0474645,54.8578482 34.7077671,54.6273819 L32.3784134,53.0744795 C32.1175724,52.8864308 31.8021391,52.7863462 31.4806805,52.7833103 C31.4321523,52.7802744 31.3836241,52.7802744 31.3350959,52.7833103 L31.335127,52.7832715 Z M62.369106,52.8075356 C62.123429,52.8408997 61.892924,52.931892 61.6897111,53.0744407 L59.3603575,54.6273431 C58.9812319,54.8396559 58.7082627,55.1975534 58.6051344,55.6221324 C58.5050421,56.0437222 58.5839062,56.4865556 58.8265473,56.8474501 C59.0661523,57.2083757 59.4483139,57.4510167 59.8759987,57.5177449 C60.3066885,57.5844731 60.74345,57.4692167 61.0831474,57.1992757 L63.4125011,55.6463732 C64.0160677,55.2490476 64.2648116,54.4907809 64.0160677,53.8144142 C63.7673626,53.1350194 63.0849474,52.7194627 62.369137,52.8074346 L62.369106,52.8075356 Z M47.0341943,53.5839868 C41.477754,53.5839868 36.9403284,58.1214125 36.9403284,63.6778527 C36.9403284,66.4075446 38.0776741,68.8460673 39.8520205,70.6659137 L27.6229137,70.6659137 C27.5743855,70.6628778 27.5258573,70.6628778 27.4773291,70.6659137 C26.6766526,70.741742 26.0669831,71.4150649 26.0700112,72.2188162 L26.0700112,83.5254989 C26.0700112,87.6443397 27.2134909,91.5081939 29.1758161,94.8081116 L29.151552,94.8081116 C31.3959619,98.9997059 33.8344847,102.114673 33.8344847,104.828991 L33.8344847,111.040602 C33.8344847,111.898969 34.5290436,112.593504 35.3873871,112.593504 L56.3515702,112.593504 C57.209937,112.593504 57.9044726,111.898945 57.9044726,111.040602 L57.9044726,105.605442 L61.0102775,105.605442 C62.5085954,105.605442 63.7794131,104.877519 64.746949,103.906955 C65.7144849,102.936391 66.4484642,101.662545 66.4454361,100.170284 L66.4454361,93.958674 L70.3276922,93.958674 C72.435602,93.958674 74.2099483,92.2237714 74.2099483,90.1006432 C74.2099483,89.3787842 74.0158355,88.6599379 73.6276099,88.0382334 C73.5912099,87.9775771 73.5517817,87.922977 73.5062894,87.8683847 L66.4453973,79.4244777 L66.4453973,72.2180785 C66.4453973,71.3597117 65.7508383,70.6651761 64.8924948,70.6651761 L54.2162905,70.6651761 C55.9906368,68.8453297 57.1279826,66.406807 57.1279826,63.6771151 C57.1279826,58.1206748 52.5905569,53.5832492 47.0341166,53.5832492 L47.0341943,53.5839868 Z M47.0341943,56.6897917 C50.9134222,56.6897917 54.0222553,59.7986247 54.0222553,63.6778527 C54.0222553,65.8585936 53.027466,67.8088062 51.4745635,69.088786 C51.122738,69.3829911 50.9164892,69.8197449 50.9164892,70.2776881 L50.9164892,70.6659137 L48.5871356,70.6659137 L48.5871356,68.0696161 C50.3887353,67.4235854 51.6929405,65.6887061 51.6929405,63.6778527 C51.6929405,61.124027 49.5880588,59.0191454 47.0342331,59.0191454 C44.4804074,59.0191454 42.3755258,61.124027 42.3755258,63.6778527 C42.3755258,65.6918119 43.6767027,67.4266369 45.4813307,68.0696161 L45.4813307,70.6659137 L43.151977,70.6659137 L43.151977,70.2776881 C43.151977,69.8197061 42.945736,69.3829834 42.5939027,69.088786 C41.0410002,67.8088838 40.0462109,65.8585936 40.0462109,63.6778527 C40.0462109,59.7986247 43.155044,56.6897917 47.0342719,56.6897917 L47.0341943,56.6897917 Z M29.0298433,62.1249503 C28.6173536,62.1431503 28.2291668,62.3251272 27.9531384,62.6314605 C27.6740973,62.9347578 27.5315487,63.3381553 27.5497487,63.7506372 C27.5679487,64.1631192 27.7499256,64.5513138 28.0562589,64.8273422 C28.3595562,65.1063832 28.7629537,65.2489319 29.1754357,65.2307319 L32.2812406,65.2307319 C32.6967662,65.2367959 33.0971355,65.0760473 33.394361,64.784878 C33.6885662,64.4906729 33.855379,64.0933551 33.855379,63.6778139 C33.855379,63.2622727 33.6885662,62.8649471 33.394361,62.5707497 C33.0971277,62.2795805 32.6967662,62.1188318 32.2812406,62.1248959 L29.1754357,62.1248959 C29.1269075,62.12186 29.0783793,62.12186 29.0298511,62.1248959 L29.0298433,62.1249503 Z M47.0341943,62.1249503 C47.9107301,62.1249503 48.5870967,62.8013092 48.5870967,63.6778527 C48.5870967,64.5543963 47.9107378,65.2307552 47.0341943,65.2307552 C46.1576507,65.2307552 45.4812918,64.5543963 45.4812918,63.6778527 C45.4812918,62.8013092 46.1576507,62.1249503 47.0341943,62.1249503 Z M61.6407947,62.1249503 C61.228305,62.1431503 60.8401182,62.3251272 60.5640898,62.6314605 C60.2850488,62.9347578 60.1425001,63.3381553 60.1607001,63.7506372 C60.1789001,64.1631192 60.360877,64.5513138 60.6672103,64.8273422 C60.9705077,65.1063832 61.3739051,65.2489319 61.7863871,65.2307319 L64.892192,65.2307319 C65.3077176,65.2367959 65.7080869,65.0760473 66.0053125,64.784878 C66.2995176,64.4906729 66.4663304,64.0933551 66.4663304,63.6778139 C66.4663304,63.2622727 66.2995176,62.8649471 66.0053125,62.5707497 C65.7080792,62.2795805 65.3077176,62.1188318 64.892192,62.1248959 L61.7863871,62.1248959 C61.7378589,62.12186 61.6893307,62.12186 61.6408025,62.1248959 L61.6407947,62.1249503 Z M29.1757773,73.7717186 L63.33967,73.7717186 L63.33967,79.9833284 C63.33967,80.3472899 63.4700905,80.6991233 63.7036315,80.9781177 L71.007087,89.689124 L71.007087,89.7133881 C71.0586511,89.8043804 71.1041434,89.931765 71.1041434,90.1016137 C71.1041434,90.5474675 70.7978101,90.8538009 70.3276922,90.8538009 L64.8925336,90.8538009 C64.0341668,90.8538009 63.3396312,91.5483598 63.3396312,92.4067033 L63.3396312,100.171216 C63.3396312,100.516977 63.048462,101.18728 62.5389547,101.699893 C62.0294474,102.212506 61.3682215,102.500569 61.0102775,102.500569 L56.3515702,102.500569 C55.4932033,102.500569 54.7986677,103.195128 54.7986677,104.053472 L54.7986677,109.48863 L36.9402895,109.48863 L36.9402895,104.829923 C36.9402895,100.513941 33.94971,97.1715515 31.8933566,93.3291274 L31.8448284,93.2805992 C30.1433132,90.4386324 29.1757773,87.0963204 29.1757773,83.5268189 L29.1757773,73.7717186 Z" id="Page-1-Copy-3" stroke="#181743" fill="#FFFFFF"></path>
            <path d="M104.938548,54.2027771 C99.3821082,54.2027771 94.8446825,58.7402027 94.8446825,64.296643 C94.8446825,67.0263349 95.9820283,69.4648576 97.7563746,71.284704 L85.5272679,71.284704 C85.4787397,71.2816681 85.4302115,71.2816681 85.3816832,71.284704 C84.5810067,71.3605322 83.9713372,72.0338552 83.9743654,72.8376064 L83.9743654,84.1442892 C83.9743654,88.26313 85.1178451,92.1269842 87.0801703,95.4269019 L87.0559062,95.4269019 C89.3003161,99.6184962 91.7388388,102.733463 91.7388388,105.447781 L91.7388388,111.659392 C91.7388388,112.517759 92.4333977,113.212294 93.2917413,113.212294 L114.255924,113.212294 C115.114291,113.212294 115.808827,112.517736 115.808827,111.659392 L115.808827,106.224233 L118.914632,106.224233 C120.41295,106.224233 121.683767,105.49631 122.651303,104.525746 C123.618839,103.555182 124.352818,102.281336 124.34979,100.789074 L124.34979,94.5774643 L128.232046,94.5774643 C130.339956,94.5774643 132.114302,92.8425617 132.114302,90.7194334 C132.114302,89.9975745 131.92019,89.2787282 131.531964,88.6570237 C131.495564,88.5963673 131.456136,88.5417673 131.410644,88.487175 L124.349751,80.0432679 L124.349751,72.8368688 C124.349751,71.978502 123.655193,71.2839664 122.796849,71.2839664 L112.120645,71.2839664 C113.894991,69.46412 115.032337,67.0255973 115.032337,64.2959053 C115.032337,58.7394651 110.494911,54.2020394 104.938471,54.2020394 L104.938548,54.2027771 Z M111.926609,64.296643 C111.926609,66.4773839 110.93182,68.4275964 109.378918,69.7075763 C109.027092,70.0017814 108.820843,70.4385352 108.820843,70.8964784 L108.820843,71.284704 L106.49149,71.284704 L103.385685,71.284704 L101.056331,71.284704 L101.056331,70.8964784 C101.056331,70.4384964 100.85009,70.0017736 100.498257,69.7075763 C98.9453544,68.4276741 97.9505651,66.4773839 97.9505651,64.296643 C97.9505651,60.417415 101.059398,57.308582 104.938626,57.308582 C108.817776,57.308582 111.926609,60.417415 111.926609,64.296643 Z M87.0801315,74.3905089 L121.244024,74.3905089 L121.244024,80.6021187 C121.244024,80.9660802 121.374445,81.3179135 121.607986,81.596908 L128.911441,90.3079143 L128.911441,90.3321784 C128.963005,90.4231707 129.008498,90.5505553 129.008498,90.720404 C129.008498,91.1662578 128.702164,91.4725911 128.232046,91.4725911 L122.796888,91.4725911 C121.938521,91.4725911 121.243985,92.16715 121.243985,93.0254936 L121.243985,100.790006 C121.243985,101.135767 120.952816,101.80607 120.443309,102.318683 C119.933802,102.831296 119.272576,103.119359 118.914632,103.119359 L114.255924,103.119359 C113.397558,103.119359 112.703022,103.813918 112.703022,104.672262 L112.703022,110.10742 L94.8446437,110.10742 L94.8446437,105.448713 C94.8446437,101.132731 91.8540642,97.7903418 89.7977108,93.9479176 L89.7491826,93.8993894 C88.0476674,91.0574226 87.0801315,87.7151107 87.0801315,84.1456091 L87.0801315,74.3905089 Z" id="Page-1-Copy-5" stroke="#181743" fill="#FFFFFF" transform="translate(108.044328, 83.707167) scale(-1, 1) translate(-108.044328, -83.707167) "></path>
            <g id="Group-6" transform="translate(71.890000, 56.090000)" stroke="#FFFFFF" stroke-linecap="round" stroke-linejoin="round" stroke-width="3">
                <path d="M0.565746086,7.14013766 L15.5088052,7.14013766" id="Line"></path>
                <path d="M9.28253059,0.913863017 L15.398875,7.0302074" id="Line-Copy"></path>
            </g>
        </g>
    </g>
</svg>