<?xml version="1.0" encoding="UTF-8"?>
<svg width="206px" height="163px" viewBox="0 0 206 163" version="1.1" xmlns="http://www.w3.org/2000/svg" xmlns:xlink="http://www.w3.org/1999/xlink">
    <!-- Generator: Sketch 47.1 (45422) - http://www.bohemiancoding.com/sketch -->
    <title>m-H-About-206x163</title>
    <desc>Created with Sketch.</desc>
    <defs></defs>
    <g id="Page-1" stroke="none" stroke-width="1" fill="none" fill-rule="evenodd">
        <g id="ASSET-SHEET" transform="translate(-1871.000000, -674.000000)">
            <g id="m-H-About-206x163" transform="translate(1871.000000, 674.000000)">
                <rect id="Rectangle-2-Copy-44" opacity="0.4" x="0" y="0" width="206" height="163"></rect>
                <g id="Group-12-Copy-2" transform="translate(41.000000, 9.000000)" fill="#64B4B6">
                    <path d="M0,137.715332 L9.39453125,136.360352 L49.4116211,22 L76.4208984,22 L116.166992,136.360352 L125.561523,137.715332 L125.561523,153.523438 L80.7568359,153.523438 L80.7568359,137.715332 L89.8803711,136.089355 L84.0991211,118.022949 L41.4624023,118.022949 L35.6811523,136.089355 L44.8046875,137.715332 L44.8046875,153.523438 L0,153.523438 L0,137.715332 Z M47.6953125,98.6015625 L77.8662109,98.6015625 L63.0517578,52.2612305 L62.5097656,52.2612305 L47.6953125,98.6015625 Z" id="A"></path>
                    <path d="M51.4379121,2.89242441 C51.2612812,1.95213826 50.3569635,1.3334128 49.4124537,1.50897692 C48.4732235,1.68560787 47.853442,2.5888696 48.0300622,3.53443568 C48.0797719,3.80097148 49.2294706,9.39514749 57.1061099,11.8869992 L57.1061099,22.1709036 C58.0583223,22.1709036 57.8443782,22.1709036 58.7539596,22.1709036 L65.1613463,22.1709036 C66.0709547,22.1709036 65.9938869,22.1709036 66.8091959,22.1709036 L66.8091959,15.8163432 C69.7591823,18.8551405 69.9579239,22.8762739 69.9674007,23.1302516 C69.998073,24.0673427 70.7669973,24.804555 71.6977525,24.804555 C72.70573,24.7759982 73.457726,23.9785028 73.4291603,23.022376 C73.3107005,18.9376129 70.5595912,10.8030153 60.9939997,9.2534263 C52.6170944,7.8911012 51.4771731,3.07221248 51.4379121,2.89242441 Z M61.9659925,8.27295859 C64.2505735,8.27295859 66.1024718,6.42097907 66.1024718,4.13647929 C66.1024718,1.85197952 64.2504923,5.68434189e-13 61.9659925,5.68434189e-13 C59.6814927,5.68434189e-13 57.8295132,1.85197952 57.8295132,4.13647929 C57.8295132,6.42097907 59.6814927,8.27295859 61.9659925,8.27295859" id="Page-1"></path>
                </g>
            </g>
        </g>
    </g>
</svg>