<?xml version="1.0" encoding="UTF-8"?>
<svg width="206px" height="163px" viewBox="0 0 206 163" version="1.1" xmlns="http://www.w3.org/2000/svg" xmlns:xlink="http://www.w3.org/1999/xlink">
    <!-- Generator: Sketch 47.1 (45422) - http://www.bohemiancoding.com/sketch -->
    <title>m-H-Boulder-206x163</title>
    <desc>Created with Sketch.</desc>
    <defs></defs>
    <g id="Page-1" stroke="none" stroke-width="1" fill="none" fill-rule="evenodd">
        <g id="ASSET-SHEET" transform="translate(-2584.000000, -674.000000)">
            <g id="m-H-Boulder-206x163" transform="translate(2584.000000, 674.000000)">
                <g id="Group-2" transform="translate(30.000000, 27.000000)">
                    <path d="M9.32987233,29.3222212 C9.33081069,29.3274205 9.33214097,29.3358303 9.33396242,29.3491337 C9.33318287,29.3429272 9.33199966,29.3371239 9.3308319,29.3313051 L9.33259518,29.3479974 L9.34459694,29.4346746 C9.35510088,29.4989364 9.3686043,29.57067 9.38660503,29.6438995 C9.41960699,29.7903623 9.46461456,29.9442893 9.51712275,30.0952283 C9.62065284,30.3985754 9.75717336,30.6929931 9.91619575,30.966476 C10.2372285,31.5164337 10.6542753,31.9931695 11.173366,32.3727608 C12.0825043,33.0482428 13.3801924,33.4831244 14.8474031,33.5757813 L17.4803017,27.9147561 L17.6153206,27.6263257 C17.8718702,27.0733839 18.4119303,26.740123 18.9835215,26.7147159 L28.0341945,26.3306446 L28.0345133,26.3306369 C28.7771247,26.2992654 29.4042005,26.8731343 29.4357046,27.6128896 C29.4656994,28.3122827 28.9466088,28.9100704 28.2625275,28.9997394 L20.447748,29.9965496 C20.447748,29.9965496 18.5214709,36.18343 18.2844351,36.876855 C17.7938415,38.3130192 16.1061057,39.0198918 15.123459,38.984025 C14.4018554,38.9586179 12.981154,38.9227511 11.7089672,38.6358166 C10.439776,38.3473901 9.14208784,37.849731 7.95992385,37.0756202 C6.77626204,36.3089696 5.73358733,35.2688514 4.95948325,34.0837356 C4.80047623,33.8431315 4.65495342,33.5935559 4.51843289,33.3424883 L3.11873935,36.4434845 L8.0665379,39.0976281 C8.72813266,39.453312 8.97717018,40.2752453 8.62011679,40.9343146 C8.37409027,41.3886351 7.90600233,41.6471745 7.42143838,41.6471745 C7.20390883,41.6471745 6.98336829,41.5933762 6.77783667,41.4842799 L0.71550684,38.2323562 C0.0869075266,37.8946152 -0.172631257,37.1309488 0.119912181,36.4823622 C0.119912181,36.4823622 3.04082967,30.0114932 3.39038244,29.2328679 C3.73991217,28.4572267 3.87943986,28.1882352 4.45552445,27.687592 C5.61499071,26.6802225 13.1371193,23.5867249 13.1371193,23.5867249 L15.2779264,16.9275504 C15.5029451,16.2251655 16.2560797,15.8395945 16.9611688,16.063763 C17.6662656,16.2879161 18.0533254,17.0381541 17.8282914,17.7405313 L15.5059407,24.9647754 C15.4009397,25.292072 15.1803953,25.5505961 14.9043548,25.7090068 L14.8398448,25.7463657 L9.25758512,28.9459908 C9.28908927,29.0670389 9.3295957,29.1895867 9.3295957,29.3151186 L9.3295957,29.3196024 L9.32987233,29.3222212 Z M14.6747928,43.2628373 C14.7453017,43.8904957 14.3042398,44.551057 13.6966395,44.7303719 L12.35394,45.12791 C11.7463627,45.307244 11.1402449,44.9500719 11.0082448,44.3328721 L10.3391417,41.2214326 C10.2056207,40.6042175 10.600181,40.2290986 11.2122555,40.3875246 L13.3320548,40.9344982 C13.9456617,41.092909 14.5052319,41.7355426 14.5742468,42.3632022 L14.6747928,43.2628373 Z M4.77036236,25.6550096 L4.77036236,25.6549713 C2.95208576,25.5533583 1.49387355,24.0215492 1.48637293,22.2042977 C1.47734761,20.3003538 3.08857941,18.6878588 4.97587094,18.7102779 C6.87814068,18.731205 8.406881,20.3526907 8.35587447,22.2894981 C8.30337396,24.2233215 6.66364518,25.7611141 4.77036236,25.6550096 Z" id="Combined-Shape" fill="#FFFFFF"></path>
                    <path d="M74.3086942,0 C90.2649229,0 102.713078,3.09062843 111.653533,9.27197802 C120.593988,15.4533276 125.064148,24.6943066 125.064148,36.9951923 C125.064148,43.2383554 123.40336,48.8169397 120.081732,53.7311126 C116.760105,58.6452856 111.932953,62.3385865 105.60013,64.8111264 C113.733461,66.5419043 119.833367,70.2506584 123.900033,75.9375 C127.966698,81.6243416 130,88.2073802 130,95.6868132 C130,108.605834 125.716096,118.387673 117.14816,125.032624 C108.580224,131.677574 96.4424969,135 80.7346141,135 L14.0540541,135 L14.0540541,118.774038 L28.4890915,115.992445 L28.4890915,19.1002747 L14.0540541,16.3186813 L14.0540541,0 L74.3086942,0 Z M55.6828395,75.2884615 L55.6828395,114.230769 L80.7346141,114.230769 C87.9366473,114.230769 93.4312195,112.670002 97.2184956,109.54842 C101.005772,106.426839 102.899381,101.806349 102.899381,95.6868132 C102.899381,89.0727691 101.285157,84.0195916 98.0566591,80.5271291 C94.8281614,77.0346666 89.7371454,75.2884615 82.7834582,75.2884615 L55.6828395,75.2884615 Z M55.6828395,56.5590659 L75.239987,56.5590659 C82.5041067,56.5590659 88.0918072,55.0755643 92.0032563,52.1085165 C95.9147053,49.1414687 97.8704005,44.8145889 97.8704005,39.1277473 C97.8704005,32.8845842 95.8991839,28.2795478 91.9566916,25.3125 C88.0141993,22.3454522 82.1315924,20.8619505 74.3086942,20.8619505 L55.6828395,20.8619505 L55.6828395,56.5590659 Z" id="B" stroke="#FFFFFF" stroke-width="2"></path>
                </g>
                <rect opacity="0.4" x="0" y="0" width="206" height="163"></rect>
            </g>
        </g>
    </g>
</svg>