<?xml version="1.0" encoding="UTF-8"?>
<svg width="206px" height="163px" viewBox="0 0 206 163" version="1.1" xmlns="http://www.w3.org/2000/svg" xmlns:xlink="http://www.w3.org/1999/xlink">
    <!-- Generator: Sketch 47.1 (45422) - http://www.bohemiancoding.com/sketch -->
    <title>m-H-Leadership-206x163</title>
    <desc>Created with Sketch.</desc>
    <defs></defs>
    <g id="Page-1" stroke="none" stroke-width="1" fill="none" fill-rule="evenodd">
        <g id="ASSET-SHEET" transform="translate(-445.000000, -674.000000)">
            <g id="m-H-Leadership-206x163" transform="translate(445.000000, 674.000000)">
                <rect opacity="0.4" x="0" y="0" width="206" height="163"></rect>
                <g id="Group-8-Copy" transform="translate(54.000000, 0.000000)">
                    <path d="M90.2055838,0 C85.8973484,0 82.4162437,3.47418043 82.4162437,7.77384615 C82.4162437,12.0735119 85.8973484,15.5476923 90.2055838,15.5476923 C94.5138191,15.5476923 97.9949239,12.0735119 97.9949239,7.77384615 C97.9949239,3.47418043 94.5138191,0 90.2055838,0 Z M93.8094831,6.85333335 L92.3963376,8.14063778 C92.2745315,8.25978189 92.2259991,8.42639301 92.2497902,8.5697472 L92.6152085,10.4518428 C92.6884822,10.8567422 92.2745412,11.1667075 91.9091229,10.9526294 L90.2038376,10.0236866 C90.0572903,9.95201425 89.8869469,9.95201425 89.7413643,10.0236866 L88.011328,10.9759101 C87.6459097,11.1667266 87.2072128,10.856766 87.3052424,10.4751236 L87.6706607,8.59302796 C87.6954019,8.42641207 87.6459194,8.25980571 87.5241133,8.16391854 L86.0871912,6.85333335 C85.7950515,6.56757812 85.9406439,6.09100169 86.3555544,6.01932459 L88.3044519,5.78103638 C88.4747904,5.75683583 88.6213426,5.66189227 88.6946212,5.51853808 L89.5225128,3.77884347 C89.6928513,3.42141115 90.2285984,3.42141115 90.3999065,3.77884347 L91.2277981,5.51853808 C91.3010718,5.66188274 91.446669,5.78103638 91.6179674,5.78103638 L93.5668649,6.01932459 C93.955134,6.06679637 94.1264177,6.56757812 93.8095245,6.85333335 L93.8094831,6.85333335 Z" id="Page-1" fill="#FC4C48"></path>
                    <path d="M54.2741117,32.6847911 C67.482106,32.4187719 78.0314284,25.8705082 85.922079,13.04" id="Line" stroke="#FC4C48" stroke-width="2" stroke-linecap="round" stroke-linejoin="round" stroke-dasharray="1,4"></path>
                    <polygon id="L-Copy" fill="#FC4C48" points="0 163 0 147.266642 14.0136986 144.569495 14.0136986 50.6188715 0 47.9217244 0 32.0984615 54.5178082 32.0984615 54.5178082 47.9217244 40.4136986 50.6188715 40.4136986 142.861302 77.5726027 142.861302 78.8383562 126.408705 99 126.408705 99 163"></polygon>
                </g>
            </g>
        </g>
    </g>
</svg>