<?xml version="1.0" encoding="UTF-8"?>
<svg width="206px" height="163px" viewBox="0 0 206 163" version="1.1" xmlns="http://www.w3.org/2000/svg" xmlns:xlink="http://www.w3.org/1999/xlink">
    <!-- Generator: Sketch 47.1 (45422) - http://www.bohemiancoding.com/sketch -->
    <title>m-H-Process-206x163</title>
    <desc>Created with Sketch.</desc>
    <defs></defs>
    <g id="Page-1" stroke="none" stroke-width="1" fill="none" fill-rule="evenodd">
        <g id="ASSET-SHEET" transform="translate(-1158.000000, -674.000000)">
            <g id="m-H-Process-206x163" transform="translate(1158.000000, 674.000000)">
                <rect id="Rectangle-2-Copy-43" opacity="0.4" x="0" y="0" width="206" height="163"></rect>
                <g id="Group-6-Copy" transform="translate(42.000000, 23.000000)" fill="#EE026D">
                    <path d="M46.1582,68.6182 C46.0142,68.8312 45.8312,69.0142 45.6182,69.1582 C45.2992,69.3742 44.9142,69.5002 44.5002,69.5002 C43.3952,69.5002 42.5002,68.6042 42.5002,67.5002 C42.5002,66.8112 42.8482,66.2042 43.3782,65.8452 C43.6982,65.6272 44.0842,65.5002 44.5002,65.5002 C44.8172,65.5002 45.1122,65.5802 45.3782,65.7112 C45.4602,65.7522 45.5432,65.7912 45.6182,65.8422 C45.8312,65.9852 46.0142,66.1692 46.1582,66.3822 C46.1842,66.4202 46.2012,66.4632 46.2242,66.5032 C46.3952,66.7982 46.5002,67.1352 46.5002,67.5002 C46.5002,67.8672 46.3942,68.2072 46.2212,68.5032 C46.1992,68.5412 46.1822,68.5822 46.1582,68.6182 L46.1582,68.6182 Z M45.3782,28.3952 C46.8962,28.0532 48.0912,26.8502 48.4122,25.3242 L66.6002,25.3242 C69.2322,25.3242 71.6312,25.6012 73.7882,26.1532 C77.3842,27.0732 80.3092,28.7562 82.5272,31.1862 C84.7612,33.6342 86.3052,36.5222 87.1502,39.8192 C87.6572,41.7972 87.9122,43.9222 87.9122,46.1852 C87.9122,47.6632 87.7992,49.0792 87.5742,50.4312 C87.3202,51.9512 86.9252,53.3902 86.3882,54.7472 C86.3832,54.7602 86.3772,54.7722 86.3712,54.7852 C85.4782,57.0292 84.2002,59.0432 82.5372,60.8112 C79.8752,63.6432 76.1942,65.4292 71.5552,66.1442 C70.0092,66.3832 68.3562,66.5032 66.6002,66.5032 L48.3592,66.5032 C47.9852,65.0612 46.8372,63.9332 45.3782,63.6042 L45.3782,28.3952 Z M16.1542,23.2692 L16.1542,23.2692 C16.0552,23.0322 16.0002,22.7722 16.0002,22.5002 C16.0002,22.4062 16.0152,22.3162 16.0272,22.2262 C16.0762,21.8742 16.2142,21.5542 16.4222,21.2842 L16.4222,21.2842 C16.7882,20.8102 17.3552,20.5002 18.0002,20.5002 C18.4142,20.5002 18.7992,20.6262 19.1182,20.8422 C19.3312,20.9852 19.5142,21.1692 19.6582,21.3822 C19.8742,21.7012 20.0002,22.0862 20.0002,22.5002 C20.0002,22.9142 19.8742,23.2992 19.6582,23.6182 C19.5142,23.8312 19.3312,24.0142 19.1182,24.1582 C19.0812,24.1832 19.0392,24.1992 19.0012,24.2222 C18.7062,24.3932 18.3672,24.5002 18.0012,24.5002 L18.0002,24.5002 C17.6342,24.5002 17.2962,24.3942 17.0012,24.2232 C16.6252,24.0052 16.3232,23.6752 16.1542,23.2692 L16.1542,23.2692 Z M5.1182,21.6582 C4.7992,21.8742 4.4142,22.0002 4.0002,22.0002 C2.8952,22.0002 2.0002,21.1042 2.0002,20.0002 C2.0002,19.2622 2.4052,18.6242 3.0002,18.2772 C3.2952,18.1052 3.6342,18.0002 4.0002,18.0002 C4.3662,18.0002 4.7052,18.1052 5.0002,18.2772 C5.0382,18.3002 5.0812,18.3162 5.1182,18.3422 C5.3312,18.4852 5.5142,18.6692 5.6582,18.8822 C5.7332,18.9922 5.7962,19.1122 5.8472,19.2372 C5.9452,19.4722 6.0002,19.7292 6.0002,20.0002 C6.0002,20.0962 5.9852,20.1872 5.9712,20.2802 C5.9282,20.5862 5.8242,20.8732 5.6582,21.1182 C5.6332,21.1552 5.6002,21.1852 5.5732,21.2222 C5.4432,21.3892 5.2942,21.5402 5.1182,21.6582 L5.1182,21.6582 Z M2.0002,4.0002 C2.0002,2.8952 2.8952,2.0002 4.0002,2.0002 C4.4142,2.0002 4.7992,2.1262 5.1182,2.3422 C5.3312,2.4852 5.5142,2.6692 5.6582,2.8822 C5.6832,2.9192 5.7002,2.9612 5.7222,3.0002 C5.8942,3.2952 6.0002,3.6342 6.0002,4.0002 C6.0002,4.3662 5.8942,4.7052 5.7222,5.0002 C5.7002,5.0392 5.6832,5.0812 5.6582,5.1182 C5.5142,5.3312 5.3312,5.5142 5.1182,5.6582 C5.0812,5.6832 5.0382,5.7002 5.0002,5.7222 C4.7052,5.8942 4.3662,6.0002 4.0002,6.0002 C3.6342,6.0002 3.2952,5.8942 3.0002,5.7222 C2.4052,5.3762 2.0002,4.7382 2.0002,4.0002 L2.0002,4.0002 Z M46.5002,24.5002 C46.5002,24.7952 46.4322,25.0722 46.3182,25.3242 C46.2712,25.4272 46.2202,25.5262 46.1582,25.6182 C46.0142,25.8312 45.8312,26.0142 45.6182,26.1582 C45.5432,26.2092 45.4602,26.2482 45.3782,26.2892 C45.1122,26.4202 44.8172,26.5002 44.5002,26.5002 C44.4582,26.5002 44.4192,26.4902 44.3782,26.4872 C44.0102,26.4652 43.6662,26.3512 43.3782,26.1552 C42.8482,25.7962 42.5002,25.1882 42.5002,24.5002 C42.5002,23.3952 43.3952,22.5002 44.5002,22.5002 C44.9142,22.5002 45.2992,22.6262 45.6182,22.8422 C45.8102,22.9722 45.9742,23.1382 46.1112,23.3242 C46.1252,23.3452 46.1442,23.3612 46.1582,23.3822 C46.3432,23.6542 46.4512,23.9782 46.4822,24.3242 C46.4872,24.3842 46.5002,24.4392 46.5002,24.5002 L46.5002,24.5002 Z M46.1582,89.1182 C46.0142,89.3312 45.8312,89.5142 45.6182,89.6582 C45.5432,89.7092 45.4602,89.7482 45.3782,89.7892 C45.1122,89.9202 44.8172,90.0002 44.5002,90.0002 C44.0842,90.0002 43.6982,89.8732 43.3782,89.6552 C42.8482,89.2962 42.5002,88.6882 42.5002,88.0002 C42.5002,86.8952 43.3952,86.0002 44.5002,86.0002 C44.9142,86.0002 45.2992,86.1262 45.6182,86.3422 C45.8112,86.4722 45.9772,86.6392 46.1142,86.8282 C46.1282,86.8472 46.1452,86.8622 46.1582,86.8822 C46.3742,87.2012 46.5002,87.5862 46.5002,88.0002 C46.5002,88.2962 46.4312,88.5752 46.3162,88.8282 C46.2702,88.9292 46.2202,89.0272 46.1582,89.1182 L46.1582,89.1182 Z M45.6182,115.3422 C45.7242,115.4132 45.8242,115.4952 45.9142,115.5862 C46.0052,115.6762 46.0862,115.7752 46.1582,115.8822 C46.2592,116.0312 46.3322,116.1992 46.3902,116.3732 C46.4552,116.5712 46.5002,116.7792 46.5002,117.0002 C46.5002,117.4142 46.3742,117.7992 46.1582,118.1182 C46.1062,118.1952 46.0442,118.2642 45.9822,118.3322 C45.8722,118.4542 45.7542,118.5662 45.6182,118.6582 C45.2992,118.8742 44.9142,119.0002 44.5002,119.0002 C43.3952,119.0002 42.5002,118.1042 42.5002,117.0002 C42.5002,116.5862 42.6262,116.2012 42.8422,115.8822 C42.9842,115.6702 43.1672,115.4872 43.3782,115.3452 C43.3802,115.3442 43.3802,115.3432 43.3822,115.3422 C43.7012,115.1262 44.0862,115.0002 44.5002,115.0002 C44.8172,115.0002 45.1122,115.0802 45.3782,115.2112 C45.4602,115.2522 45.5432,115.2912 45.6182,115.3422 L45.6182,115.3422 Z M56.8422,118.3822 C56.9852,118.1692 57.1692,117.9852 57.3822,117.8422 C57.7012,117.6262 58.0862,117.5002 58.5002,117.5002 C58.9142,117.5002 59.2992,117.6262 59.6182,117.8422 C59.7242,117.9132 59.8242,117.9952 59.9142,118.0862 C60.0052,118.1762 60.0862,118.2752 60.1582,118.3822 C60.3742,118.7012 60.5002,119.0862 60.5002,119.5002 C60.5002,119.9142 60.3742,120.2992 60.1582,120.6182 C60.0142,120.8312 59.8312,121.0142 59.6182,121.1582 C59.5722,121.1892 59.5192,121.2112 59.4702,121.2382 C59.1812,121.4002 58.8542,121.5002 58.5002,121.5002 C58.1212,121.5002 57.7722,121.3892 57.4702,121.2062 C57.1502,121.0132 56.8922,120.7332 56.7222,120.3982 C56.5852,120.1272 56.5002,119.8242 56.5002,119.5002 C56.5002,119.0872 56.6252,118.7022 56.8412,118.3842 C56.8412,118.3832 56.8412,118.3832 56.8422,118.3822 L56.8422,118.3822 Z M59.6182,133.8422 C59.7242,133.9132 59.8242,133.9952 59.9142,134.0862 C60.0052,134.1762 60.0862,134.2752 60.1582,134.3822 C60.3742,134.7012 60.5002,135.0862 60.5002,135.5002 C60.5002,135.9142 60.3742,136.2992 60.1582,136.6182 C60.0142,136.8312 59.8312,137.0142 59.6182,137.1582 C59.2992,137.3742 58.9142,137.5002 58.5002,137.5002 C57.3952,137.5002 56.5002,136.6042 56.5002,135.5002 C56.5002,135.0862 56.6262,134.7012 56.8422,134.3822 C56.9852,134.1692 57.1692,133.9852 57.3822,133.8422 C57.4092,133.8232 57.4412,133.8102 57.4702,133.7942 C57.7722,133.6112 58.1212,133.5002 58.5002,133.5002 C58.8542,133.5002 59.1812,133.5992 59.4702,133.7622 C59.5192,133.7892 59.5722,133.8102 59.6182,133.8422 L59.6182,133.8422 Z M19.1582,115.8822 C19.3742,116.2012 19.5002,116.5862 19.5002,117.0002 C19.5002,117.4142 19.3742,117.7992 19.1582,118.1182 C19.0142,118.3312 18.8312,118.5142 18.6182,118.6582 C18.2992,118.8742 17.9142,119.0002 17.5002,119.0002 C16.9392,119.0002 16.4342,118.7682 16.0712,118.3962 C15.7192,118.0362 15.5002,117.5442 15.5002,117.0002 C15.5002,116.8092 15.5352,116.6292 15.5852,116.4542 C15.6432,116.2492 15.7252,116.0542 15.8422,115.8822 C15.9852,115.6692 16.1692,115.4852 16.3822,115.3422 C16.5672,115.2162 16.7782,115.1282 17.0012,115.0702 C17.1612,115.0292 17.3262,115.0002 17.5002,115.0002 C17.9142,115.0002 18.2992,115.1262 18.6182,115.3422 C18.7242,115.4132 18.8242,115.4952 18.9142,115.5862 C18.9462,115.6182 18.9712,115.6572 19.0012,115.6912 C19.0552,115.7542 19.1122,115.8132 19.1582,115.8822 L19.1582,115.8822 Z M5.6582,120.6182 C5.5142,120.8312 5.3312,121.0142 5.1182,121.1582 C5.0812,121.1832 5.0382,121.2002 5.0002,121.2222 C4.7052,121.3942 4.3662,121.5002 4.0002,121.5002 C3.6342,121.5002 3.2952,121.3942 3.0002,121.2222 C2.4052,120.8762 2.0002,120.2382 2.0002,119.5002 C2.0002,119.0862 2.1262,118.7012 2.3422,118.3822 C2.4852,118.1692 2.6692,117.9852 2.8822,117.8422 C3.2012,117.6262 3.5862,117.5002 4.0002,117.5002 C4.4142,117.5002 4.7992,117.6262 5.1182,117.8422 C5.2242,117.9132 5.3242,117.9952 5.4142,118.0862 C5.5032,118.1752 5.5832,118.2722 5.6552,118.3772 C5.6562,118.3792 5.6572,118.3802 5.6582,118.3822 C5.8742,118.7012 6.0002,119.0862 6.0002,119.5002 C6.0002,119.8212 5.9172,120.1202 5.7832,120.3892 C5.7432,120.4682 5.7072,120.5472 5.6582,120.6182 L5.6582,120.6182 Z M5.1182,133.8422 C5.2242,133.9132 5.3242,133.9952 5.4142,134.0862 C5.5052,134.1762 5.5862,134.2752 5.6582,134.3822 C5.8742,134.7012 6.0002,135.0862 6.0002,135.5002 C6.0002,135.9142 5.8742,136.2992 5.6582,136.6182 C5.5142,136.8312 5.3312,137.0142 5.1182,137.1582 C4.7992,137.3742 4.4142,137.5002 4.0002,137.5002 C2.8952,137.5002 2.0002,136.6042 2.0002,135.5002 C2.0002,135.0862 2.1262,134.7012 2.3422,134.3822 C2.4852,134.1692 2.6692,133.9852 2.8822,133.8422 C2.9192,133.8162 2.9612,133.8002 3.0002,133.7772 C3.2952,133.6052 3.6342,133.5002 4.0002,133.5002 C4.3662,133.5002 4.7052,133.6052 5.0002,133.7772 C5.0382,133.8002 5.0812,133.8162 5.1182,133.8422 L5.1182,133.8422 Z M102.9012,14.8602 C94.0512,6.9902 81.8372,3.0002 66.6002,3.0002 L7.8582,3.0002 C7.4102,1.2792 5.8582,0.0002 4.0002,0.0002 C1.7942,0.0002 0.0002,1.7942 0.0002,4.0002 C0.0002,5.8582 1.2802,7.4112 3.0002,7.8582 L3.0002,16.1412 C1.2802,16.5892 0.0002,18.1412 0.0002,20.0002 C0.0002,22.2052 1.7942,24.0002 4.0002,24.0002 C5.6272,24.0002 7.0242,23.0202 7.6482,21.6232 L14.0362,22.8592 C14.1912,24.5552 15.3942,25.9412 17.0012,26.3582 L17.0012,113.0512 C15.0812,113.2932 13.5872,114.8872 13.5142,116.8552 L7.6972,117.9812 C7.0972,116.5272 5.6682,115.5002 4.0002,115.5002 C1.7942,115.5002 0.0002,117.2942 0.0002,119.5002 C0.0002,121.3582 1.2802,122.9112 3.0002,123.3582 L3.0002,131.6412 C1.2802,132.0892 0.0002,133.6412 0.0002,135.5002 C0.0002,137.7062 1.7942,139.5002 4.0002,139.5002 C6.2052,139.5002 8.0002,137.7062 8.0002,135.5002 C8.0002,133.6412 6.7202,132.0892 5.0002,131.6412 L5.0002,123.3582 C6.5712,122.9492 7.7572,121.6152 7.9522,119.9692 L13.9512,118.8072 C14.6152,120.1022 15.9482,121.0002 17.5002,121.0002 C19.7052,121.0002 21.5002,119.2062 21.5002,117.0002 C21.5002,115.3262 20.4642,113.8932 19.0012,113.2982 L19.0012,44.0002 L43.3782,44.0002 L43.3782,63.6802 C41.7212,64.1682 40.5002,65.6862 40.5002,67.5002 C40.5002,69.7052 42.2942,71.5002 44.5002,71.5002 C46.3572,71.5002 47.9082,70.2222 48.3572,68.5032 L50.0002,68.5032 L50.0002,86.8282 L48.3042,86.8282 C47.8002,85.1962 46.2952,84.0002 44.5002,84.0002 C42.2942,84.0002 40.5002,85.7942 40.5002,88.0002 C40.5002,89.8132 41.7212,91.3322 43.3782,91.8202 L43.3782,113.1802 C41.7212,113.6682 40.5002,115.1862 40.5002,117.0002 C40.5002,119.2062 42.2942,121.0002 44.5002,121.0002 C46.0802,121.0002 47.4372,120.0712 48.0862,118.7372 L54.5492,119.9802 C54.7472,121.6102 55.9172,122.9312 57.4702,123.3482 L57.4702,131.6512 C55.7652,132.1092 54.5002,133.6522 54.5002,135.5002 C54.5002,137.7062 56.2942,139.5002 58.5002,139.5002 C60.7052,139.5002 62.5002,137.7062 62.5002,135.5002 C62.5002,133.6312 61.2062,132.0692 59.4702,131.6332 L59.4702,123.3672 C61.2062,122.9312 62.5002,121.3692 62.5002,119.5002 C62.5002,117.2942 60.7052,115.5002 58.5002,115.5002 C56.8282,115.5002 55.3972,116.5322 54.8002,117.9912 L48.4772,116.7742 C48.3752,114.9742 47.0892,113.4902 45.3782,113.1042 L45.3782,91.8952 C46.8952,91.5542 48.0892,90.3522 48.4112,88.8282 L66.6002,88.8282 C81.8352,88.8282 94.0472,84.8852 102.8962,77.1062 C111.7832,69.2972 116.2892,58.8322 116.2892,46.0042 C116.2892,33.2382 111.7842,22.7612 102.9012,14.8602 L102.9012,14.8602 Z" id="Fill-1"></path>
                </g>
            </g>
        </g>
    </g>
</svg>