<?xml version="1.0" encoding="UTF-8"?>
<svg width="172px" height="160px" viewBox="0 0 172 160" version="1.1" xmlns="http://www.w3.org/2000/svg" xmlns:xlink="http://www.w3.org/1999/xlink">
    <!-- Generator: Sketch 47.1 (45422) - http://www.bohemiancoding.com/sketch -->
    <title>m-L-Esecutive-556x400</title>
    <desc>Created with Sketch.</desc>
    <defs></defs>
    <g id="Page-1" stroke="none" stroke-width="1" fill="none" fill-rule="evenodd">
        <g id="ASSET-SHEET" transform="translate(-1416.000000, -1850.000000)">
            <g id="m-L-Esecutive-556x400" transform="translate(1417.000000, 1851.000000)">
                <path d="M70.2727273,98.7287119 C75.009132,100.087862 80.0110337,100.818182 85.1815619,100.818182 C90.3520901,100.818182 95.3539918,100.087862 100.090909,98.7287119 C97.8577617,88.2859522 92.5601229,78.9595825 85.1815619,71.7272727 C77.8035134,78.9595825 72.5058747,88.2859522 70.2727273,98.7287119" id="Fill-1" fill="#FC4C48"></path>
                <path d="M71,45 L71,27 L77,27 L77,45 L71,45 Z M83,44.996349 L83,30.996349 L89,30.996349 L89,44.996349 L83,44.996349 Z M95,44.996349 L95,32.996349 L101,32.996349 L101,44.996349 L95,44.996349 Z" id="Combined-Shape" stroke="#FFFFFF" stroke-width="2"></path>
                <path d="M28.3090944,110.272727 C26.9485804,110.272727 25.9090909,111.322715 25.9090909,112.69697 L25.9090909,124.010618 C25.9090909,125.30303 26.9485804,126.434861 28.3090944,126.434861 L41.1086008,126.434861 L46.7080969,132.090909 L46.7080969,126.434861 L47.507586,126.434861 C48.8681,126.434861 49.9075895,125.30303 49.9075895,124.010618 L49.9090909,112.69697 C49.9090909,111.322715 48.8696014,110.272727 47.5090875,110.272727 L28.3090944,110.272727 Z" id="Page-1" stroke="#FFFFFF" stroke-width="2"></path>
                <path d="M89.9889584,85.0637566 C89.3430488,84.3843801 88.4674772,84.0026654 87.5544684,84.0026654 C86.6414597,84.0026654 85.765888,84.3843801 85.1199784,85.0637566 L84.9999878,85.1901522 L84.8799971,85.0637566 C84.010545,84.1468828 82.7430839,83.7884248 81.5544566,84.1232468 C80.3658294,84.4574368 79.4372219,85.4346013 79.1180468,86.6860442 C78.7987517,87.93774 79.1377252,89.273868 80.0071774,90.1907418 L80.127168,90.3171374 L83.228686,93.5856015 L83.9486298,94.3439752 L83.9608688,94.3577523 L84.2678049,94.6827154 C84.6718134,95.1057615 85.3243224,95.1057615 85.7283309,94.6827154 L86.7666099,93.5890142 L89.865728,90.3219404 L89.9857187,90.1955448 C90.6339081,89.516674 90.9990396,88.593354 90.9999995,87.6305986 C91.0004795,86.6673377 90.6366679,85.7435122 89.9889584,85.0636302 L89.9889584,85.0637566 Z" id="Fill-1" fill="#FFFFFF"></path>
                <path d="M120.211681,118.369329 L126.649313,121.129377 L126.649313,122.288598 L119,118.801737 L119,117.909321 L126.649313,114.43166 L126.649313,115.59088 L120.211681,118.369329 Z M129.257664,125.545455 L128.249471,125.545455 L133.87315,111 L134.872093,111 L129.257664,125.545455 Z M143.215116,118.332528 L136.638742,115.54488 L136.638742,114.41326 L144.454545,117.890921 L144.454545,118.783336 L136.638742,122.270197 L136.638742,121.129377 L143.215116,118.332528 Z" id="&lt;/&gt;" stroke="#FFFFFF" fill="#FFFFFF"></path>
                <circle id="Oval-3" stroke="#FC4C48" stroke-width="1.96428571" cx="50" cy="108" r="50"></circle>
                <circle id="Oval-3-Copy" stroke="#FC4C48" stroke-width="1.96428571" cx="120" cy="108" r="50"></circle>
                <circle id="Oval-3-Copy-2" stroke="#FC4C48" stroke-width="1.96428571" cx="86" cy="50" r="50"></circle>
            </g>
        </g>
    </g>
</svg>