<?xml version="1.0" encoding="UTF-8"?>
<svg width="206px" height="170px" viewBox="0 0 206 170" version="1.1" xmlns="http://www.w3.org/2000/svg" xmlns:xlink="http://www.w3.org/1999/xlink">
    <!-- Generator: Sketch 47.1 (45422) - http://www.bohemiancoding.com/sketch -->
    <title>m-P-hero-323x392</title>
    <desc>Created with Sketch.</desc>
    <defs>
        <ellipse id="path-1" cx="4.44054581" cy="4.275" rx="2.91986138" ry="2.925"></ellipse>
        <ellipse id="path-2" cx="17.4676197" cy="59.175" rx="2.91986138" ry="2.925"></ellipse>
        <rect id="path-3" x="25.3287849" y="1.8" width="8.08576998" height="4.5"></rect>
        <rect id="path-4" x="25.3287849" y="24.3" width="8.08576998" height="4.5"></rect>
        <rect id="path-5" x="0.62226554" y="24.3" width="8.08576998" height="4.5"></rect>
        <rect id="path-6" x="13.20013" y="13.5" width="8.08576998" height="4.5"></rect>
        <rect id="path-7" x="14.9969677" y="1.8" width="4.94130388" height="4.95"></rect>
        <rect id="path-8" x="15.1219264" y="23.9751786" width="4.94130388" height="4.95"></rect>
        <rect id="path-9" x="26.8013719" y="56.3751786" width="4.94130388" height="4.95"></rect>
        <rect id="path-10" x="27.2505814" y="13.1751786" width="4.94130388" height="4.95"></rect>
        <rect id="path-11" x="2.09485252" y="13.1751786" width="4.94130388" height="4.95"></rect>
        <rect id="path-12" x="25.3287849" y="46.35" width="8.08576998" height="4.5"></rect>
        <rect id="path-13" x="0.62226554" y="46.2248214" width="8.08576998" height="4.5"></rect>
        <rect id="path-14" x="13.20013" y="35.55" width="8.08576998" height="4.5"></rect>
        <rect id="path-15" x="14.9969677" y="45.9" width="4.94130388" height="4.95"></rect>
        <rect id="path-16" x="27.1256227" y="35.1" width="4.94130388" height="4.95"></rect>
        <rect id="path-17" x="2.09485252" y="35.1" width="4.94130388" height="4.95"></rect>
    </defs>
    <g id="Page-1" stroke="none" stroke-width="1" fill="none" fill-rule="evenodd">
        <g id="ASSET-SHEET" transform="translate(-413.000000, -1225.000000)">
            <g id="P-hero-323x392" transform="translate(100.000000, 1114.000000)">
                <rect x="0" y="0" width="323" height="392"></rect>
            </g>
            <g id="m-P-hero-323x392" transform="translate(413.000000, 1225.000000)">
                <g id="Group-11-Copy" transform="translate(43.000000, 32.000000)">
                    <path d="M62.9539861,2 C79.5164269,2 93.1631772,7.26952148 103.894646,17.8087225 C114.626115,28.3479236 119.99177,41.869423 119.99177,58.3736264 L119.99177,80.7190934 C119.99177,97.2851103 114.626115,110.80661 103.894646,121.283997 C93.1631772,131.761385 79.5164269,137 62.9539861,137 L2.00823045,137 L2.00823045,120.774038 L16.4305085,117.992445 L16.4305085,21.1002747 L2.00823045,18.3186813 L2.00823045,2 L62.9539861,2 Z M43.6002194,22.8619505 L43.6002194,116.230769 L61.5582817,116.230769 C71.2972451,116.230769 78.9270191,112.954703 84.4478327,106.402473 C89.9686463,99.850242 92.7290117,91.2892012 92.7290117,80.7190934 L92.7290117,58.1881868 C92.7290117,47.741706 89.9686463,39.2424778 84.4478327,32.6902473 C78.9270191,26.1380167 71.2972451,22.8619505 61.5582817,22.8619505 L43.6002194,22.8619505 Z" id="D" stroke="#FFFFFF" stroke-width="2"></path>
                    <ellipse id="Oval" stroke="#FFFFFF" stroke-width="0.5" fill="#FFFFFF" cx="2.00823045" cy="2" rx="2.00823045" ry="2"></ellipse>
                    <ellipse id="Oval-Copy-2" stroke="#FFFFFF" stroke-width="0.5" fill="#FFFFFF" cx="2.00823045" cy="17.5" rx="2.00823045" ry="2"></ellipse>
                    <ellipse id="Oval-Copy-7" stroke="#FFFFFF" stroke-width="0.5" fill="#FFFFFF" cx="2.00823045" cy="121.5" rx="2.00823045" ry="2"></ellipse>
                    <ellipse id="Oval-Copy-4" stroke="#FFFFFF" stroke-width="0.5" fill="#FFFFFF" cx="16.0658436" cy="21" rx="2.00823045" ry="2"></ellipse>
                    <ellipse id="Oval-Copy-5" stroke="#FFFFFF" stroke-width="0.5" fill="#FFFFFF" cx="119.99177" cy="66.5" rx="2.00823045" ry="2"></ellipse>
                    <ellipse id="Oval-Copy-9" stroke="#FFFFFF" stroke-width="0.5" fill="#FFFFFF" cx="105.432099" cy="19" rx="2.00823045" ry="2"></ellipse>
                    <ellipse id="Oval-Copy-10" stroke="#FFFFFF" stroke-width="0.5" fill="#FFFFFF" cx="105.432099" cy="119.5" rx="2.00823045" ry="2"></ellipse>
                    <ellipse id="Oval-Copy-6" stroke="#FFFFFF" stroke-width="0.5" fill="#FFFFFF" cx="16.0658436" cy="66.5" rx="2.00823045" ry="2"></ellipse>
                    <ellipse id="Oval-Copy-8" stroke="#FFFFFF" stroke-width="0.5" fill="#FFFFFF" cx="16.0658436" cy="117.5" rx="2.00823045" ry="2"></ellipse>
                    <g id="Group" transform="translate(49.000000, 40.000000)">
                        <path d="M4.00315767,3.6 L30.4997544,3.6" id="Line-2" stroke="#FFFFFF" stroke-width="1.8"></path>
                        <path d="M4.00315767,15.3 L30.4997544,15.3" id="Line-2-Copy" stroke="#FFFFFF" stroke-width="1.8"></path>
                        <path d="M4.00315767,25.65 L30.4997544,25.65" id="Line-2-Copy-2" stroke="#FFFFFF" stroke-width="1.8"></path>
                        <path d="M3.76301965,37.35 L30.9455571,37.35" id="Line-2-Copy-3" stroke="#FFFFFF" stroke-width="1.8"></path>
                        <path d="M3.76301965,48.15 L30.9455571,48.15" id="Line-2-Copy-5" stroke="#FFFFFF" stroke-width="1.8"></path>
                        <path d="M17.4831096,58.95 L30.9455571,58.95" id="Line-2-Copy-4" stroke="#FFFFFF" stroke-width="1.8"></path>
                        <path d="M28.9224605,5.18571429 L28.9224605,14.6142857" id="Line-3" stroke="#FFFFFF" stroke-width="1.8"></path>
                        <path d="M4.21594109,16.4357143 L4.21594109,25.8642857" id="Line-3-Copy" stroke="#FFFFFF" stroke-width="1.8"></path>
                        <path d="M4.21594109,38.0357143 L4.21594109,47.4642857" id="Line-3-Copy-3" stroke="#FFFFFF" stroke-width="1.8"></path>
                        <path d="M28.9224605,26.7857143 L28.9224605,36.2142857" id="Line-3-Copy-2" stroke="#FFFFFF" stroke-width="1.8"></path>
                        <path d="M28.9224605,48.3857143 L28.9224605,57.8142857" id="Line-3-Copy-4" stroke="#FFFFFF" stroke-width="1.8"></path>
                        <g id="Oval-Copy-11">
                            <use fill="#F6016C" fill-rule="evenodd" xlink:href="#path-1"></use>
                            <ellipse stroke="#FFFFFF" stroke-width="1.8" cx="4.44054581" cy="4.275" rx="3.81986138" ry="3.825"></ellipse>
                        </g>
                        <g id="Oval-Copy-13">
                            <use fill="#F6016C" fill-rule="evenodd" xlink:href="#path-2"></use>
                            <ellipse stroke="#FFFFFF" stroke-width="1.8" cx="17.4676197" cy="59.175" rx="3.81986138" ry="3.825"></ellipse>
                        </g>
                        <g id="Rectangle-3">
                            <use fill="#F6016C" fill-rule="evenodd" xlink:href="#path-3"></use>
                            <rect stroke="#FFFFFF" stroke-width="1.8" x="24.4287849" y="0.9" width="9.88576998" height="6.3"></rect>
                        </g>
                        <g id="Rectangle-3-Copy-2">
                            <use fill="#F6016C" fill-rule="evenodd" xlink:href="#path-4"></use>
                            <rect stroke="#FFFFFF" stroke-width="1.8" x="24.4287849" y="23.4" width="9.88576998" height="6.3"></rect>
                        </g>
                        <g id="Rectangle-3-Copy-3">
                            <use fill="#F6016C" fill-rule="evenodd" xlink:href="#path-5"></use>
                            <rect stroke="#FFFFFF" stroke-width="1.8" x="-0.27773446" y="23.4" width="9.88576998" height="6.3"></rect>
                        </g>
                        <g id="Rectangle-3-Copy">
                            <use fill="#F6016C" fill-rule="evenodd" xlink:href="#path-6"></use>
                            <rect stroke="#FFFFFF" stroke-width="1.8" x="12.30013" y="12.6" width="9.88576998" height="6.3"></rect>
                        </g>
                        <g id="Rectangle-8" transform="translate(17.467620, 4.275000) rotate(-45.000000) translate(-17.467620, -4.275000) ">
                            <use fill="#F6016C" fill-rule="evenodd" xlink:href="#path-7"></use>
                            <rect stroke="#FFFFFF" stroke-width="1.8" x="14.0969677" y="0.9" width="6.74130388" height="6.75"></rect>
                        </g>
                        <g id="Rectangle-8-Copy-3" transform="translate(17.592578, 26.450179) rotate(-45.000000) translate(-17.592578, -26.450179) ">
                            <use fill="#F6016C" fill-rule="evenodd" xlink:href="#path-8"></use>
                            <rect stroke="#FFFFFF" stroke-width="1.8" x="14.2219264" y="23.0751786" width="6.74130388" height="6.75"></rect>
                        </g>
                        <g id="Rectangle-8-Copy-5" transform="translate(29.272024, 58.850179) rotate(-45.000000) translate(-29.272024, -58.850179) ">
                            <use fill="#F6016C" fill-rule="evenodd" xlink:href="#path-9"></use>
                            <rect stroke="#FFFFFF" stroke-width="1.8" x="25.9013719" y="55.4751786" width="6.74130388" height="6.75"></rect>
                        </g>
                        <g id="Rectangle-8-Copy" transform="translate(29.721233, 15.650179) rotate(-45.000000) translate(-29.721233, -15.650179) ">
                            <use fill="#F6016C" fill-rule="evenodd" xlink:href="#path-10"></use>
                            <rect stroke="#FFFFFF" stroke-width="1.8" x="26.3505814" y="12.2751786" width="6.74130388" height="6.75"></rect>
                        </g>
                        <g id="Rectangle-8-Copy-2" transform="translate(4.565504, 15.650179) rotate(-45.000000) translate(-4.565504, -15.650179) ">
                            <use fill="#F6016C" fill-rule="evenodd" xlink:href="#path-11"></use>
                            <rect stroke="#FFFFFF" stroke-width="1.8" x="1.19485252" y="12.2751786" width="6.74130388" height="6.75"></rect>
                        </g>
                        <g id="Rectangle-3-Copy-4">
                            <use fill="#F6016C" fill-rule="evenodd" xlink:href="#path-12"></use>
                            <rect stroke="#FFFFFF" stroke-width="1.8" x="24.4287849" y="45.45" width="9.88576998" height="6.3"></rect>
                        </g>
                        <g id="Rectangle-3-Copy-5">
                            <use fill="#F6016C" fill-rule="evenodd" xlink:href="#path-13"></use>
                            <rect stroke="#FFFFFF" stroke-width="1.8" x="-0.27773446" y="45.3248214" width="9.88576998" height="6.3"></rect>
                        </g>
                        <g id="Rectangle-3-Copy-6">
                            <use fill="#F6016C" fill-rule="evenodd" xlink:href="#path-14"></use>
                            <rect stroke="#FFFFFF" stroke-width="1.8" x="12.30013" y="34.65" width="9.88576998" height="6.3"></rect>
                        </g>
                        <g id="Rectangle-8-Copy-6" transform="translate(17.467620, 48.375000) rotate(-45.000000) translate(-17.467620, -48.375000) ">
                            <use fill="#F6016C" fill-rule="evenodd" xlink:href="#path-15"></use>
                            <rect stroke="#FFFFFF" stroke-width="1.8" x="14.0969677" y="45" width="6.74130388" height="6.75"></rect>
                        </g>
                        <g id="Rectangle-8-Copy-7" transform="translate(29.596275, 37.575000) rotate(-45.000000) translate(-29.596275, -37.575000) ">
                            <use fill="#F6016C" fill-rule="evenodd" xlink:href="#path-16"></use>
                            <rect stroke="#FFFFFF" stroke-width="1.8" x="26.2256227" y="34.2" width="6.74130388" height="6.75"></rect>
                        </g>
                        <g id="Rectangle-8-Copy-8" transform="translate(4.565504, 37.575000) rotate(-45.000000) translate(-4.565504, -37.575000) ">
                            <use fill="#F6016C" fill-rule="evenodd" xlink:href="#path-17"></use>
                            <rect stroke="#FFFFFF" stroke-width="1.8" x="1.19485252" y="34.2" width="6.74130388" height="6.75"></rect>
                        </g>
                    </g>
                </g>
            </g>
        </g>
    </g>
</svg>