<?xml version="1.0" encoding="UTF-8"?>
<svg width="206px" height="170px" viewBox="0 0 206 170" version="1.1" xmlns="http://www.w3.org/2000/svg" xmlns:xlink="http://www.w3.org/1999/xlink">
    <!-- Generator: Sketch 47.1 (45422) - http://www.bohemiancoding.com/sketch -->
    <title>m-P-hero-323x392</title>
    <desc>Created with Sketch.</desc>
    <defs></defs>
    <g id="Page-1" stroke="none" stroke-width="1" fill="none" fill-rule="evenodd">
        <g id="ASSET-SHEET" transform="translate(-413.000000, -1225.000000)">
            <g id="P-hero-323x392" transform="translate(100.000000, 1114.000000)">
                <rect x="0" y="0" width="323" height="392"></rect>
            </g>
            <g id="m-P-hero-323x392" transform="translate(413.000000, 1225.000000)" fill="#FFFFFF">
                <g id="Group-11-Copy" transform="translate(43.000000, 30.000000)">
                    <path d="M44.5,65.5 C44.817,65.5 45.112,65.58 45.379,65.712 C45.734,65.887 46.026,66.162 46.225,66.503 C46.395,66.798 46.5,67.135 46.5,67.5 C46.5,67.867 46.394,68.207 46.221,68.503 C45.874,69.097 45.237,69.5 44.5,69.5 C43.396,69.5 42.5,68.604 42.5,67.5 C42.5,66.811 42.849,66.203 43.379,65.844 C43.699,65.627 44.084,65.5 44.5,65.5 M42.5,24.5 C42.5,23.396 43.396,22.5 44.5,22.5 C45.163,22.5 45.747,22.827 46.111,23.324 C46.353,23.655 46.5,24.059 46.5,24.5 C46.5,24.795 46.433,25.072 46.318,25.324 C46.127,25.745 45.793,26.084 45.379,26.288 C45.112,26.42 44.817,26.5 44.5,26.5 C44.084,26.5 43.699,26.373 43.379,26.156 C42.849,25.797 42.5,25.189 42.5,24.5 M48.413,25.324 L66.601,25.324 C73.62,25.324 78.979,27.297 82.528,31.187 C86.101,35.103 87.912,40.148 87.912,46.186 C87.912,52.096 86.104,57.017 82.538,60.812 C78.988,64.588 73.627,66.503 66.601,66.503 L48.359,66.503 C47.985,65.062 46.838,63.934 45.379,63.604 L45.379,28.396 C46.896,28.053 48.092,26.851 48.413,25.324 M40.5,67.5 C40.5,69.705 42.294,71.5 44.5,71.5 C46.357,71.5 47.909,70.222 48.357,68.503 L66.601,68.503 C74.2,68.503 80.053,66.376 83.995,62.181 C87.922,58.003 89.912,52.621 89.912,46.186 C89.912,39.635 87.925,34.135 84.005,29.839 C80.062,25.516 74.205,23.324 66.601,23.324 L48.304,23.324 C47.798,21.694 46.294,20.5 44.5,20.5 C42.294,20.5 40.5,22.294 40.5,24.5 C40.5,26.313 41.721,27.832 43.379,28.32 L43.379,63.68 C41.721,64.168 40.5,65.687 40.5,67.5 M46.316,88.828 C46.124,89.248 45.792,89.585 45.379,89.788 C45.112,89.92 44.817,90 44.5,90 C44.084,90 43.699,89.873 43.379,89.656 C42.849,89.297 42.5,88.689 42.5,88 C42.5,86.896 43.396,86 44.5,86 C45.165,86 45.751,86.328 46.114,86.828 C46.354,87.158 46.5,87.561 46.5,88 C46.5,88.296 46.432,88.575 46.316,88.828 M45.618,115.342 C45.831,115.485 46.015,115.669 46.158,115.882 C46.26,116.031 46.332,116.199 46.39,116.373 C46.456,116.571 46.5,116.779 46.5,117 C46.5,117.514 46.301,117.978 45.982,118.332 C45.616,118.739 45.091,119 44.5,119 C43.396,119 42.5,118.104 42.5,117 C42.5,116.586 42.626,116.201 42.842,115.882 C42.984,115.67 43.167,115.487 43.379,115.344 C43.38,115.344 43.381,115.342 43.382,115.342 C43.701,115.126 44.086,115 44.5,115 C44.817,115 45.112,115.08 45.379,115.212 C45.461,115.252 45.543,115.291 45.618,115.342 M56.841,118.384 C56.841,118.383 56.841,118.383 56.842,118.382 C56.985,118.169 57.169,117.985 57.382,117.842 C57.701,117.626 58.086,117.5 58.5,117.5 C58.914,117.5 59.299,117.626 59.618,117.842 C59.831,117.985 60.015,118.169 60.158,118.382 C60.374,118.701 60.5,119.086 60.5,119.5 C60.5,120.251 60.081,120.897 59.47,121.239 C59.182,121.4 58.854,121.5 58.5,121.5 C58.121,121.5 57.771,121.389 57.47,121.206 C57.149,121.013 56.892,120.733 56.723,120.398 L56.722,120.398 C56.585,120.127 56.5,119.825 56.5,119.5 C56.5,119.087 56.626,118.702 56.841,118.384 M59.618,133.842 C59.831,133.985 60.015,134.169 60.158,134.382 C60.374,134.701 60.5,135.086 60.5,135.5 C60.5,136.604 59.604,137.5 58.5,137.5 C57.396,137.5 56.5,136.604 56.5,135.5 C56.5,135.086 56.626,134.701 56.842,134.382 C56.985,134.169 57.169,133.985 57.382,133.842 C57.409,133.823 57.441,133.811 57.47,133.794 C57.771,133.611 58.121,133.5 58.5,133.5 C58.854,133.5 59.182,133.6 59.47,133.761 C59.519,133.788 59.571,133.811 59.618,133.842 M5.723,5 C5.548,5.3 5.3,5.548 5,5.723 C4.705,5.895 4.366,6 4,6 C3.634,6 3.295,5.895 3,5.723 C2.404,5.376 2,4.738 2,4 C2,2.896 2.896,2 4,2 C4.738,2 5.376,2.404 5.723,3 C5.895,3.295 6,3.634 6,4 C6,4.366 5.895,4.705 5.723,5 M5.848,19.237 C5.945,19.473 6,19.729 6,20 C6,20.462 5.837,20.883 5.573,21.222 C5.207,21.691 4.643,22 4,22 C2.896,22 2,21.104 2,20 C2,19.262 2.404,18.624 3,18.277 C3.295,18.105 3.634,18 4,18 C4.366,18 4.705,18.105 5,18.277 C5.377,18.497 5.68,18.83 5.848,19.237 M16.422,21.284 C16.788,20.811 17.355,20.5 18,20.5 C19.104,20.5 20,21.396 20,22.5 C20,23.237 19.596,23.875 19.002,24.222 C18.706,24.395 18.367,24.5 18,24.5 C17.635,24.5 17.297,24.395 17.002,24.224 C16.626,24.005 16.323,23.675 16.154,23.27 C16.056,23.032 16,22.772 16,22.5 C16,22.04 16.161,21.622 16.422,21.284 M19.158,115.882 C19.374,116.201 19.5,116.586 19.5,117 C19.5,118.104 18.604,119 17.5,119 C16.939,119 16.435,118.769 16.071,118.397 C15.719,118.036 15.5,117.544 15.5,117 C15.5,116.81 15.535,116.629 15.585,116.454 C15.644,116.249 15.726,116.054 15.842,115.882 C15.985,115.669 16.169,115.485 16.382,115.342 C16.567,115.216 16.778,115.128 17.002,115.07 C17.162,115.029 17.327,115 17.5,115 C17.914,115 18.299,115.126 18.618,115.342 C18.763,115.439 18.888,115.561 19.002,115.692 C19.056,115.754 19.112,115.813 19.158,115.882 M5.782,120.39 C5.607,120.738 5.336,121.027 5,121.223 C4.705,121.395 4.366,121.5 4,121.5 C3.634,121.5 3.295,121.395 3,121.223 C2.404,120.876 2,120.238 2,119.5 C2,119.086 2.126,118.701 2.342,118.382 C2.485,118.169 2.669,117.985 2.882,117.842 C3.201,117.626 3.586,117.5 4,117.5 C4.414,117.5 4.799,117.626 5.118,117.842 C5.329,117.984 5.512,118.166 5.654,118.377 C5.655,118.379 5.657,118.38 5.658,118.382 C5.874,118.701 6,119.086 6,119.5 C6,119.821 5.917,120.12 5.782,120.39 M5.118,133.842 C5.331,133.985 5.515,134.169 5.658,134.382 C5.874,134.701 6,135.086 6,135.5 C6,136.604 5.104,137.5 4,137.5 C2.896,137.5 2,136.604 2,135.5 C2,135.086 2.126,134.701 2.342,134.382 C2.485,134.169 2.669,133.985 2.882,133.842 C2.919,133.816 2.961,133.8 3,133.777 C3.295,133.605 3.634,133.5 4,133.5 C4.366,133.5 4.705,133.605 5,133.777 C5.039,133.8 5.081,133.816 5.118,133.842 M102.9,14.86 C94.051,6.99 81.838,3 66.601,3 L7.858,3 C7.411,1.279 5.858,0 4,0 C1.794,0 0,1.794 0,4 C0,5.858 1.279,7.411 3,7.858 L3,16.142 C1.279,16.589 0,18.142 0,20 C0,22.205 1.794,24 4,24 C5.627,24 7.024,23.021 7.648,21.623 L14.036,22.859 C14.19,24.556 15.395,25.941 17.002,26.358 L17.002,113.051 C15.081,113.293 13.587,114.887 13.515,116.855 L7.696,117.981 C7.098,116.527 5.668,115.5 4,115.5 C1.794,115.5 0,117.294 0,119.5 C0,121.358 1.279,122.911 3,123.358 L3,131.642 C1.279,132.089 0,133.642 0,135.5 C0,137.706 1.794,139.5 4,139.5 C6.206,139.5 8,137.706 8,135.5 C8,133.642 6.721,132.089 5,131.642 L5,123.358 C6.571,122.949 7.757,121.615 7.952,119.969 L13.952,118.808 C14.614,120.103 15.948,121 17.5,121 C19.706,121 21.5,119.206 21.5,117 C21.5,115.326 20.465,113.894 19.002,113.298 L19.002,26.357 C20.722,25.909 22,24.357 22,22.5 C22,20.294 20.206,18.5 18,18.5 C16.371,18.5 14.972,19.482 14.349,20.883 L7.964,19.647 C7.812,17.948 6.608,16.561 5,16.142 L5,7.858 C6.398,7.494 7.494,6.398 7.858,5 L66.601,5 C81.333,5 93.099,8.82 101.572,16.354 C110.011,23.858 114.289,33.834 114.289,46.004 C114.289,58.232 110.012,68.191 101.576,75.604 C93.103,83.052 81.335,86.828 66.601,86.828 L48.305,86.828 C47.8,85.196 46.295,84 44.5,84 C42.294,84 40.5,85.794 40.5,88 C40.5,89.813 41.721,91.332 43.379,91.82 L43.379,113.18 C41.721,113.668 40.5,115.187 40.5,117 C40.5,119.206 42.294,121 44.5,121 C46.081,121 47.438,120.071 48.087,118.737 L54.549,119.98 C54.747,121.61 55.917,122.932 57.47,123.349 L57.47,131.651 C55.765,132.109 54.5,133.652 54.5,135.5 C54.5,137.706 56.294,139.5 58.5,139.5 C60.706,139.5 62.5,137.706 62.5,135.5 C62.5,133.631 61.206,132.069 59.47,131.633 L59.47,123.367 C61.206,122.931 62.5,121.369 62.5,119.5 C62.5,117.294 60.706,115.5 58.5,115.5 C56.828,115.5 55.397,116.532 54.801,117.991 L48.478,116.774 C48.375,114.975 47.09,113.49 45.379,113.104 L45.379,91.896 C46.896,91.553 48.089,90.353 48.411,88.828 L66.601,88.828 C81.835,88.828 94.047,84.885 102.896,77.106 C111.783,69.297 116.289,58.832 116.289,46.004 C116.289,33.238 111.784,22.76 102.9,14.86" id="Page-1"></path>
                </g>
            </g>
        </g>
    </g>
</svg>