<?xml version="1.0" encoding="UTF-8"?>
<svg width="206px" height="170px" viewBox="0 0 206 170" version="1.1" xmlns="http://www.w3.org/2000/svg" xmlns:xlink="http://www.w3.org/1999/xlink">
    <!-- Generator: Sketch 47.1 (45422) - http://www.bohemiancoding.com/sketch -->
    <title>m-P-hero-323x392</title>
    <desc>Created with Sketch.</desc>
    <defs>
        <rect id="path-1" x="75.308642" y="38" width="9.03703704" height="5"></rect>
        <rect id="path-2" x="75.308642" y="63" width="9.03703704" height="5"></rect>
        <rect id="path-3" x="47.6954733" y="63" width="9.03703704" height="5"></rect>
        <rect id="path-4" x="61.7530864" y="51" width="9.03703704" height="5"></rect>
        <rect id="path-5" x="63.7613169" y="38" width="5.52263374" height="5.5"></rect>
        <rect id="path-6" x="63.9009765" y="62.6390873" width="5.52263374" height="5.5"></rect>
        <rect id="path-7" x="76.9544745" y="98.6390873" width="5.52263374" height="5.5"></rect>
        <rect id="path-8" x="77.4565321" y="50.6390873" width="5.52263374" height="5.5"></rect>
        <rect id="path-9" x="49.3413058" y="50.6390873" width="5.52263374" height="5.5"></rect>
        <rect id="path-10" x="75.308642" y="87.5" width="9.03703704" height="5"></rect>
        <rect id="path-11" x="47.6954733" y="87.3609127" width="9.03703704" height="5"></rect>
        <rect id="path-12" x="61.7530864" y="75.5" width="9.03703704" height="5"></rect>
        <rect id="path-13" x="63.7613169" y="87" width="5.52263374" height="5.5"></rect>
        <rect id="path-14" x="77.3168724" y="75" width="5.52263374" height="5.5"></rect>
        <rect id="path-15" x="49.3413058" y="75" width="5.52263374" height="5.5"></rect>
    </defs>
    <g id="Page-1" stroke="none" stroke-width="1" fill="none" fill-rule="evenodd">
        <g id="ASSET-SHEET" transform="translate(-413.000000, -1225.000000)">
            <g id="P-hero-323x392" transform="translate(100.000000, 1114.000000)">
                <rect x="0" y="0" width="323" height="392"></rect>
            </g>
            <g id="m-P-hero-323x392" transform="translate(413.000000, 1225.000000)">
                <g id="Group-11-Copy" transform="translate(43.000000, 32.000000)">
                    <path d="M62.9539861,2 C79.5164269,2 93.1631772,7.26952148 103.894646,17.8087225 C114.626115,28.3479236 119.99177,41.869423 119.99177,58.3736264 L119.99177,80.7190934 C119.99177,97.2851103 114.626115,110.80661 103.894646,121.283997 C93.1631772,131.761385 79.5164269,137 62.9539861,137 L2.00823045,137 L2.00823045,120.774038 L16.4305085,117.992445 L16.4305085,21.1002747 L2.00823045,18.3186813 L2.00823045,2 L62.9539861,2 Z M43.6002194,22.8619505 L43.6002194,116.230769 L61.5582817,116.230769 C71.2972451,116.230769 78.9270191,112.954703 84.4478327,106.402473 C89.9686463,99.850242 92.7290117,91.2892012 92.7290117,80.7190934 L92.7290117,58.1881868 C92.7290117,47.741706 89.9686463,39.2424778 84.4478327,32.6902473 C78.9270191,26.1380167 71.2972451,22.8619505 61.5582817,22.8619505 L43.6002194,22.8619505 Z" id="D" stroke="#FFFFFF"></path>
                    <ellipse id="Oval" stroke="#FFFFFF" stroke-width="0.5" fill="#FFFFFF" cx="2.00823045" cy="2" rx="2.00823045" ry="2"></ellipse>
                    <ellipse id="Oval-Copy-2" stroke="#FFFFFF" stroke-width="0.5" fill="#FFFFFF" cx="2.00823045" cy="17.5" rx="2.00823045" ry="2"></ellipse>
                    <ellipse id="Oval-Copy-7" stroke="#FFFFFF" stroke-width="0.5" fill="#FFFFFF" cx="2.00823045" cy="121.5" rx="2.00823045" ry="2"></ellipse>
                    <ellipse id="Oval-Copy-4" stroke="#FFFFFF" stroke-width="0.5" fill="#FFFFFF" cx="16.0658436" cy="21" rx="2.00823045" ry="2"></ellipse>
                    <ellipse id="Oval-Copy-5" stroke="#FFFFFF" stroke-width="0.5" fill="#FFFFFF" cx="119.99177" cy="66.5" rx="2.00823045" ry="2"></ellipse>
                    <ellipse id="Oval-Copy-9" stroke="#FFFFFF" stroke-width="0.5" fill="#FFFFFF" cx="105.432099" cy="19" rx="2.00823045" ry="2"></ellipse>
                    <ellipse id="Oval-Copy-10" stroke="#FFFFFF" stroke-width="0.5" fill="#FFFFFF" cx="105.432099" cy="119.5" rx="2.00823045" ry="2"></ellipse>
                    <ellipse id="Oval-Copy-6" stroke="#FFFFFF" stroke-width="0.5" fill="#FFFFFF" cx="16.0658436" cy="66.5" rx="2.00823045" ry="2"></ellipse>
                    <ellipse id="Oval-Copy-8" stroke="#FFFFFF" stroke-width="0.5" fill="#FFFFFF" cx="16.0658436" cy="117.5" rx="2.00823045" ry="2"></ellipse>
                    <path d="M51.4741174,40 L81.0879608,40" id="Line-2" stroke="#FFFFFF" stroke-linecap="square"></path>
                    <path d="M51.4741174,53 L81.0879608,53" id="Line-2-Copy" stroke="#FFFFFF" stroke-linecap="square"></path>
                    <path d="M51.4741174,64.5 L81.0879608,64.5" id="Line-2-Copy-2" stroke="#FFFFFF" stroke-linecap="square"></path>
                    <path d="M51.2057278,77.5 L81.5862109,77.5" id="Line-2-Copy-3" stroke="#FFFFFF" stroke-linecap="square"></path>
                    <path d="M51.2057278,89.5 L81.5862109,89.5" id="Line-2-Copy-5" stroke="#FFFFFF" stroke-linecap="square"></path>
                    <path d="M66.5399461,101.5 L81.5862109,101.5" id="Line-2-Copy-4" stroke="#FFFFFF" stroke-linecap="square"></path>
                    <path d="M79.3251029,41.7619048 L79.3251029,52.2380952" id="Line-3" stroke="#FFFFFF" stroke-linecap="square"></path>
                    <path d="M51.7119342,54.2619048 L51.7119342,64.7380952" id="Line-3-Copy" stroke="#FFFFFF" stroke-linecap="square"></path>
                    <path d="M51.7119342,78.2619048 L51.7119342,88.7380952" id="Line-3-Copy-3" stroke="#FFFFFF" stroke-linecap="square"></path>
                    <path d="M79.3251029,65.7619048 L79.3251029,76.2380952" id="Line-3-Copy-2" stroke="#FFFFFF" stroke-linecap="square"></path>
                    <path d="M79.3251029,89.7619048 L79.3251029,100.238095" id="Line-3-Copy-4" stroke="#FFFFFF" stroke-linecap="square"></path>
                    <ellipse id="Oval-Copy-11" stroke="#FFFFFF" fill="#F6016C" cx="51.962963" cy="40.75" rx="3.26337449" ry="3.25"></ellipse>
                    <ellipse id="Oval-Copy-13" stroke="#FFFFFF" fill="#F6016C" cx="66.5226337" cy="101.75" rx="3.26337449" ry="3.25"></ellipse>
                    <g id="Rectangle-3">
                        <use fill="#F6016C" fill-rule="evenodd" xlink:href="#path-1"></use>
                        <rect stroke="#FFFFFF" stroke-width="1" x="75.808642" y="38.5" width="8.03703704" height="4"></rect>
                    </g>
                    <g id="Rectangle-3-Copy-2">
                        <use fill="#F6016C" fill-rule="evenodd" xlink:href="#path-2"></use>
                        <rect stroke="#FFFFFF" stroke-width="1" x="75.808642" y="63.5" width="8.03703704" height="4"></rect>
                    </g>
                    <g id="Rectangle-3-Copy-3">
                        <use fill="#F6016C" fill-rule="evenodd" xlink:href="#path-3"></use>
                        <rect stroke="#FFFFFF" stroke-width="1" x="48.1954733" y="63.5" width="8.03703704" height="4"></rect>
                    </g>
                    <g id="Rectangle-3-Copy">
                        <use fill="#F6016C" fill-rule="evenodd" xlink:href="#path-4"></use>
                        <rect stroke="#FFFFFF" stroke-width="1" x="62.2530864" y="51.5" width="8.03703704" height="4"></rect>
                    </g>
                    <g id="Rectangle-8" transform="translate(66.522634, 40.750000) rotate(-45.000000) translate(-66.522634, -40.750000) ">
                        <use fill="#F6016C" fill-rule="evenodd" xlink:href="#path-5"></use>
                        <rect stroke="#FFFFFF" stroke-width="1" x="64.2613169" y="38.5" width="4.52263374" height="4.5"></rect>
                    </g>
                    <g id="Rectangle-8-Copy-3" transform="translate(66.662293, 65.389087) rotate(-45.000000) translate(-66.662293, -65.389087) ">
                        <use fill="#F6016C" fill-rule="evenodd" xlink:href="#path-6"></use>
                        <rect stroke="#FFFFFF" stroke-width="1" x="64.4009765" y="63.1390873" width="4.52263374" height="4.5"></rect>
                    </g>
                    <g id="Rectangle-8-Copy-5" transform="translate(79.715791, 101.389087) rotate(-45.000000) translate(-79.715791, -101.389087) ">
                        <use fill="#F6016C" fill-rule="evenodd" xlink:href="#path-7"></use>
                        <rect stroke="#FFFFFF" stroke-width="1" x="77.4544745" y="99.1390873" width="4.52263374" height="4.5"></rect>
                    </g>
                    <g id="Rectangle-8-Copy" transform="translate(80.217849, 53.389087) rotate(-45.000000) translate(-80.217849, -53.389087) ">
                        <use fill="#F6016C" fill-rule="evenodd" xlink:href="#path-8"></use>
                        <rect stroke="#FFFFFF" stroke-width="1" x="77.9565321" y="51.1390873" width="4.52263374" height="4.5"></rect>
                    </g>
                    <g id="Rectangle-8-Copy-2" transform="translate(52.102623, 53.389087) rotate(-45.000000) translate(-52.102623, -53.389087) ">
                        <use fill="#F6016C" fill-rule="evenodd" xlink:href="#path-9"></use>
                        <rect stroke="#FFFFFF" stroke-width="1" x="49.8413058" y="51.1390873" width="4.52263374" height="4.5"></rect>
                    </g>
                    <g id="Rectangle-3-Copy-4">
                        <use fill="#F6016C" fill-rule="evenodd" xlink:href="#path-10"></use>
                        <rect stroke="#FFFFFF" stroke-width="1" x="75.808642" y="88" width="8.03703704" height="4"></rect>
                    </g>
                    <g id="Rectangle-3-Copy-5">
                        <use fill="#F6016C" fill-rule="evenodd" xlink:href="#path-11"></use>
                        <rect stroke="#FFFFFF" stroke-width="1" x="48.1954733" y="87.8609127" width="8.03703704" height="4"></rect>
                    </g>
                    <g id="Rectangle-3-Copy-6">
                        <use fill="#F6016C" fill-rule="evenodd" xlink:href="#path-12"></use>
                        <rect stroke="#FFFFFF" stroke-width="1" x="62.2530864" y="76" width="8.03703704" height="4"></rect>
                    </g>
                    <g id="Rectangle-8-Copy-6" transform="translate(66.522634, 89.750000) rotate(-45.000000) translate(-66.522634, -89.750000) ">
                        <use fill="#F6016C" fill-rule="evenodd" xlink:href="#path-13"></use>
                        <rect stroke="#FFFFFF" stroke-width="1" x="64.2613169" y="87.5" width="4.52263374" height="4.5"></rect>
                    </g>
                    <g id="Rectangle-8-Copy-7" transform="translate(80.078189, 77.750000) rotate(-45.000000) translate(-80.078189, -77.750000) ">
                        <use fill="#F6016C" fill-rule="evenodd" xlink:href="#path-14"></use>
                        <rect stroke="#FFFFFF" stroke-width="1" x="77.8168724" y="75.5" width="4.52263374" height="4.5"></rect>
                    </g>
                    <g id="Rectangle-8-Copy-8" transform="translate(52.102623, 77.750000) rotate(-45.000000) translate(-52.102623, -77.750000) ">
                        <use fill="#F6016C" fill-rule="evenodd" xlink:href="#path-15"></use>
                        <rect stroke="#FFFFFF" stroke-width="1" x="49.8413058" y="75.5" width="4.52263374" height="4.5"></rect>
                    </g>
                </g>
            </g>
        </g>
    </g>
</svg>