<?xml version="1.0" encoding="UTF-8"?>
<svg width="162px" height="162px" viewBox="0 0 162 162" version="1.1" xmlns="http://www.w3.org/2000/svg" xmlns:xlink="http://www.w3.org/1999/xlink">
    <!-- Generator: Sketch 47.1 (45422) - http://www.bohemiancoding.com/sketch -->
    <title>m-P-DT01-200x200</title>
    <desc>Created with Sketch.</desc>
    <defs></defs>
    <g id="Page-1" stroke="none" stroke-width="1" fill="none" fill-rule="evenodd">
        <g id="ASSET-SHEET" transform="translate(-1073.000000, -1229.000000)">
            <g id="m-P-DT01-200x200" transform="translate(1075.000000, 1231.000000)">
                <circle id="Oval-2" stroke="#F6016C" stroke-width="4" cx="79" cy="79" r="79"></circle>
                <g id="Group-6" transform="translate(40.290000, 41.080000)" stroke="#FFFFFF" stroke-width="2">
                    <path d="M15.6862635,40.56729 L29.0107827,52.6856214 C30.8221737,54.3334824 31.9701701,56.7096444 31.9886877,59.3512464 L31.9886877,72.8397088 L31.9917687,72.8520525 C31.9917687,74.2993325 30.8221737,75.4689275 29.3748937,75.4689275 L19.3332037,75.4689275 C17.8890047,75.4689275 16.7194097,74.2962515 16.7194097,72.8520525 L16.7194097,72.8397088 L16.7132398,72.8397088 L16.7132398,68.7200144 C16.7132398,66.9147064 15.9572098,65.2853314 14.7413208,64.1373824 L1.48433084,52.2384024 C0.583241042,51.5749604 0,50.5102774 0,49.3067914 L0,16.0865014 C0,14.0806124 1.62629384,12.4512374 3.63526384,12.4512374 C5.64423463,12.4512374 7.27052863,14.0806124 7.27052863,16.0865014 L9.48624084,34.4974514 C6.42807263,34.6857084 4.00253484,37.2223194 4.00253484,40.3298634 C4.00253484,42.2493264 4.93141684,43.9527244 6.36021084,45.0204884 L18.2876308,55.8427063 C18.7598138,56.2685716 19.4849785,56.2346253 19.9170058,55.7624739 C20.3428632,55.2902909 20.3058359,54.5589563 19.8336845,54.1330989 L16.3620295,50.985415 L10.9461845,46.072563 L7.50842054,42.9527029 C6.08578854,41.533144 6.08578854,39.231084 7.50842054,37.811533 C8.13489054,37.1819978 8.93721454,36.8487205 9.75810354,36.777739 C10.7918975,36.685151 11.8565805,37.018452 12.6496615,37.811533 L15.6862635,40.570371 L15.6862635,40.56729 Z M74.2078835,12.45435 L74.2075201,12.4552427 C76.210336,12.4552427 77.842792,14.0815367 77.842792,16.0874257 L77.842792,49.3077157 C77.842792,50.5112017 77.256454,51.5758531 76.35538,52.2393267 L63.1015421,64.1383067 C61.8887736,65.2893367 61.1234611,66.9187907 61.1234611,68.7209387 L61.1234611,72.8406331 L61.12655,72.8529768 C61.12655,74.3002568 59.960036,75.4698518 58.509675,75.4698518 L48.467985,75.4698518 C47.023786,75.4698518 45.854191,74.2971758 45.854191,72.8529768 L45.854191,72.8406331 L45.8572799,70.8965221 L45.8572799,59.3490897 C45.8757659,56.7106477 47.0206339,54.3344067 48.8351849,52.6834647 L62.1537949,40.5648647 L62.1537949,40.5679536 L65.1903969,37.8091156 C65.9835569,37.0191077 67.0481609,36.6827415 68.0819549,36.7753216 C68.9028439,36.8462636 69.7051916,37.1795804 70.3316379,37.8091156 C71.7542699,39.2286666 71.7542699,41.5307266 70.3316379,42.9502776 L66.8907929,46.0701456 L61.4780289,50.9829976 L58.0032929,54.1306736 C57.5311415,54.5596436 57.5002841,55.2878972 57.9261415,55.7600486 C58.3520305,56.2321921 59.083373,56.2661384 59.5524355,55.840281 L71.4798555,45.026761 C72.9086495,43.958997 73.8344505,42.255599 73.8344505,40.336136 C73.8344505,37.228592 71.4119945,34.6888842 68.3507445,34.503724 L70.5695385,16.089614 C70.5695385,14.083725 72.1989135,12.45435 74.2078835,12.45435 Z" id="Combined-Shape"></path>
                    <path d="M65.1102435,15.5314 C65.1102435,6.72132 59.8580075,0 51.0442935,0 C45.8197865,0 40.0000935,4.419102 38.9162135,9.6933 C37.8361255,4.416337 32.0129565,0 26.7881335,0 C17.9780535,0 12.7221835,6.721162 12.7221835,15.5314 C12.7221835,21.024349 16.2617785,25.97125 20.5851325,29.09412 C29.5745425,35.590053 31.6885825,36.741083 38.9123425,43.96192 C46.1364975,36.737765 48.2501425,35.5895 57.2395525,29.09412 C61.5691475,25.971171 65.1086635,21.02427 65.1086635,15.5314 L65.1102435,15.5314 Z" id="Fill-1"></path>
                </g>
            </g>
        </g>
    </g>
</svg>