<?xml version="1.0" encoding="UTF-8"?>
<svg width="162px" height="162px" viewBox="0 0 162 162" version="1.1" xmlns="http://www.w3.org/2000/svg" xmlns:xlink="http://www.w3.org/1999/xlink">
    <!-- Generator: Sketch 47.1 (45422) - http://www.bohemiancoding.com/sketch -->
    <title>m-P-DT02-200x200</title>
    <desc>Created with Sketch.</desc>
    <defs></defs>
    <g id="Page-1" stroke="none" stroke-width="1" fill="none" fill-rule="evenodd">
        <g id="ASSET-SHEET" transform="translate(-1543.000000, -1229.000000)">
            <g id="m-P-DT02-200x200" transform="translate(1545.000000, 1231.000000)">
                <circle id="Oval-2-Copy-2" stroke="#F6016C" stroke-width="4" cx="79" cy="79" r="79"></circle>
                <g id="Group-15" transform="translate(46.610000, 45.030000)" stroke="#FFFFFF" stroke-width="2">
                    <path d="M14.4736447,32.5269017 C13.5756759,34.7919295 12.8599634,37.1266072 12.3319281,39.5069862 L12.02903,40.8793976 L23.4426896,52.2985468 L24.815101,52.0036911 C27.1926665,51.4756352 29.5274128,50.7599364 31.7924406,49.8619676 L35.0921294,57.8233262 C35.1591442,57.9814829 35.3012094,58.0994211 35.4700846,58.1315835 C35.6416361,58.163746 35.8158705,58.1101396 35.9364918,57.9868353 L40.9248642,52.9984629 C42.5733361,51.3526671 43.4445429,49.0849631 43.3292604,46.7609903 L43.1496666,43.5551058 C52.3866816,36.7332604 61.7307447,24.7729694 64.2772541,3.89996418 C64.4246786,2.83847257 64.0681741,1.76895235 63.3123117,1.01042056 C62.5563875,0.251820153 61.4896121,-0.110016117 60.4281205,0.0293522624 C39.5606049,2.59459506 27.5918049,11.9494316 20.7729788,21.1569398 L17.575123,20.9934307 C15.2538263,20.8674502 12.9887985,21.7252005 11.3376503,23.3602914 L6.34927794,28.3486638 C6.20721278,28.4692851 6.14288099,28.6542381 6.17504345,28.8365149 C6.20988898,29.0187849 6.33855255,29.1662162 6.51278704,29.2278649 L14.4736447,32.5269017 Z" id="Page-1"></path>
                    <path d="M5.02459214,53.2094163 C3.70309787,52.7456922 2.2851224,52.6331133 0.907358576,52.879715 C0.658073766,52.9333214 0.398063562,52.855588 0.221152868,52.673318 C-0.00132874639,52.4535195 -0.0629774672,52.1157759 0.0683623053,51.8289419 C1.53190184,48.6874236 5.40786547,42.3668514 12.4282988,47.473114 C12.503356,47.5401288 12.5435608,47.6339468 12.5435608,47.7331242 C12.5435608,47.8323015 12.503356,47.9288026 12.4282988,47.9931344 C10.5224997,49.4942093 9.44488227,51.8128298 9.52530558,54.2387042 C9.53602411,54.5308769 9.76923112,54.764077 10.0614038,54.7748024 C12.4738286,54.8712967 14.792449,53.8178886 16.3042975,51.9334991 C16.3713123,51.8504064 16.4704896,51.8048355 16.5750262,51.8048355 C16.6822458,51.8048355 16.7814231,51.8504064 16.848438,51.9334991 C17.8241539,53.0941474 20.5046106,56.8816598 17.5346437,60.5378325 C16.2373032,62.0978518 14.3769995,63.0842725 12.358594,63.2826546 C9.47707904,63.5909119 4.1536324,64.5317549 1.9769879,67.0165743 C1.8000772,67.2256544 1.51862307,67.3221486 1.25057054,67.2658591 C0.979841798,67.2068887 0.76271945,67.0058489 0.687669132,66.7404863 C-0.0816360866,64.1189747 -1.27446747,58.2596707 5.02469507,53.2091967 L5.02459214,53.2094163 Z" id="Path"></path>
                    <path d="M38.5176065,17.0655892 C40.2867135,15.3045109 42.9404082,14.781828 45.2456476,15.7387419 C47.5508871,16.6956557 49.0519621,18.9446263 49.0519621,21.4401506 C49.0519621,23.9383511 47.5508871,26.1873217 45.2456476,27.1442356 C42.9404082,28.1011494 40.2867135,27.5784734 38.5176065,25.814712 C37.354282,24.6567399 36.7002593,23.0832702 36.7002593,21.4401506 C36.7002593,19.7997072 37.3543026,18.2262376 38.5176065,17.0655892 Z" id="Path"></path>
                </g>
            </g>
        </g>
    </g>
</svg>