<?xml version="1.0" encoding="UTF-8"?>
<svg width="204px" height="204px" viewBox="0 0 204 204" version="1.1" xmlns="http://www.w3.org/2000/svg" xmlns:xlink="http://www.w3.org/1999/xlink">
    <!-- Generator: Sketch 47.1 (45422) - http://www.bohemiancoding.com/sketch -->
    <title>P-DT03-200x200</title>
    <desc>Created with Sketch.</desc>
    <defs></defs>
    <g id="Page-1" stroke="none" stroke-width="1" fill="none" fill-rule="evenodd">
        <g id="ASSET-SHEET" transform="translate(-1781.000000, -1208.000000)">
            <g id="P-DT03-200x200" transform="translate(1783.000000, 1210.000000)">
                <circle id="Oval-2-Copy" stroke="#F6016C" stroke-width="4" cx="99.7713225" cy="99.7713225" r="99.7713225"></circle>
                <g id="Group-5" transform="translate(59.000000, 58.000000)">
                    <rect id="Rectangle-9" stroke="#FFFFFF" stroke-width="2" transform="translate(70.000000, 72.000000) rotate(-270.000000) translate(-70.000000, -72.000000) " x="59" y="61" width="22" height="22" rx="4"></rect>
                    <rect id="Rectangle-9" stroke="#FFFFFF" stroke-width="2" transform="translate(12.000000, 71.595238) rotate(-270.000000) translate(-12.000000, -71.595238) " x="1" y="60.5952381" width="22" height="22" rx="4"></rect>
                    <rect id="Rectangle-7-Copy-2" fill="#FFFFFF" transform="translate(70.000000, 50.000000) rotate(-270.000000) translate(-70.000000, -50.000000) " x="60" y="49" width="20" height="2"></rect>
                    <rect id="Rectangle-7-Copy-2" fill="#FFFFFF" transform="translate(12.000000, 50.000000) rotate(-270.000000) translate(-12.000000, -50.000000) " x="2" y="49" width="20" height="2"></rect>
                    <rect id="Rectangle-7-Copy" fill="#FFFFFF" transform="translate(41.000000, 41.000000) rotate(-270.000000) translate(-41.000000, -41.000000) " x="40" y="11" width="2" height="60"></rect>
                    <rect id="Rectangle-7-Copy-2" fill="#FFFFFF" transform="translate(42.000000, 32.000000) rotate(-90.000000) translate(-42.000000, -32.000000) " x="32" y="31" width="20" height="2"></rect>
                    <rect id="Rectangle-9" stroke="#FFFFFF" stroke-width="2" transform="translate(42.000000, 12.000000) rotate(-90.000000) translate(-42.000000, -12.000000) " x="31" y="1" width="22" height="22" rx="4"></rect>
                </g>
            </g>
        </g>
    </g>
</svg>