<?xml version="1.0" encoding="UTF-8"?>
<svg width="202px" height="202px" viewBox="0 0 202 202" version="1.1" xmlns="http://www.w3.org/2000/svg" xmlns:xlink="http://www.w3.org/1999/xlink">
    <!-- Generator: Sketch 48.1 (47250) - http://www.bohemiancoding.com/sketch -->
    <title>P-DT01-200x200</title>
    <desc>Created with Sketch.</desc>
    <defs></defs>
    <g id="ASSET-SHEET" stroke="none" stroke-width="1" fill="none" fill-rule="evenodd" transform="translate(-842.000000, -1209.000000)">
        <g id="P-DT01-200x200" transform="translate(843.000000, 1210.000000)" stroke-width="2">
            <circle id="Oval-2" stroke="#F6016C" cx="100" cy="100" r="100"></circle>
            <g id="Group-6" transform="translate(51.000000, 52.000000)" stroke="#FFFFFF">
                <path d="M19.8560298,51.351 L36.7225098,66.69066 C39.0154098,68.77656 40.4685698,71.78436 40.4920098,75.12816 L40.4920098,92.202163 L40.4959098,92.217788 C40.4959098,94.049788 39.0154098,95.530288 37.1834098,95.530288 L24.4724098,95.530288 C22.6443098,95.530288 21.1638098,94.045888 21.1638098,92.217788 L21.1638098,92.202163 L21.1559998,92.202163 L21.1559998,86.98736 C21.1559998,84.70216 20.1989998,82.63966 18.6598998,81.18656 L1.8788998,66.12456 C0.7382798,65.28476 0,63.93706 0,62.41366 L0,20.36266 C0,17.82356 2.0585998,15.76106 4.6015998,15.76106 C7.1446008,15.76106 9.2032008,17.82356 9.2032008,20.36266 L12.0078998,43.66766 C8.1368008,43.90596 5.0664998,47.11686 5.0664998,51.05046 C5.0664998,53.48016 6.2422998,55.63636 8.0508998,56.98796 L23.1488998,70.68697 C23.7465998,71.22604 24.6645298,71.18307 25.2113998,70.58541 C25.7504598,69.98771 25.7035898,69.06197 25.1059298,68.52291 L20.7114298,64.5385 L13.8559298,58.3197 L9.5043298,54.37051 C7.7035298,52.5736 7.7035298,49.6596 9.5043298,47.8627 C10.2973298,47.06582 11.3129298,46.64395 12.3520298,46.5541 C13.6606298,46.4369 15.0083298,46.8588 16.0122298,47.8627 L19.8560298,51.3549 L19.8560298,51.351 Z M93.9340298,15.765 L93.9335698,15.76613 C96.4687798,15.76613 98.5351798,17.82473 98.5351798,20.36383 L98.5351798,62.41483 C98.5351798,63.93823 97.7929798,65.28589 96.6523798,66.12573 L79.8753698,81.18773 C78.3402198,82.64473 77.3714698,84.70733 77.3714698,86.98853 L77.3714698,92.203333 L77.3753798,92.218958 C77.3753798,94.050958 75.8987798,95.531458 74.0628798,95.531458 L61.3518798,95.531458 C59.5237798,95.531458 58.0432798,94.047058 58.0432798,92.218958 L58.0432798,92.203333 L58.0471898,89.742433 L58.0471898,75.12543 C58.0705898,71.78563 59.5197898,68.77773 61.8166898,66.68793 L78.6756898,51.34793 L78.6756898,51.35184 L82.5194898,47.85964 C83.5234898,46.85963 84.8710898,46.43385 86.1796898,46.55104 C87.2187898,46.64084 88.2344198,47.06276 89.0273898,47.85964 C90.8281898,49.65654 90.8281898,52.57054 89.0273898,54.36744 L84.6718898,58.31664 L77.8202898,64.53544 L73.4218898,68.51984 C72.8242298,69.06284 72.7851698,69.98468 73.3242298,70.58234 C73.8633298,71.17999 74.7890798,71.22296 75.3828298,70.6839 L90.4808298,56.9959 C92.2894298,55.6443 93.4613298,53.4881 93.4613298,51.0584 C93.4613298,47.1248 90.3949298,43.90998 86.5199298,43.6756 L89.3285298,20.3666 C89.3285298,17.8275 91.3910298,15.765 93.9340298,15.765 Z" id="Combined-Shape"></path>
                <path d="M82.4180298,19.66 C82.4180298,8.508 75.7696298,0 64.6130298,0 C57.9997298,0 50.6330298,5.5938 49.2610298,12.27 C47.8938298,5.5903 40.5227298,0 33.9090298,0 C22.7570298,0 16.1040298,8.5078 16.1040298,19.66 C16.1040298,26.6131 20.5845298,32.875 26.0571298,36.828 C37.4361298,45.0507 40.1121298,46.5077 49.2561298,55.648 C58.4006298,46.5035 61.0761298,45.05 72.4551298,36.828 C77.9356298,32.8749 82.4160298,26.613 82.4160298,19.66 L82.4180298,19.66 Z" id="Fill-1"></path>
            </g>
        </g>
    </g>
</svg>