<?xml version="1.0" encoding="UTF-8"?>
<svg width="202px" height="202px" viewBox="0 0 202 202" version="1.1" xmlns="http://www.w3.org/2000/svg" xmlns:xlink="http://www.w3.org/1999/xlink">
    <!-- Generator: Sketch 48.1 (47250) - http://www.bohemiancoding.com/sketch -->
    <title>P-DT02-200x200</title>
    <desc>Created with Sketch.</desc>
    <defs></defs>
    <g id="ASSET-SHEET" stroke="none" stroke-width="1" fill="none" fill-rule="evenodd" transform="translate(-1312.000000, -1209.000000)">
        <g id="P-DT02-200x200" transform="translate(1313.000000, 1210.000000)" stroke-width="2">
            <circle id="Oval-2-Copy-2" stroke="#F6016C" cx="100" cy="100" r="100"></circle>
            <g id="Group-15" transform="translate(59.000000, 57.000000)" stroke="#FFFFFF">
                <path d="M18.3210693,41.1732934 C17.1843999,44.0404171 16.2784347,46.9957054 15.6100356,50.0088433 L15.2266203,51.7460729 L29.6742906,66.2006922 L31.4115202,65.8274571 C34.4210969,65.1590319 37.3764719,64.253084 40.2435957,63.1164147 L44.4204169,73.1940838 C44.5052459,73.3942821 44.6850752,73.543571 44.8988413,73.5842829 C45.115995,73.6249949 45.336545,73.5571387 45.4892301,73.4010573 L51.8036255,67.0866619 C53.8902989,65.0033761 54.9930923,62.1328647 54.847165,59.1911269 L54.6198311,55.1330453 C66.3122552,46.497798 78.1401832,31.3581891 81.3636128,4.93666351 C81.550226,3.59300325 81.0989546,2.23918019 80.1421667,1.27901337 C79.1853006,0.318759687 77.834952,-0.139260907 76.4912917,0.0371547625 C50.076715,3.28429754 34.9263354,15.1258628 26.2949099,26.7809364 L22.2469911,26.5739629 C19.3086409,26.4144939 16.4415171,27.5002538 14.3514561,29.5699891 L8.03706069,35.8843846 C7.85723136,36.0370697 7.77579872,36.2711874 7.8165107,36.5019176 C7.86061896,36.7326391 8.02348424,36.919261 8.24403423,36.9972973 L18.3210693,41.1732934 Z" id="Page-1"></path>
                <path d="M6.36024321,67.3536915 C4.68746566,66.7666989 2.89255999,66.624194 1.14855516,66.9363481 C0.833004767,67.0042043 0.503877926,66.9058076 0.279940339,66.6750861 C-0.00168195745,66.3968601 -0.0797183129,65.9693366 0.0865345636,65.6062556 C1.93911625,61.6296501 6.84539933,53.6289259 15.7320238,60.0925493 C15.8270329,60.1773782 15.8779251,60.2961353 15.8779251,60.4216762 C15.8779251,60.5472171 15.8270329,60.6693704 15.7320238,60.750803 C13.3196199,62.6508979 11.9555472,65.5858605 12.0573488,68.6565876 C12.0709166,69.0264265 12.3661153,69.3216165 12.7359542,69.335193 C15.7896564,69.4573376 18.724619,68.1239096 20.6383512,65.7386064 C20.7231801,65.6334259 20.848721,65.5757412 20.9810458,65.5757412 C21.1167669,65.5757412 21.2423078,65.6334259 21.3271367,65.7386064 C22.5622201,67.2077815 25.9552033,72.002101 22.1957515,76.6301677 C20.5535483,78.6048757 18.1987336,79.8535095 15.6437899,80.1046261 C11.9963026,80.4948252 5.25776254,81.6857656 2.50251633,84.8311068 C2.27857874,85.095765 1.92230769,85.2179096 1.58300068,85.1466571 C1.24030607,85.072011 0.965467659,84.8175303 0.870467256,84.4816283 C-0.103336818,81.1632591 -1.61324996,73.7464186 6.3603735,67.3534135 L6.36024321,67.3536915 Z" id="Path"></path>
                <path d="M48.7564639,21.6020117 C50.9958398,19.3727986 54.354947,18.7111747 57.2729717,19.9224581 C60.1909963,21.1337414 62.0910912,23.9805396 62.0910912,27.1394312 C62.0910912,30.3017103 60.1909963,33.1485085 57.2729717,34.3597918 C54.354947,35.5710752 50.9958398,34.90946 48.7564639,32.6768506 C47.2839012,31.2110631 46.4560245,29.2193293 46.4560245,27.1394312 C46.4560245,25.0629206 47.2839273,23.0711868 48.7564639,21.6020117 Z" id="Path"></path>
            </g>
        </g>
    </g>
</svg>