<?xml version="1.0" encoding="UTF-8"?>
<svg width="323px" height="392px" viewBox="0 0 323 392" version="1.1" xmlns="http://www.w3.org/2000/svg" xmlns:xlink="http://www.w3.org/1999/xlink">
    <!-- Generator: Sketch 47.1 (45422) - http://www.bohemiancoding.com/sketch -->
    <title>P-hero-323x392</title>
    <desc>Created with Sketch.</desc>
    <defs></defs>
    <g id="Page-1" stroke="none" stroke-width="1" fill="none" fill-rule="evenodd">
        <g id="ASSET-SHEET" transform="translate(-100.000000, -1114.000000)">
            <g id="P-hero-323x392" transform="translate(100.000000, 1114.000000)">
                <rect x="0" y="0" width="323" height="392"></rect>
                <g id="Group-11" transform="translate(41.000000, 57.000000)" fill="#FFFFFF">
                    <path d="M88.923,173.656 C88.678,174.748 87.834,175.608 86.757,175.891 C86.514,175.955 86.263,176 86,176 C85.556,176 85.137,175.896 84.757,175.722 C83.724,175.248 83,174.21 83,173 C83,171.345 84.346,170 86,170 C87.169,170 88.173,170.678 88.668,171.656 C88.873,172.062 89,172.514 89,173 C89,173.225 88.971,173.444 88.923,173.656 M88.961,230.608 C88.978,230.738 89,230.866 89,231 C89,231.575 88.829,232.108 88.547,232.566 C88.019,233.423 87.078,234 86,234 C84.346,234 83,232.654 83,231 C83,229.79 83.724,228.752 84.757,228.277 C85.137,228.103 85.556,228 86,228 C86.263,228 86.514,228.045 86.757,228.108 C87.92,228.414 88.8,229.394 88.961,230.608 M111.219,234.888 C111.662,233.784 112.739,233 114,233 C115.654,233 117,234.345 117,236 C117,237.324 116.133,238.437 114.941,238.834 C114.643,238.933 114.33,239 114,239 C113.626,239 113.272,238.923 112.941,238.797 C112.093,238.474 111.438,237.781 111.157,236.914 C111.065,236.624 111,236.32 111,236 C111,235.606 111.081,235.233 111.219,234.888 M7.816,6 C7.514,6.847 6.848,7.513 6,7.816 C5.686,7.927 5.353,8 5,8 C4.648,8 4.315,7.927 4,7.815 C2.839,7.401 2,6.302 2,5 C2,3.345 3.346,2 5,2 C6.302,2 7.402,2.838 7.816,4 C7.928,4.314 8,4.647 8,5 C8,5.352 7.928,5.685 7.816,6 M7.923,36.344 C7.971,36.555 8,36.774 8,37 C8,37.481 7.876,37.929 7.674,38.333 C7.181,39.317 6.173,40 5,40 C3.346,40 2,38.654 2,37 C2,35.698 2.839,34.598 4,34.184 C4.315,34.072 4.648,34 5,34 C5.353,34 5.686,34.072 6,34.184 C6.96,34.526 7.696,35.335 7.923,36.344 M30.32,40.678 C30.811,39.688 31.822,39 33,39 C34.654,39 36,40.345 36,42 C36,43.301 35.163,44.4 34.003,44.815 C33.688,44.927 33.354,45 33,45 C32.649,45 32.317,44.927 32.003,44.816 C31.046,44.476 30.313,43.673 30.082,42.67 C30.032,42.454 30,42.231 30,42 C30,41.523 30.122,41.079 30.32,40.678 M35,231 C35,232.654 33.654,234 32,234 C30.978,234 30.075,233.484 29.533,232.701 C29.198,232.217 29,231.632 29,231 C29,230.919 29.018,230.842 29.025,230.761 C29.148,229.22 30.427,228 32,228 L32.003,228 C32.775,228.001 33.472,228.302 34.003,228.783 C34.61,229.332 35,230.118 35,231 M7.848,236.898 C7.565,237.793 6.881,238.502 6,238.815 C5.686,238.927 5.353,239 5,239 C4.648,239 4.315,238.927 4,238.815 C2.839,238.401 2,237.302 2,236 C2,234.345 3.346,233 5,233 C6.256,233 7.33,233.777 7.777,234.875 C7.918,235.222 8,235.601 8,236 C8,236.314 7.938,236.613 7.848,236.898 M8,268 C8,269.654 6.654,271 5,271 C3.346,271 2,269.654 2,268 C2,266.698 2.839,265.598 4,265.184 C4.315,265.072 4.648,265 5,265 C5.353,265 5.686,265.072 6,265.184 C7.161,265.598 8,266.698 8,268 M202.137,27.468 C184.626,11.896 160.423,4 130.2,4 L9.899,4 C9.435,1.72 7.414,0 5,0 C2.243,0 0,2.243 0,5 C0,7.414 1.721,9.434 4,9.899 L4,32.101 C1.721,32.566 0,34.585 0,37 C0,39.757 2.243,42 5,42 C7.15,42 8.971,40.629 9.676,38.72 L28.027,42.272 C28.154,44.563 29.811,46.453 32.003,46.899 L32.003,226 L32,226 C29.243,226 27,228.243 27,231 C27,231.052 27.014,231.099 27.016,231.151 L9.743,234.494 C9.1,232.475 7.229,231 5,231 C2.243,231 0,233.243 0,236 C0,238.414 1.721,240.434 4,240.898 L4,263.101 C1.721,263.565 0,265.586 0,268 C0,270.757 2.243,273 5,273 C7.757,273 10,270.757 10,268 C10,265.586 8.279,263.565 6,263.101 L6,240.898 C8.12,240.467 9.733,238.68 9.95,236.491 L27.478,233.098 C28.274,234.806 29.995,236 32,236 C34.757,236 37,233.757 37,231 C37,228.956 35.764,227.2 34.003,226.426 L34.003,46.898 C36.281,46.432 38,44.413 38,42 C38,39.243 35.757,37 33,37 C30.846,37 29.022,38.377 28.32,40.291 L9.974,36.74 C9.854,34.444 8.195,32.549 6,32.101 L6,9.899 C7.956,9.5 9.5,7.956 9.899,6 L130.2,6 C159.918,6 183.674,13.725 200.808,28.962 C217.908,44.169 226.578,64.372 226.578,89.009 C226.578,113.763 217.909,133.934 200.813,148.961 C183.677,164.02 159.92,171.656 130.2,171.656 L90.793,171.656 C90.202,169.554 88.288,168 86,168 C83.243,168 81,170.243 81,173 C81,175.325 82.604,177.267 84.757,177.824 L84.757,226.176 C82.604,226.732 81,228.675 81,231 C81,233.757 83.243,236 86,236 C88.061,236 89.834,234.745 90.598,232.96 L109.052,236.509 C109.275,238.67 110.856,240.428 112.941,240.882 L112.941,268.047 C112.941,268.599 113.388,269.047 113.941,269.047 C114.493,269.047 114.941,268.599 114.941,268.047 L114.941,240.905 C117.248,240.463 119,238.434 119,236 C119,233.243 116.757,231 114,231 C111.766,231 109.891,232.483 109.252,234.51 L91,231.001 L91,231 C91,228.502 89.153,226.444 86.757,226.076 L86.757,177.924 C88.938,177.588 90.642,175.85 90.934,173.656 L130.2,173.656 C160.42,173.656 184.621,165.852 202.133,150.463 C219.681,135.04 228.578,114.364 228.578,89.009 C228.578,63.776 219.682,43.071 202.137,27.468 M86,129 C86.263,129 86.514,129.045 86.757,129.108 C87.72,129.361 88.488,130.077 88.819,131.007 C88.929,131.319 89,131.65 89,132 C89,132.354 88.928,132.69 88.814,133.007 C88.398,134.165 87.3,135 86,135 C84.346,135 83,133.654 83,132 C83,130.79 83.724,129.752 84.757,129.277 C85.137,129.103 85.556,129 86,129 M83,46 C83,44.345 84.346,43 86,43 C87.166,43 88.168,43.675 88.664,44.649 C88.872,45.057 89,45.511 89,46 C89,46.223 88.972,46.439 88.925,46.649 C88.682,47.745 87.837,48.608 86.757,48.891 C86.514,48.955 86.263,49 86,49 C85.556,49 85.137,48.896 84.757,48.722 C83.724,48.248 83,47.209 83,46 M90.935,46.649 L130.2,46.649 C144.533,46.649 155.499,50.703 162.794,58.698 C170.113,66.72 173.824,77.039 173.824,89.37 C173.824,101.455 170.116,111.528 162.804,119.307 C155.508,127.07 144.538,131.007 130.2,131.007 L90.9,131.007 C90.487,128.968 88.827,127.394 86.757,127.076 L86.757,50.923 C88.94,50.588 90.645,48.847 90.935,46.649 M81,132 C81,134.757 83.243,137 86,137 C88.412,137 90.431,135.283 90.899,133.007 L130.2,133.007 C145.112,133.007 156.572,128.858 164.261,120.677 C171.934,112.514 175.824,101.981 175.824,89.37 C175.824,76.525 171.938,65.752 164.271,57.351 C156.582,48.923 145.118,44.649 130.2,44.649 L90.791,44.649 C90.197,42.551 88.286,41 86,41 C83.243,41 81,43.243 81,46 C81,48.325 82.604,50.268 84.757,50.824 L84.757,127.176 C82.604,127.732 81,129.675 81,132" id="Fill-1"></path>
                </g>
            </g>
            <g id="m-P-hero-323x392" transform="translate(413.000000, 1225.000000)"></g>
        </g>
    </g>
</svg>