<?xml version="1.0" encoding="UTF-8"?>
<svg width="80px" height="43px" viewBox="0 0 80 43" version="1.1" xmlns="http://www.w3.org/2000/svg" xmlns:xlink="http://www.w3.org/1999/xlink">
    <!-- Generator: Sketch 47.1 (45422) - http://www.bohemiancoding.com/sketch -->
    <title>Combined Shape</title>
    <desc>Created with Sketch.</desc>
    <defs></defs>
    <g id="Page-1" stroke="none" stroke-width="1" fill="none" fill-rule="evenodd">
        <g id="ASSET-SHEET" transform="translate(-699.000000, -1289.000000)" fill="#9D9CE2">
            <path d="M736.816626,1321.7318 L700.21211,1321.7318 C699.482953,1321.7318 699,1321.24885 699,1320.51969 C699,1319.79053 699.482953,1319.30758 700.21211,1319.30758 L736.699051,1319.30758 C744.336315,1319.30758 750.638318,1313.00558 750.638318,1305.36831 C750.638318,1297.73105 744.336315,1291.42904 736.699051,1291.42904 C729.061787,1291.42904 722.759784,1297.73105 722.759784,1305.36831 C722.759784,1307.91568 723.488941,1310.4582 724.819402,1312.51782 C725.18398,1313.12388 724.942504,1313.85308 724.454823,1314.21284 C723.848768,1314.57742 723.119563,1314.33594 722.759808,1313.84826 C721.183095,1311.30089 720.458738,1308.39376 720.458738,1305.36349 C720.458738,1296.39581 727.85455,1289 736.822226,1289 C745.789902,1289 753.185713,1296.39581 753.185713,1305.36349 C753.180986,1314.33589 745.789902,1321.73182 736.817377,1321.73182 L736.816626,1321.7318 Z M778.999273,1320.51969 L779,1320.51965 C779,1320.8795 778.758523,1321.24408 778.51232,1321.36718 L769.180041,1330.69946 C768.938564,1330.94094 768.573986,1331.06404 768.332509,1331.06404 C768.091033,1331.06404 767.726454,1330.94094 767.484977,1330.69946 C767.002024,1330.21656 767.002024,1329.4874 767.484977,1329.00445 L774.757639,1321.73179 L754.02813,1321.73179 C753.298973,1321.73179 752.81602,1321.24883 752.81602,1320.51968 C752.81602,1319.79052 753.298973,1319.30757 754.02813,1319.30757 L774.880062,1319.30283 L767.607401,1312.03017 C767.124447,1311.54726 767.124447,1310.8181 767.607401,1310.33515 C768.090305,1309.8522 768.819462,1309.8522 769.302415,1310.33515 L778.634694,1319.67216 C778.876171,1319.91363 778.999273,1320.15511 778.999273,1320.51969 Z" id="Combined-Shape"></path>
        </g>
    </g>
</svg>