<?xml version="1.0" encoding="UTF-8"?>
<svg width="82px" height="82px" viewBox="0 0 82 82" version="1.1" xmlns="http://www.w3.org/2000/svg" xmlns:xlink="http://www.w3.org/1999/xlink">
    <!-- Generator: Sketch 47.1 (45422) - http://www.bohemiancoding.com/sketch -->
    <title>P-Skills01-80x80</title>
    <desc>Created with Sketch.</desc>
    <defs></defs>
    <g id="Page-1" stroke="none" stroke-width="1" fill="none" fill-rule="evenodd">
        <g id="ASSET-SHEET" transform="translate(-2252.000000, -1269.000000)">
            <g id="P-Skills01-80x80" transform="translate(2253.000000, 1270.000000)">
                <circle id="Oval-2" stroke="#9D9CE2" cx="40" cy="40" r="40"></circle>
                <g id="Group-6" transform="translate(20.400000, 20.800000)">
                    <path d="M7.94241192,20.5404 L14.6890039,26.676264 C15.6061639,27.510624 16.1874279,28.713744 16.1968039,30.051264 L16.1968039,36.8808652 L16.1983639,36.8871152 C16.1983639,37.6199152 15.6061639,38.2121152 14.8733639,38.2121152 L9.78896392,38.2121152 C9.05772392,38.2121152 8.46552392,37.6183552 8.46552392,36.8871152 L8.46552392,36.8808652 L8.46239992,36.8808652 L8.46239992,34.794944 C8.46239992,33.880864 8.07959992,33.055864 7.46395992,32.474624 L0.75155992,26.449824 C0.29531192,26.113904 0,25.574824 0,24.965464 L0,8.145064 C0,7.129424 0.82343992,6.304424 1.84063992,6.304424 C2.85784032,6.304424 3.68128032,7.129424 3.68128032,8.145064 L4.80315992,17.467064 C3.25472032,17.562384 2.02659992,18.846744 2.02659992,20.420184 C2.02659992,21.392064 2.49691992,22.254544 3.22035992,22.795184 L9.25955992,28.274788 C9.49863992,28.490416 9.86581192,28.473228 10.0845599,28.234164 C10.3001839,27.995084 10.2814359,27.624788 10.0423719,27.409164 L8.28457192,25.8154 L5.54237192,23.32788 L3.80173192,21.748204 C3.08141192,21.02944 3.08141192,19.86384 3.80173192,19.14508 C4.11893192,18.826328 4.52517192,18.65758 4.94081192,18.62164 C5.46425192,18.57476 6.00333192,18.74352 6.40489192,19.14508 L7.94241192,20.54196 L7.94241192,20.5404 Z M37.5736119,6.306 L37.5734279,6.306452 C38.5875119,6.306452 39.4140719,7.129892 39.4140719,8.145532 L39.4140719,24.965932 C39.4140719,25.575292 39.1171919,26.114356 38.6609519,26.450292 L31.9501479,32.475092 C31.3360879,33.057892 30.9485879,33.882932 30.9485879,34.795412 L30.9485879,36.8813332 L30.9501519,36.8875832 C30.9501519,37.6203832 30.3595119,38.2125832 29.6251519,38.2125832 L24.5407519,38.2125832 C23.8095119,38.2125832 23.2173119,37.6188232 23.2173119,36.8875832 L23.2173119,36.8813332 L23.2188759,35.8969732 L23.2188759,30.050172 C23.2282359,28.714252 23.8079159,27.511092 24.7266759,26.675172 L31.4702759,20.539172 L31.4702759,20.540736 L33.0077959,19.143856 C33.4093959,18.743852 33.9484359,18.57354 34.4718759,18.620416 C34.8875159,18.656336 35.2937679,18.825104 35.6109559,19.143856 C36.3312759,19.862616 36.3312759,21.028216 35.6109559,21.746976 L33.8687559,23.326656 L31.1281159,25.814176 L29.3687559,27.407936 C29.1296919,27.625136 29.1140679,27.993872 29.3296919,28.232936 C29.5453319,28.471996 29.9156319,28.489184 30.1531319,28.27356 L36.1923319,22.79836 C36.9157719,22.25772 37.3845319,21.39524 37.3845319,20.42336 C37.3845319,18.84992 36.1579719,17.563992 34.6079719,17.47024 L35.7314119,8.14664 C35.7314119,7.131 36.5564119,6.306 37.5736119,6.306 Z" id="Combined-Shape" fill="#9D9CE2"></path>
                    <path d="M32.9672119,7.864 C32.9672119,3.4032 30.3078519,0 25.8452119,0 C23.1998919,0 20.2532119,2.23752 19.7044119,4.908 C19.1575319,2.23612 16.2090919,0 13.5636119,0 C9.10281192,0 6.44161192,3.40312 6.44161192,7.864 C6.44161192,10.64524 8.23381192,13.15 10.4228519,14.7312 C14.9744519,18.02028 16.0448519,18.60308 19.7024519,22.2592 C23.3602519,18.6014 24.4304519,18.02 28.9820519,14.7312 C31.1742519,13.14996 32.9664119,10.6452 32.9664119,7.864 L32.9672119,7.864 Z" id="Fill-1" stroke="#9D9CE2" stroke-width="2"></path>
                </g>
            </g>
        </g>
    </g>
</svg>