<?xml version="1.0" encoding="UTF-8"?>
<svg width="82px" height="82px" viewBox="0 0 82 82" version="1.1" xmlns="http://www.w3.org/2000/svg" xmlns:xlink="http://www.w3.org/1999/xlink">
    <!-- Generator: Sketch 47.1 (45422) - http://www.bohemiancoding.com/sketch -->
    <title>P-Skills03-80x80</title>
    <desc>Created with Sketch.</desc>
    <defs></defs>
    <g id="Page-1" stroke="none" stroke-width="1" fill="none" fill-rule="evenodd">
        <g id="ASSET-SHEET" transform="translate(-2476.000000, -1269.000000)">
            <g id="P-Skills03-80x80" transform="translate(2477.000000, 1270.000000)">
                <circle id="Oval-2-Copy-4" stroke="#9D9CE2" cx="40" cy="40" r="40"></circle>
                <g id="Group-5-Copy" transform="translate(24.000000, 23.000000)">
                    <rect id="Rectangle-9" stroke="#9D9CE2" stroke-width="2" transform="translate(27.000000, 29.000000) rotate(-270.000000) translate(-27.000000, -29.000000) " x="23" y="25" width="8" height="8" rx="4"></rect>
                    <rect id="Rectangle-9" stroke="#9D9CE2" stroke-width="2" transform="translate(5.000000, 29.000000) rotate(-270.000000) translate(-5.000000, -29.000000) " x="1" y="25" width="8" height="8" rx="4"></rect>
                    <rect id="Rectangle-7-Copy-2" fill="#9D9CE2" transform="translate(27.000000, 20.000000) rotate(-270.000000) translate(-27.000000, -20.000000) " x="23" y="19" width="8" height="2"></rect>
                    <rect id="Rectangle-7-Copy-2" fill="#9D9CE2" transform="translate(5.000000, 20.000000) rotate(-270.000000) translate(-5.000000, -20.000000) " x="1" y="19" width="8" height="2"></rect>
                    <rect id="Rectangle-7-Copy" fill="#9D9CE2" transform="translate(16.000000, 16.000000) rotate(-270.000000) translate(-16.000000, -16.000000) " x="15" y="4" width="2" height="24"></rect>
                    <rect id="Rectangle-7-Copy-2" fill="#9D9CE2" transform="translate(16.000000, 13.000000) rotate(-90.000000) translate(-16.000000, -13.000000) " x="12" y="12" width="8" height="2"></rect>
                    <rect id="Rectangle-9" fill="#9D9CE2" transform="translate(16.000000, 5.000000) rotate(-90.000000) translate(-16.000000, -5.000000) " x="11" y="0" width="10" height="10" rx="4"></rect>
                </g>
            </g>
        </g>
    </g>
</svg>