<?xml version="1.0" encoding="UTF-8"?>
<svg width="82px" height="82px" viewBox="0 0 82 82" version="1.1" xmlns="http://www.w3.org/2000/svg" xmlns:xlink="http://www.w3.org/1999/xlink">
    <!-- Generator: Sketch 47.1 (45422) - http://www.bohemiancoding.com/sketch -->
    <title>P-Skills02-80x80</title>
    <desc>Created with Sketch.</desc>
    <defs></defs>
    <g id="Page-1" stroke="none" stroke-width="1" fill="none" fill-rule="evenodd">
        <g id="ASSET-SHEET" transform="translate(-2364.000000, -1269.000000)">
            <g id="P-Skills02-80x80" transform="translate(2365.000000, 1270.000000)">
                <circle id="Oval-2-Copy-2" stroke="#9D9CE2" cx="40" cy="40" r="40"></circle>
                <g id="Group-15" transform="translate(23.600000, 22.800000)">
                    <path d="M7.32842771,16.4693173 C6.87375997,17.6161669 6.51137387,18.7982821 6.24401423,20.0035373 L6.09064812,20.6984292 L11.8697162,26.4802769 L12.5646081,26.3309828 C13.7684387,26.0636128 14.9505888,25.7012336 16.0974383,25.2465659 L17.7681668,29.2776335 C17.8020983,29.3577129 17.8740301,29.4174284 17.9595365,29.4337132 C18.046398,29.449998 18.134618,29.4228555 18.195692,29.3604229 L20.7214502,26.8346648 C21.5561196,26.0013504 21.9972369,24.8531459 21.938866,23.6764508 L21.8479325,22.0532181 C26.5249021,18.5991192 31.2560733,12.5432756 32.5454451,1.97466541 C32.6200904,1.4372013 32.4395818,0.895672077 32.0568667,0.511605348 C31.6741202,0.127503875 31.1339808,-0.055704363 30.5965167,0.014861905 C20.030686,1.31371902 13.9705341,6.05034512 10.517964,10.7123746 L8.89879644,10.6295852 C7.72345636,10.5657976 6.57660684,11.0001015 5.74058245,11.8279957 L3.21482428,14.3537538 C3.14289254,14.4148279 3.11031949,14.508475 3.12660428,14.600767 C3.14424758,14.6930556 3.2093937,14.7677044 3.29761369,14.7989189 L7.32842771,16.4693173 Z" id="Page-1" stroke="#9D9CE2" stroke-width="2"></path>
                    <path d="M2.54409728,26.9414766 C1.87498626,26.7066796 1.157024,26.6496776 0.459422064,26.7745392 C0.333201907,26.8016817 0.20155117,26.762323 0.111976136,26.6700345 C-0.000672782981,26.558744 -0.0318873251,26.3877346 0.0346138255,26.2425022 C0.7756465,24.65186 2.73815973,21.4515703 6.29280953,24.0370197 C6.33081317,24.0709513 6.35117002,24.1184541 6.35117002,24.1686705 C6.35117002,24.2188868 6.33081317,24.2677481 6.29280953,24.3003212 C5.32784796,25.0603592 4.78221887,26.2343442 4.82293953,27.4626351 C4.82836664,27.6105706 4.94644614,27.7286466 5.09438166,27.7340772 C6.31586257,27.782935 7.48984761,27.2495638 8.25534048,26.2954426 C8.28927205,26.2533703 8.33948841,26.2302965 8.39241832,26.2302965 C8.44670675,26.2302965 8.49692311,26.2533703 8.53085468,26.2954426 C9.02488805,26.8831126 10.3820813,28.8008404 8.87830061,30.6520671 C8.22141934,31.4419503 7.27949343,31.9414038 6.25751597,32.0418504 C4.79852103,32.1979301 2.10310501,32.6743063 1.00100653,33.9324427 C0.911431496,34.038306 0.768923074,34.0871638 0.633200272,34.0586629 C0.49612243,34.0288044 0.386187064,33.9270121 0.348186902,33.7926513 C-0.0413347274,32.4653036 -0.645299984,29.4985674 2.5441494,26.9413654 L2.54409728,26.9414766 Z" id="Path" fill="#9D9CE2"></path>
                    <path d="M19.5025856,8.64080467 C20.3983359,7.74911944 21.7419788,7.48446988 22.9091887,7.96898323 C24.0763985,8.45349657 24.8364365,9.59221586 24.8364365,10.8557725 C24.8364365,12.1206841 24.0763985,13.2594034 22.9091887,13.7439167 C21.7419788,14.2284301 20.3983359,13.963784 19.5025856,13.0707403 C18.9135605,12.4844252 18.5824098,11.6877317 18.5824098,10.8557725 C18.5824098,10.0251682 18.9135709,9.22847471 19.5025856,8.64080467 Z" id="Path" fill="#9D9CE2"></path>
                </g>
            </g>
        </g>
    </g>
</svg>